G04 #@! TF.GenerationSoftware,KiCad,Pcbnew,(5.1.10)-1*
G04 #@! TF.CreationDate,2023-12-11T13:30:18-03:30*
G04 #@! TF.ProjectId,tight-distortion,74696768-742d-4646-9973-746f7274696f,rev?*
G04 #@! TF.SameCoordinates,Original*
G04 #@! TF.FileFunction,Legend,Bot*
G04 #@! TF.FilePolarity,Positive*
%FSLAX46Y46*%
G04 Gerber Fmt 4.6, Leading zero omitted, Abs format (unit mm)*
G04 Created by KiCad (PCBNEW (5.1.10)-1) date 2023-12-11 13:30:18*
%MOMM*%
%LPD*%
G01*
G04 APERTURE LIST*
%ADD10C,0.150000*%
%ADD11C,0.120000*%
G04 APERTURE END LIST*
D10*
X-780952Y-39502380D02*
X-780952Y-40216666D01*
X-733333Y-40359523D01*
X-638095Y-40454761D01*
X-495238Y-40502380D01*
X-400000Y-40502380D01*
X-1733333Y-40502380D02*
X-1257142Y-40502380D01*
X-1257142Y-39502380D01*
X-2638095Y-40407142D02*
X-2590476Y-40454761D01*
X-2447619Y-40502380D01*
X-2352380Y-40502380D01*
X-2209523Y-40454761D01*
X-2114285Y-40359523D01*
X-2066666Y-40264285D01*
X-2019047Y-40073809D01*
X-2019047Y-39930952D01*
X-2066666Y-39740476D01*
X-2114285Y-39645238D01*
X-2209523Y-39550000D01*
X-2352380Y-39502380D01*
X-2447619Y-39502380D01*
X-2590476Y-39550000D01*
X-2638095Y-39597619D01*
X-3352380Y-39502380D02*
X-3352380Y-40216666D01*
X-3304761Y-40359523D01*
X-3209523Y-40454761D01*
X-3066666Y-40502380D01*
X-2971428Y-40502380D01*
X-4304761Y-40502380D02*
X-3828571Y-40502380D01*
X-3828571Y-39502380D01*
X-5209523Y-40407142D02*
X-5161904Y-40454761D01*
X-5019047Y-40502380D01*
X-4923809Y-40502380D01*
X-4780952Y-40454761D01*
X-4685714Y-40359523D01*
X-4638095Y-40264285D01*
X-4590476Y-40073809D01*
X-4590476Y-39930952D01*
X-4638095Y-39740476D01*
X-4685714Y-39645238D01*
X-4780952Y-39550000D01*
X-4923809Y-39502380D01*
X-5019047Y-39502380D01*
X-5161904Y-39550000D01*
X-5209523Y-39597619D01*
X-5923809Y-39502380D02*
X-5923809Y-40216666D01*
X-5876190Y-40359523D01*
X-5780952Y-40454761D01*
X-5638095Y-40502380D01*
X-5542857Y-40502380D01*
X-6876190Y-40502380D02*
X-6399999Y-40502380D01*
X-6399999Y-39502380D01*
X-7780952Y-40407142D02*
X-7733333Y-40454761D01*
X-7590476Y-40502380D01*
X-7495238Y-40502380D01*
X-7352380Y-40454761D01*
X-7257142Y-40359523D01*
X-7209523Y-40264285D01*
X-7161904Y-40073809D01*
X-7161904Y-39930952D01*
X-7209523Y-39740476D01*
X-7257142Y-39645238D01*
X-7352380Y-39550000D01*
X-7495238Y-39502380D01*
X-7590476Y-39502380D01*
X-7733333Y-39550000D01*
X-7780952Y-39597619D01*
X-8495238Y-39502380D02*
X-8495238Y-40216666D01*
X-8447619Y-40359523D01*
X-8352380Y-40454761D01*
X-8209523Y-40502380D01*
X-8114285Y-40502380D01*
X-9447619Y-40502380D02*
X-8971428Y-40502380D01*
X-8971428Y-39502380D01*
X-10352380Y-40407142D02*
X-10304761Y-40454761D01*
X-10161904Y-40502380D01*
X-10066666Y-40502380D01*
X-9923809Y-40454761D01*
X-9828571Y-40359523D01*
X-9780952Y-40264285D01*
X-9733333Y-40073809D01*
X-9733333Y-39930952D01*
X-9780952Y-39740476D01*
X-9828571Y-39645238D01*
X-9923809Y-39550000D01*
X-10066666Y-39502380D01*
X-10161904Y-39502380D01*
X-10304761Y-39550000D01*
X-10352380Y-39597619D01*
D11*
G04 #@! TO.C,D5*
X-42550000Y-30000000D02*
G75*
G03*
X-42550000Y-30000000I-2500000J0D01*
G01*
X-43505000Y-32560000D02*
X-46595000Y-32560000D01*
X-45050462Y-27010000D02*
G75*
G02*
X-43505170Y-32560000I462J-2990000D01*
G01*
X-45049538Y-27010000D02*
G75*
G03*
X-46594830Y-32560000I-462J-2990000D01*
G01*
G04 #@! TO.C,RV1*
X53500000Y26000000D02*
G75*
G03*
X53500000Y26000000I-8500000J0D01*
G01*
X48175000Y26000000D02*
G75*
G03*
X48175000Y26000000I-3175000J0D01*
G01*
X38100000Y9500000D02*
X41900000Y9500000D01*
X41900000Y9500000D02*
X41900000Y14000000D01*
X38100000Y9500000D02*
X38100000Y14000000D01*
X43100000Y9500000D02*
X46900000Y9500000D01*
X43100000Y9500000D02*
X43100000Y14000000D01*
X46900000Y9500000D02*
X46900000Y14000000D01*
X48100000Y9500000D02*
X51900000Y9500000D01*
X51900000Y9500000D02*
X51900000Y14000000D01*
X48100000Y9500000D02*
X48100000Y14000000D01*
X37400000Y14000000D02*
X52500000Y14000000D01*
X52500000Y14000000D02*
X52600000Y14000000D01*
X52600000Y14000000D02*
X52600000Y20000000D01*
X52600000Y20000000D02*
X51900000Y20700000D01*
X38100000Y20700000D02*
X37400000Y20000000D01*
X37400000Y14000000D02*
X37400000Y20000000D01*
G04 #@! TO.C,RV2*
X31000000Y26000000D02*
G75*
G03*
X31000000Y26000000I-8500000J0D01*
G01*
X25675000Y26000000D02*
G75*
G03*
X25675000Y26000000I-3175000J0D01*
G01*
X15600000Y9500000D02*
X19400000Y9500000D01*
X19400000Y9500000D02*
X19400000Y14000000D01*
X15600000Y9500000D02*
X15600000Y14000000D01*
X20600000Y9500000D02*
X24400000Y9500000D01*
X20600000Y9500000D02*
X20600000Y14000000D01*
X24400000Y9500000D02*
X24400000Y14000000D01*
X25600000Y9500000D02*
X29400000Y9500000D01*
X29400000Y9500000D02*
X29400000Y14000000D01*
X25600000Y9500000D02*
X25600000Y14000000D01*
X14900000Y14000000D02*
X30000000Y14000000D01*
X30000000Y14000000D02*
X30100000Y14000000D01*
X30100000Y14000000D02*
X30100000Y20000000D01*
X30100000Y20000000D02*
X29400000Y20700000D01*
X15600000Y20700000D02*
X14900000Y20000000D01*
X14900000Y14000000D02*
X14900000Y20000000D01*
G04 #@! TO.C,RV3*
X-7600000Y14000000D02*
X-7600000Y20000000D01*
X-6900000Y20700000D02*
X-7600000Y20000000D01*
X7600000Y20000000D02*
X6900000Y20700000D01*
X7600000Y14000000D02*
X7600000Y20000000D01*
X7500000Y14000000D02*
X7600000Y14000000D01*
X-7600000Y14000000D02*
X7500000Y14000000D01*
X3100000Y9500000D02*
X3100000Y14000000D01*
X6900000Y9500000D02*
X6900000Y14000000D01*
X3100000Y9500000D02*
X6900000Y9500000D01*
X1900000Y9500000D02*
X1900000Y14000000D01*
X-1900000Y9500000D02*
X-1900000Y14000000D01*
X-1900000Y9500000D02*
X1900000Y9500000D01*
X-6900000Y9500000D02*
X-6900000Y14000000D01*
X-3100000Y9500000D02*
X-3100000Y14000000D01*
X-6900000Y9500000D02*
X-3100000Y9500000D01*
X3175000Y26000000D02*
G75*
G03*
X3175000Y26000000I-3175000J0D01*
G01*
X8500000Y26000000D02*
G75*
G03*
X8500000Y26000000I-8500000J0D01*
G01*
G04 #@! TO.C,RV4*
X-14000000Y26000000D02*
G75*
G03*
X-14000000Y26000000I-8500000J0D01*
G01*
X-19325000Y26000000D02*
G75*
G03*
X-19325000Y26000000I-3175000J0D01*
G01*
X-29400000Y9500000D02*
X-25600000Y9500000D01*
X-25600000Y9500000D02*
X-25600000Y14000000D01*
X-29400000Y9500000D02*
X-29400000Y14000000D01*
X-24400000Y9500000D02*
X-20600000Y9500000D01*
X-24400000Y9500000D02*
X-24400000Y14000000D01*
X-20600000Y9500000D02*
X-20600000Y14000000D01*
X-19400000Y9500000D02*
X-15600000Y9500000D01*
X-15600000Y9500000D02*
X-15600000Y14000000D01*
X-19400000Y9500000D02*
X-19400000Y14000000D01*
X-30100000Y14000000D02*
X-15000000Y14000000D01*
X-15000000Y14000000D02*
X-14900000Y14000000D01*
X-14900000Y14000000D02*
X-14900000Y20000000D01*
X-14900000Y20000000D02*
X-15600000Y20700000D01*
X-29400000Y20700000D02*
X-30100000Y20000000D01*
X-30100000Y14000000D02*
X-30100000Y20000000D01*
G04 #@! TO.C,RV5*
X-52600000Y14000000D02*
X-52600000Y20000000D01*
X-51900000Y20700000D02*
X-52600000Y20000000D01*
X-37400000Y20000000D02*
X-38100000Y20700000D01*
X-37400000Y14000000D02*
X-37400000Y20000000D01*
X-37500000Y14000000D02*
X-37400000Y14000000D01*
X-52600000Y14000000D02*
X-37500000Y14000000D01*
X-41900000Y9500000D02*
X-41900000Y14000000D01*
X-38100000Y9500000D02*
X-38100000Y14000000D01*
X-41900000Y9500000D02*
X-38100000Y9500000D01*
X-43100000Y9500000D02*
X-43100000Y14000000D01*
X-46900000Y9500000D02*
X-46900000Y14000000D01*
X-46900000Y9500000D02*
X-43100000Y9500000D01*
X-51900000Y9500000D02*
X-51900000Y14000000D01*
X-48100000Y9500000D02*
X-48100000Y14000000D01*
X-51900000Y9500000D02*
X-48100000Y9500000D01*
X-41825000Y26000000D02*
G75*
G03*
X-41825000Y26000000I-3175000J0D01*
G01*
X-36500000Y26000000D02*
G75*
G03*
X-36500000Y26000000I-8500000J0D01*
G01*
G04 #@! TO.C,D5*
D10*
X-40587619Y-27991904D02*
X-41587619Y-27991904D01*
X-41587619Y-28230000D01*
X-41540000Y-28372857D01*
X-41444761Y-28468095D01*
X-41349523Y-28515714D01*
X-41159047Y-28563333D01*
X-41016190Y-28563333D01*
X-40825714Y-28515714D01*
X-40730476Y-28468095D01*
X-40635238Y-28372857D01*
X-40587619Y-28230000D01*
X-40587619Y-27991904D01*
X-41587619Y-29468095D02*
X-41587619Y-28991904D01*
X-41111428Y-28944285D01*
X-41159047Y-28991904D01*
X-41206666Y-29087142D01*
X-41206666Y-29325238D01*
X-41159047Y-29420476D01*
X-41111428Y-29468095D01*
X-41016190Y-29515714D01*
X-40778095Y-29515714D01*
X-40682857Y-29468095D01*
X-40635238Y-29420476D01*
X-40587619Y-29325238D01*
X-40587619Y-29087142D01*
X-40635238Y-28991904D01*
X-40682857Y-28944285D01*
G04 #@! TO.C,RV1*
X45595238Y25547619D02*
X45928571Y26023809D01*
X46166666Y25547619D02*
X46166666Y26547619D01*
X45785714Y26547619D01*
X45690476Y26500000D01*
X45642857Y26452380D01*
X45595238Y26357142D01*
X45595238Y26214285D01*
X45642857Y26119047D01*
X45690476Y26071428D01*
X45785714Y26023809D01*
X46166666Y26023809D01*
X45309523Y26547619D02*
X44976190Y25547619D01*
X44642857Y26547619D01*
X43785714Y25547619D02*
X44357142Y25547619D01*
X44071428Y25547619D02*
X44071428Y26547619D01*
X44166666Y26404761D01*
X44261904Y26309523D01*
X44357142Y26261904D01*
X46547619Y21547619D02*
X47023809Y21547619D01*
X47071428Y21071428D01*
X47023809Y21119047D01*
X46928571Y21166666D01*
X46690476Y21166666D01*
X46595238Y21119047D01*
X46547619Y21071428D01*
X46500000Y20976190D01*
X46500000Y20738095D01*
X46547619Y20642857D01*
X46595238Y20595238D01*
X46690476Y20547619D01*
X46928571Y20547619D01*
X47023809Y20595238D01*
X47071428Y20642857D01*
X45880952Y21547619D02*
X45785714Y21547619D01*
X45690476Y21500000D01*
X45642857Y21452380D01*
X45595238Y21357142D01*
X45547619Y21166666D01*
X45547619Y20928571D01*
X45595238Y20738095D01*
X45642857Y20642857D01*
X45690476Y20595238D01*
X45785714Y20547619D01*
X45880952Y20547619D01*
X45976190Y20595238D01*
X46023809Y20642857D01*
X46071428Y20738095D01*
X46119047Y20928571D01*
X46119047Y21166666D01*
X46071428Y21357142D01*
X46023809Y21452380D01*
X45976190Y21500000D01*
X45880952Y21547619D01*
X44928571Y21547619D02*
X44833333Y21547619D01*
X44738095Y21500000D01*
X44690476Y21452380D01*
X44642857Y21357142D01*
X44595238Y21166666D01*
X44595238Y20928571D01*
X44642857Y20738095D01*
X44690476Y20642857D01*
X44738095Y20595238D01*
X44833333Y20547619D01*
X44928571Y20547619D01*
X45023809Y20595238D01*
X45071428Y20642857D01*
X45119047Y20738095D01*
X45166666Y20928571D01*
X45166666Y21166666D01*
X45119047Y21357142D01*
X45071428Y21452380D01*
X45023809Y21500000D01*
X44928571Y21547619D01*
X44166666Y20547619D02*
X44166666Y21547619D01*
X44071428Y20928571D02*
X43785714Y20547619D01*
X43785714Y21214285D02*
X44166666Y20833333D01*
X43404761Y20833333D02*
X42928571Y20833333D01*
X43500000Y20547619D02*
X43166666Y21547619D01*
X42833333Y20547619D01*
G04 #@! TO.C,RV2*
X23095238Y25547619D02*
X23428571Y26023809D01*
X23666666Y25547619D02*
X23666666Y26547619D01*
X23285714Y26547619D01*
X23190476Y26500000D01*
X23142857Y26452380D01*
X23095238Y26357142D01*
X23095238Y26214285D01*
X23142857Y26119047D01*
X23190476Y26071428D01*
X23285714Y26023809D01*
X23666666Y26023809D01*
X22809523Y26547619D02*
X22476190Y25547619D01*
X22142857Y26547619D01*
X21857142Y26452380D02*
X21809523Y26500000D01*
X21714285Y26547619D01*
X21476190Y26547619D01*
X21380952Y26500000D01*
X21333333Y26452380D01*
X21285714Y26357142D01*
X21285714Y26261904D01*
X21333333Y26119047D01*
X21904761Y25547619D01*
X21285714Y25547619D01*
X24071428Y20547619D02*
X24642857Y20547619D01*
X24357142Y20547619D02*
X24357142Y21547619D01*
X24452380Y21404761D01*
X24547619Y21309523D01*
X24642857Y21261904D01*
X23452380Y21547619D02*
X23357142Y21547619D01*
X23261904Y21500000D01*
X23214285Y21452380D01*
X23166666Y21357142D01*
X23119047Y21166666D01*
X23119047Y20928571D01*
X23166666Y20738095D01*
X23214285Y20642857D01*
X23261904Y20595238D01*
X23357142Y20547619D01*
X23452380Y20547619D01*
X23547619Y20595238D01*
X23595238Y20642857D01*
X23642857Y20738095D01*
X23690476Y20928571D01*
X23690476Y21166666D01*
X23642857Y21357142D01*
X23595238Y21452380D01*
X23547619Y21500000D01*
X23452380Y21547619D01*
X22500000Y21547619D02*
X22404761Y21547619D01*
X22309523Y21500000D01*
X22261904Y21452380D01*
X22214285Y21357142D01*
X22166666Y21166666D01*
X22166666Y20928571D01*
X22214285Y20738095D01*
X22261904Y20642857D01*
X22309523Y20595238D01*
X22404761Y20547619D01*
X22500000Y20547619D01*
X22595238Y20595238D01*
X22642857Y20642857D01*
X22690476Y20738095D01*
X22738095Y20928571D01*
X22738095Y21166666D01*
X22690476Y21357142D01*
X22642857Y21452380D01*
X22595238Y21500000D01*
X22500000Y21547619D01*
X21738095Y20547619D02*
X21738095Y21547619D01*
X21642857Y20928571D02*
X21357142Y20547619D01*
X21357142Y21214285D02*
X21738095Y20833333D01*
X20595238Y21071428D02*
X20452380Y21023809D01*
X20404761Y20976190D01*
X20357142Y20880952D01*
X20357142Y20738095D01*
X20404761Y20642857D01*
X20452380Y20595238D01*
X20547619Y20547619D01*
X20928571Y20547619D01*
X20928571Y21547619D01*
X20595238Y21547619D01*
X20500000Y21500000D01*
X20452380Y21452380D01*
X20404761Y21357142D01*
X20404761Y21261904D01*
X20452380Y21166666D01*
X20500000Y21119047D01*
X20595238Y21071428D01*
X20928571Y21071428D01*
G04 #@! TO.C,RV3*
X595238Y25547619D02*
X928571Y26023809D01*
X1166666Y25547619D02*
X1166666Y26547619D01*
X785714Y26547619D01*
X690476Y26500000D01*
X642857Y26452380D01*
X595238Y26357142D01*
X595238Y26214285D01*
X642857Y26119047D01*
X690476Y26071428D01*
X785714Y26023809D01*
X1166666Y26023809D01*
X309523Y26547619D02*
X-23809Y25547619D01*
X-357142Y26547619D01*
X-595238Y26547619D02*
X-1214285Y26547619D01*
X-880952Y26166666D01*
X-1023809Y26166666D01*
X-1119047Y26119047D01*
X-1166666Y26071428D01*
X-1214285Y25976190D01*
X-1214285Y25738095D01*
X-1166666Y25642857D01*
X-1119047Y25595238D01*
X-1023809Y25547619D01*
X-738095Y25547619D01*
X-642857Y25595238D01*
X-595238Y25642857D01*
X1571428Y20547619D02*
X2142857Y20547619D01*
X1857142Y20547619D02*
X1857142Y21547619D01*
X1952380Y21404761D01*
X2047619Y21309523D01*
X2142857Y21261904D01*
X952380Y21547619D02*
X857142Y21547619D01*
X761904Y21500000D01*
X714285Y21452380D01*
X666666Y21357142D01*
X619047Y21166666D01*
X619047Y20928571D01*
X666666Y20738095D01*
X714285Y20642857D01*
X761904Y20595238D01*
X857142Y20547619D01*
X952380Y20547619D01*
X1047619Y20595238D01*
X1095238Y20642857D01*
X1142857Y20738095D01*
X1190476Y20928571D01*
X1190476Y21166666D01*
X1142857Y21357142D01*
X1095238Y21452380D01*
X1047619Y21500000D01*
X952380Y21547619D01*
X0Y21547619D02*
X-95238Y21547619D01*
X-190476Y21500000D01*
X-238095Y21452380D01*
X-285714Y21357142D01*
X-333333Y21166666D01*
X-333333Y20928571D01*
X-285714Y20738095D01*
X-238095Y20642857D01*
X-190476Y20595238D01*
X-95238Y20547619D01*
X0Y20547619D01*
X95238Y20595238D01*
X142857Y20642857D01*
X190476Y20738095D01*
X238095Y20928571D01*
X238095Y21166666D01*
X190476Y21357142D01*
X142857Y21452380D01*
X95238Y21500000D01*
X0Y21547619D01*
X-761904Y20547619D02*
X-761904Y21547619D01*
X-857142Y20928571D02*
X-1142857Y20547619D01*
X-1142857Y21214285D02*
X-761904Y20833333D01*
X-1904761Y21071428D02*
X-2047619Y21023809D01*
X-2095238Y20976190D01*
X-2142857Y20880952D01*
X-2142857Y20738095D01*
X-2095238Y20642857D01*
X-2047619Y20595238D01*
X-1952380Y20547619D01*
X-1571428Y20547619D01*
X-1571428Y21547619D01*
X-1904761Y21547619D01*
X-2000000Y21500000D01*
X-2047619Y21452380D01*
X-2095238Y21357142D01*
X-2095238Y21261904D01*
X-2047619Y21166666D01*
X-2000000Y21119047D01*
X-1904761Y21071428D01*
X-1571428Y21071428D01*
G04 #@! TO.C,RV4*
X-21904761Y25547619D02*
X-21571428Y26023809D01*
X-21333333Y25547619D02*
X-21333333Y26547619D01*
X-21714285Y26547619D01*
X-21809523Y26500000D01*
X-21857142Y26452380D01*
X-21904761Y26357142D01*
X-21904761Y26214285D01*
X-21857142Y26119047D01*
X-21809523Y26071428D01*
X-21714285Y26023809D01*
X-21333333Y26023809D01*
X-22190476Y26547619D02*
X-22523809Y25547619D01*
X-22857142Y26547619D01*
X-23619047Y26214285D02*
X-23619047Y25547619D01*
X-23380952Y26595238D02*
X-23142857Y25880952D01*
X-23761904Y25880952D01*
X-20928571Y20547619D02*
X-20357142Y20547619D01*
X-20642857Y20547619D02*
X-20642857Y21547619D01*
X-20547619Y21404761D01*
X-20452380Y21309523D01*
X-20357142Y21261904D01*
X-21547619Y21547619D02*
X-21642857Y21547619D01*
X-21738095Y21500000D01*
X-21785714Y21452380D01*
X-21833333Y21357142D01*
X-21880952Y21166666D01*
X-21880952Y20928571D01*
X-21833333Y20738095D01*
X-21785714Y20642857D01*
X-21738095Y20595238D01*
X-21642857Y20547619D01*
X-21547619Y20547619D01*
X-21452380Y20595238D01*
X-21404761Y20642857D01*
X-21357142Y20738095D01*
X-21309523Y20928571D01*
X-21309523Y21166666D01*
X-21357142Y21357142D01*
X-21404761Y21452380D01*
X-21452380Y21500000D01*
X-21547619Y21547619D01*
X-22500000Y21547619D02*
X-22595238Y21547619D01*
X-22690476Y21500000D01*
X-22738095Y21452380D01*
X-22785714Y21357142D01*
X-22833333Y21166666D01*
X-22833333Y20928571D01*
X-22785714Y20738095D01*
X-22738095Y20642857D01*
X-22690476Y20595238D01*
X-22595238Y20547619D01*
X-22500000Y20547619D01*
X-22404761Y20595238D01*
X-22357142Y20642857D01*
X-22309523Y20738095D01*
X-22261904Y20928571D01*
X-22261904Y21166666D01*
X-22309523Y21357142D01*
X-22357142Y21452380D01*
X-22404761Y21500000D01*
X-22500000Y21547619D01*
X-23261904Y20547619D02*
X-23261904Y21547619D01*
X-23357142Y20928571D02*
X-23642857Y20547619D01*
X-23642857Y21214285D02*
X-23261904Y20833333D01*
X-24404761Y21071428D02*
X-24547619Y21023809D01*
X-24595238Y20976190D01*
X-24642857Y20880952D01*
X-24642857Y20738095D01*
X-24595238Y20642857D01*
X-24547619Y20595238D01*
X-24452380Y20547619D01*
X-24071428Y20547619D01*
X-24071428Y21547619D01*
X-24404761Y21547619D01*
X-24500000Y21500000D01*
X-24547619Y21452380D01*
X-24595238Y21357142D01*
X-24595238Y21261904D01*
X-24547619Y21166666D01*
X-24500000Y21119047D01*
X-24404761Y21071428D01*
X-24071428Y21071428D01*
G04 #@! TO.C,RV5*
X-44404761Y25547619D02*
X-44071428Y26023809D01*
X-43833333Y25547619D02*
X-43833333Y26547619D01*
X-44214285Y26547619D01*
X-44309523Y26500000D01*
X-44357142Y26452380D01*
X-44404761Y26357142D01*
X-44404761Y26214285D01*
X-44357142Y26119047D01*
X-44309523Y26071428D01*
X-44214285Y26023809D01*
X-43833333Y26023809D01*
X-44690476Y26547619D02*
X-45023809Y25547619D01*
X-45357142Y26547619D01*
X-46166666Y26547619D02*
X-45690476Y26547619D01*
X-45642857Y26071428D01*
X-45690476Y26119047D01*
X-45785714Y26166666D01*
X-46023809Y26166666D01*
X-46119047Y26119047D01*
X-46166666Y26071428D01*
X-46214285Y25976190D01*
X-46214285Y25738095D01*
X-46166666Y25642857D01*
X-46119047Y25595238D01*
X-46023809Y25547619D01*
X-45785714Y25547619D01*
X-45690476Y25595238D01*
X-45642857Y25642857D01*
X-43500000Y20547619D02*
X-42928571Y20547619D01*
X-43214285Y20547619D02*
X-43214285Y21547619D01*
X-43119047Y21404761D01*
X-43023809Y21309523D01*
X-42928571Y21261904D01*
X-44119047Y21547619D02*
X-44214285Y21547619D01*
X-44309523Y21500000D01*
X-44357142Y21452380D01*
X-44404761Y21357142D01*
X-44452380Y21166666D01*
X-44452380Y20928571D01*
X-44404761Y20738095D01*
X-44357142Y20642857D01*
X-44309523Y20595238D01*
X-44214285Y20547619D01*
X-44119047Y20547619D01*
X-44023809Y20595238D01*
X-43976190Y20642857D01*
X-43928571Y20738095D01*
X-43880952Y20928571D01*
X-43880952Y21166666D01*
X-43928571Y21357142D01*
X-43976190Y21452380D01*
X-44023809Y21500000D01*
X-44119047Y21547619D01*
X-45071428Y21547619D02*
X-45166666Y21547619D01*
X-45261904Y21500000D01*
X-45309523Y21452380D01*
X-45357142Y21357142D01*
X-45404761Y21166666D01*
X-45404761Y20928571D01*
X-45357142Y20738095D01*
X-45309523Y20642857D01*
X-45261904Y20595238D01*
X-45166666Y20547619D01*
X-45071428Y20547619D01*
X-44976190Y20595238D01*
X-44928571Y20642857D01*
X-44880952Y20738095D01*
X-44833333Y20928571D01*
X-44833333Y21166666D01*
X-44880952Y21357142D01*
X-44928571Y21452380D01*
X-44976190Y21500000D01*
X-45071428Y21547619D01*
X-45833333Y20547619D02*
X-45833333Y21547619D01*
X-45928571Y20928571D02*
X-46214285Y20547619D01*
X-46214285Y21214285D02*
X-45833333Y20833333D01*
X-46595238Y20833333D02*
X-47071428Y20833333D01*
X-46500000Y20547619D02*
X-46833333Y21547619D01*
X-47166666Y20547619D01*
G04 #@! TD*
M02*
