G04 #@! TF.GenerationSoftware,KiCad,Pcbnew,7.0.10*
G04 #@! TF.CreationDate,2024-02-16T20:24:02-03:30*
G04 #@! TF.ProjectId,tight-distortion,74696768-742d-4646-9973-746f7274696f,rev?*
G04 #@! TF.SameCoordinates,Original*
G04 #@! TF.FileFunction,Paste,Top*
G04 #@! TF.FilePolarity,Positive*
%FSLAX46Y46*%
G04 Gerber Fmt 4.6, Leading zero omitted, Abs format (unit mm)*
G04 Created by KiCad (PCBNEW 7.0.10) date 2024-02-16 20:24:02*
%MOMM*%
%LPD*%
G01*
G04 APERTURE LIST*
G04 Aperture macros list*
%AMRoundRect*
0 Rectangle with rounded corners*
0 $1 Rounding radius*
0 $2 $3 $4 $5 $6 $7 $8 $9 X,Y pos of 4 corners*
0 Add a 4 corners polygon primitive as box body*
4,1,4,$2,$3,$4,$5,$6,$7,$8,$9,$2,$3,0*
0 Add four circle primitives for the rounded corners*
1,1,$1+$1,$2,$3*
1,1,$1+$1,$4,$5*
1,1,$1+$1,$6,$7*
1,1,$1+$1,$8,$9*
0 Add four rect primitives between the rounded corners*
20,1,$1+$1,$2,$3,$4,$5,0*
20,1,$1+$1,$4,$5,$6,$7,0*
20,1,$1+$1,$6,$7,$8,$9,0*
20,1,$1+$1,$8,$9,$2,$3,0*%
G04 Aperture macros list end*
%ADD10RoundRect,0.237500X0.300000X0.237500X-0.300000X0.237500X-0.300000X-0.237500X0.300000X-0.237500X0*%
%ADD11RoundRect,0.237500X0.237500X-0.300000X0.237500X0.300000X-0.237500X0.300000X-0.237500X-0.300000X0*%
%ADD12RoundRect,0.237500X-0.237500X0.300000X-0.237500X-0.300000X0.237500X-0.300000X0.237500X0.300000X0*%
%ADD13RoundRect,0.250000X-0.337500X-0.475000X0.337500X-0.475000X0.337500X0.475000X-0.337500X0.475000X0*%
%ADD14R,0.900000X1.200000*%
%ADD15R,1.900000X0.800000*%
%ADD16RoundRect,0.237500X-0.237500X0.250000X-0.237500X-0.250000X0.237500X-0.250000X0.237500X0.250000X0*%
%ADD17RoundRect,0.237500X-0.250000X-0.237500X0.250000X-0.237500X0.250000X0.237500X-0.250000X0.237500X0*%
%ADD18RoundRect,0.237500X0.250000X0.237500X-0.250000X0.237500X-0.250000X-0.237500X0.250000X-0.237500X0*%
%ADD19RoundRect,0.237500X0.237500X-0.250000X0.237500X0.250000X-0.237500X0.250000X-0.237500X-0.250000X0*%
%ADD20R,1.060000X0.650000*%
%ADD21RoundRect,0.150000X-0.825000X-0.150000X0.825000X-0.150000X0.825000X0.150000X-0.825000X0.150000X0*%
%ADD22RoundRect,0.237500X-0.300000X-0.237500X0.300000X-0.237500X0.300000X0.237500X-0.300000X0.237500X0*%
%ADD23R,1.560000X0.650000*%
G04 APERTURE END LIST*
D10*
G04 #@! TO.C,C1*
X-30337500Y-8400000D03*
X-32062500Y-8400000D03*
G04 #@! TD*
G04 #@! TO.C,C7*
X-22637500Y-2398332D03*
X-24362500Y-2398332D03*
G04 #@! TD*
G04 #@! TO.C,C14*
X-337500Y-406500D03*
X-2062500Y-406500D03*
G04 #@! TD*
G04 #@! TO.C,C43*
X4662500Y24800000D03*
X2937500Y24800000D03*
G04 #@! TD*
G04 #@! TO.C,C44*
X4662500Y17800000D03*
X2937500Y17800000D03*
G04 #@! TD*
D11*
G04 #@! TO.C,C45*
X-23300000Y19637500D03*
X-23300000Y21362500D03*
G04 #@! TD*
D12*
G04 #@! TO.C,C46*
X-17900000Y22362500D03*
X-17900000Y20637500D03*
G04 #@! TD*
D13*
G04 #@! TO.C,C48*
X-15737500Y33800000D03*
X-13662500Y33800000D03*
G04 #@! TD*
D14*
G04 #@! TO.C,D1*
X-9550000Y40100000D03*
X-6250000Y40100000D03*
G04 #@! TD*
G04 #@! TO.C,D2*
X-9550000Y37500000D03*
X-6250000Y37500000D03*
G04 #@! TD*
G04 #@! TO.C,D3*
X-14750000Y40100000D03*
X-11450000Y40100000D03*
G04 #@! TD*
G04 #@! TO.C,D4*
X-14750000Y37500000D03*
X-11450000Y37500000D03*
G04 #@! TD*
D15*
G04 #@! TO.C,Q2*
X-15600000Y-3350000D03*
X-15600000Y-1450000D03*
X-18600000Y-2400000D03*
G04 #@! TD*
G04 #@! TO.C,Q3*
X6800000Y550000D03*
X6800000Y2450000D03*
X3800000Y1500000D03*
G04 #@! TD*
G04 #@! TO.C,Q4*
X6800000Y-5350000D03*
X6800000Y-3450000D03*
X3800000Y-4400000D03*
G04 #@! TD*
G04 #@! TO.C,Q7*
X-15300000Y-22850000D03*
X-15300000Y-24750000D03*
X-12300000Y-23800000D03*
G04 #@! TD*
G04 #@! TO.C,Q8*
X-15300000Y-18450000D03*
X-15300000Y-20350000D03*
X-12300000Y-19400000D03*
G04 #@! TD*
G04 #@! TO.C,Q9*
X-9400000Y-22850000D03*
X-9400000Y-24750000D03*
X-6400000Y-23800000D03*
G04 #@! TD*
G04 #@! TO.C,Q10*
X-3500000Y-22850000D03*
X-3500000Y-24750000D03*
X-500000Y-23800000D03*
G04 #@! TD*
G04 #@! TO.C,Q11*
X2500000Y-22850000D03*
X2500000Y-24750000D03*
X5500000Y-23800000D03*
G04 #@! TD*
G04 #@! TO.C,Q12*
X8500000Y-22850000D03*
X8500000Y-24750000D03*
X11500000Y-23800000D03*
G04 #@! TD*
G04 #@! TO.C,Q13*
X14600000Y-22850000D03*
X14600000Y-24750000D03*
X17600000Y-23800000D03*
G04 #@! TD*
D16*
G04 #@! TO.C,R48*
X-14200000Y-26687500D03*
X-14200000Y-28512500D03*
G04 #@! TD*
G04 #@! TO.C,R49*
X-9400000Y-26687500D03*
X-9400000Y-28512500D03*
G04 #@! TD*
G04 #@! TO.C,R50*
X-3500000Y-26687500D03*
X-3500000Y-28512500D03*
G04 #@! TD*
G04 #@! TO.C,R52*
X6800000Y-26687500D03*
X6800000Y-28512500D03*
G04 #@! TD*
G04 #@! TO.C,R53*
X8500000Y-26687500D03*
X8500000Y-28512500D03*
G04 #@! TD*
G04 #@! TO.C,R54*
X12900000Y-26687500D03*
X12900000Y-28512500D03*
G04 #@! TD*
G04 #@! TO.C,R55*
X14600000Y-26687500D03*
X14600000Y-28512500D03*
G04 #@! TD*
D17*
G04 #@! TO.C,R56*
X-19212500Y29400000D03*
X-17387500Y29400000D03*
G04 #@! TD*
D18*
G04 #@! TO.C,R57*
X-17387500Y30900000D03*
X-19212500Y30900000D03*
G04 #@! TD*
G04 #@! TO.C,R58*
X-21087500Y30900000D03*
X-22912500Y30900000D03*
G04 #@! TD*
D19*
G04 #@! TO.C,R60*
X14550000Y38887500D03*
X14550000Y40712500D03*
G04 #@! TD*
D20*
G04 #@! TO.C,U4*
X-19500000Y19650000D03*
X-19500000Y20600000D03*
X-19500000Y21550000D03*
X-21700000Y21550000D03*
X-21700000Y19650000D03*
G04 #@! TD*
D21*
G04 #@! TO.C,U1*
X1325000Y23205000D03*
X1325000Y21935000D03*
X1325000Y20665000D03*
X1325000Y19395000D03*
X6275000Y19395000D03*
X6275000Y20665000D03*
X6275000Y21935000D03*
X6275000Y23205000D03*
G04 #@! TD*
D16*
G04 #@! TO.C,R51*
X2500000Y-26687500D03*
X2500000Y-28512500D03*
G04 #@! TD*
D10*
G04 #@! TO.C,C10*
X-22637500Y1418334D03*
X-24362500Y1418334D03*
G04 #@! TD*
D15*
G04 #@! TO.C,Q1*
X-15500000Y-9750000D03*
X-15500000Y-7850000D03*
X-18500000Y-8800000D03*
G04 #@! TD*
D22*
G04 #@! TO.C,C12*
X-2062500Y3464500D03*
X-337500Y3464500D03*
G04 #@! TD*
G04 #@! TO.C,C16*
X-2062500Y-8478500D03*
X-337500Y-8478500D03*
G04 #@! TD*
D16*
G04 #@! TO.C,R59*
X12900000Y40712500D03*
X12900000Y38887500D03*
G04 #@! TD*
D23*
G04 #@! TO.C,Q6*
X20300000Y28300000D03*
X20300000Y27350000D03*
X20300000Y26400000D03*
X23000000Y26400000D03*
X23000000Y27350000D03*
X23000000Y28300000D03*
G04 #@! TD*
D15*
G04 #@! TO.C,Q5*
X6800000Y-11250000D03*
X6800000Y-9350000D03*
X3800000Y-10300000D03*
G04 #@! TD*
D22*
G04 #@! TO.C,C28*
X20787500Y30000000D03*
X22512500Y30000000D03*
G04 #@! TD*
G04 #@! TO.C,C32*
X38337500Y3320000D03*
X40062500Y3320000D03*
G04 #@! TD*
D10*
G04 #@! TO.C,C42*
X31462500Y-5600000D03*
X29737500Y-5600000D03*
G04 #@! TD*
G04 #@! TO.C,C41*
X31462500Y1400000D03*
X29737500Y1400000D03*
G04 #@! TD*
D22*
G04 #@! TO.C,C33*
X38337500Y-840000D03*
X40062500Y-840000D03*
G04 #@! TD*
D21*
G04 #@! TO.C,U3*
X28125000Y-195000D03*
X28125000Y-1465000D03*
X28125000Y-2735000D03*
X28125000Y-4005000D03*
X33075000Y-4005000D03*
X33075000Y-2735000D03*
X33075000Y-1465000D03*
X33075000Y-195000D03*
G04 #@! TD*
D19*
G04 #@! TO.C,R47*
X-12300000Y-28512500D03*
X-12300000Y-26687500D03*
G04 #@! TD*
D10*
G04 #@! TO.C,C18*
X-337500Y-14300000D03*
X-2062500Y-14300000D03*
G04 #@! TD*
M02*
