G04 #@! TF.GenerationSoftware,KiCad,Pcbnew,(5.1.10)-1*
G04 #@! TF.CreationDate,2023-12-11T13:39:05-03:30*
G04 #@! TF.ProjectId,tight-distortion,74696768-742d-4646-9973-746f7274696f,rev?*
G04 #@! TF.SameCoordinates,Original*
G04 #@! TF.FileFunction,Profile,NP*
%FSLAX46Y46*%
G04 Gerber Fmt 4.6, Leading zero omitted, Abs format (unit mm)*
G04 Created by KiCad (PCBNEW (5.1.10)-1) date 2023-12-11 13:39:05*
%MOMM*%
%LPD*%
G01*
G04 APERTURE LIST*
G04 #@! TA.AperFunction,Profile*
%ADD10C,0.050000*%
G04 #@! TD*
G04 APERTURE END LIST*
D10*
X-49700000Y-38000000D02*
X-49700000Y-39000000D01*
X-53000000Y-36000000D02*
X-51700000Y-36000000D01*
X-47700000Y-41000000D02*
G75*
G02*
X-49700000Y-39000000I0J2000000D01*
G01*
X-53000000Y-36000000D02*
G75*
G02*
X-55000000Y-34000000I0J2000000D01*
G01*
X-51700000Y-36000000D02*
G75*
G02*
X-49700000Y-38000000I0J-2000000D01*
G01*
X-47700000Y-41000000D02*
X22000000Y-41000000D01*
X-55000000Y36000000D02*
G75*
G02*
X-53000000Y38000000I2000000J0D01*
G01*
X-50000000Y40000000D02*
G75*
G02*
X-52000000Y38000000I-2000000J0D01*
G01*
X-50000000Y41300000D02*
G75*
G02*
X-48000000Y43300000I2000000J0D01*
G01*
X48000000Y43300000D02*
G75*
G02*
X50000000Y41300000I0J-2000000D01*
G01*
X52000000Y38000000D02*
G75*
G02*
X50000000Y40000000I0J2000000D01*
G01*
X53000000Y38000000D02*
G75*
G02*
X55000000Y36000000I0J-2000000D01*
G01*
X55000000Y-18000000D02*
G75*
G02*
X53000000Y-20000000I-2000000J0D01*
G01*
X24000000Y-22000000D02*
G75*
G02*
X26000000Y-20000000I2000000J0D01*
G01*
X24000000Y-39000000D02*
G75*
G02*
X22000000Y-41000000I-2000000J0D01*
G01*
X48000000Y43300000D02*
X-48000000Y43300000D01*
X50000000Y40000000D02*
X50000000Y41300000D01*
X53000000Y38000000D02*
X52000000Y38000000D01*
X55000000Y-18000000D02*
X55000000Y36000000D01*
X26000000Y-20000000D02*
X53000000Y-20000000D01*
X24000000Y-39000000D02*
X24000000Y-22000000D01*
X-55000000Y36000000D02*
X-55000000Y-34000000D01*
X-52000000Y38000000D02*
X-53000000Y38000000D01*
X-50000000Y41300000D02*
X-50000000Y40000000D01*
M02*
