M48
; DRILL file {KiCad (5.1.10)-1} date 12/11/23 13:30:19
; FORMAT={-:-/ absolute / inch / decimal}
; #@! TF.CreationDate,2023-12-11T13:30:19-03:30
; #@! TF.GenerationSoftware,Kicad,Pcbnew,(5.1.10)-1
; #@! TF.FileFunction,Plated,1,4,PTH
FMAT,2
INCH
T1C0.0157
T2C0.0236
T3C0.0256
T4C0.0276
T5C0.0295
T6C0.0315
T7C0.0354
T8C0.0394
T9C0.0472
T10C0.0591
%
G90
G05
T1
X-1.6969Y-0.1181
X-1.6299Y0.2362
X-1.5787Y-0.063
X-1.4606Y0.2362
X-1.1102Y-0.4213
X-1.063Y1.3543
X-0.9843Y1.2244
X-0.9094Y-0.6417
X-0.9016Y0.9803
X-0.9016Y0.7835
X-0.748Y-0.689
X-0.6732Y-0.0787
X-0.6693Y1.0669
X-0.6693Y0.9055
X-0.4724Y-0.3189
X-0.4724Y-0.5787
X-0.4724Y-0.7677
X-0.4409Y0.4764
X-0.4134Y-1.0276
X-0.3661Y-1.0984
X-0.2992Y1.4961
X-0.2598Y1.4961
X-0.1417Y0.6457
X-0.1378Y-1.0984
X-0.0315Y0.9449
X0.0276Y0.6457
X0.0906Y-1.0984
X0.1378Y0.9449
X0.1654Y-0.5157
X0.2165Y-0.6575
X0.3189Y-1.0984
X0.3346Y0.4803
X0.5472Y-1.0984
X0.6732Y1.2835
X0.6732Y1.2047
X1.0236Y1.3189
X1.0315Y1.2362
X1.1845Y0.0705
X1.3401Y0.0718
T2
X-0.248Y-0.2264
X-0.248Y-0.2854
X-0.0709Y-0.2264
X-0.0709Y-0.2854
X0.5295Y1.2441
X0.5886Y1.2441
X0.7579Y-0.4764
X0.8169Y-0.4764
X1.7185Y-0.1614
X1.7776Y-0.1614
T4
X-2.0512Y0.1299
X-2.0512Y0.0315
X-2.0512Y-0.0591
X-2.0512Y-0.1535
X-2.0512Y-0.2441
X-2.0512Y-0.3346
X-2.0512Y-0.4213
X-2.0512Y-0.5157
X-2.0512Y-0.6063
X-1.8543Y0.1299
X-1.8543Y0.0315
X-1.8543Y-0.0591
X-1.8543Y-0.1535
X-1.8543Y-0.2441
X-1.8543Y-0.3346
X-1.8543Y-0.4213
X-1.8543Y-0.5157
X-1.8543Y-0.6063
X-1.2126Y0.2244
X-1.2126Y0.126
X-1.2126Y0.0315
X-1.2126Y-0.0591
X-1.2087Y-0.2441
X-1.2087Y-0.3346
X-1.2087Y-0.4213
X-1.2087Y-0.5157
X-1.2087Y-0.6063
X-1.2087Y-0.6929
X-1.185Y-1.3031
X-1.185Y-1.5
X-1.0748Y-1.3031
X-1.0748Y-1.5
X-1.0157Y0.2244
X-1.0157Y0.126
X-1.0157Y0.0315
X-1.0157Y-0.0591
X-1.0118Y-0.2441
X-1.0118Y-0.3346
X-1.0118Y-0.4213
X-1.0118Y-0.5157
X-1.0118Y-0.6063
X-1.0118Y-0.6929
X-0.5787Y-1.3031
X-0.5787Y-1.5
X-0.5748Y0.2244
X-0.5748Y0.126
X-0.5748Y0.0315
X-0.5748Y-0.0591
X-0.5748Y-0.1535
X-0.5748Y-0.2441
X-0.5748Y-0.3346
X-0.5748Y-0.4252
X-0.5748Y-0.5157
X-0.5748Y-0.6063
X-0.4961Y1.0866
X-0.4961Y0.9961
X-0.4961Y0.9016
X-0.4961Y0.8071
X-0.4803Y-1.3031
X-0.4803Y-1.5
X-0.378Y0.2244
X-0.378Y0.126
X-0.378Y0.0315
X-0.378Y-0.0591
X-0.378Y-0.1535
X-0.378Y-0.2441
X-0.378Y-0.3346
X-0.378Y-0.4252
X-0.378Y-0.5157
X-0.378Y-0.6063
X-0.3386Y-1.3031
X-0.3386Y-1.5
X-0.2992Y1.0866
X-0.2992Y0.9961
X-0.2992Y0.9016
X-0.2992Y0.8071
X-0.248Y-1.3031
X-0.248Y-1.5
X-0.1063Y-1.3031
X-0.1063Y-1.5
X-0.0197Y-1.3031
X-0.0197Y-1.5
X0.0787Y0.2244
X0.0787Y0.126
X0.0787Y0.0315
X0.0787Y-0.0591
X0.0787Y-0.1535
X0.0787Y-0.2441
X0.0787Y-0.3346
X0.0787Y-0.4252
X0.0787Y-0.5157
X0.0787Y-0.6063
X0.2087Y-1.3031
X0.2087Y-1.5
X0.2756Y0.9016
X0.2756Y0.8071
X0.2756Y0.2244
X0.2756Y0.126
X0.2756Y0.0315
X0.2756Y-0.0591
X0.2756Y-0.1535
X0.2756Y-0.2441
X0.2756Y-0.3346
X0.2756Y-0.4252
X0.2756Y-0.5157
X0.2756Y-0.6063
X0.437Y-1.3031
X0.437Y-1.5
X0.4724Y0.9016
X0.4724Y0.8071
X0.6654Y-1.3031
X0.6654Y-1.5
X0.752Y1.5945
X0.752Y1.3976
X0.8504Y1.5945
X0.8504Y1.3976
X0.9488Y1.5945
X0.9488Y1.3976
X1.8228Y-0.5354
X1.9882Y0.8839
X1.9882Y0.687
X2.0197Y-0.5354
X2.0768Y0.8839
X2.0768Y0.687
T5
X-2.002Y0.2323
X-1.9035Y0.2323
X-1.6929Y-0.4311
X-1.6929Y-0.5295
X-1.5Y-0.4311
X-1.5Y-0.5295
X-1.1634Y-0.1535
X-1.065Y-0.1535
X-0.8563Y-0.2165
X-0.8524Y-0.4685
X-0.7579Y-0.2165
X-0.7539Y-0.4685
X-0.5217Y-0.7047
X-0.4232Y-0.7047
X-0.2028Y0.0906
X-0.1043Y0.0906
X0.439Y0.2244
X0.439Y-0.3583
X0.5374Y0.2244
X0.5374Y-0.3583
X0.7382Y-0.3268
X0.8366Y-0.3268
T6
X-1.6969Y0.5079
X-1.6969Y-0.189
X-1.6969Y-0.3189
X-1.6969Y-0.6378
X-1.6969Y-0.7677
X-1.5Y0.5079
X-1.5Y-0.189
X-1.5Y-0.3189
X-1.5Y-0.6378
X-1.5Y-0.7677
X-1.3976Y-1.3484
X-1.3976Y-1.4469
X-0.9213Y1.4961
X-0.9055Y-0.3465
X-0.9016Y0.2244
X-0.9016Y0.0906
X-0.8898Y0.685
X-0.8898Y0.5591
X-0.7835Y1.4961
X-0.7087Y-0.3465
X-0.7047Y0.2244
X-0.7047Y0.0906
X-0.6929Y0.685
X-0.6929Y0.5591
X-0.4961Y0.685
X-0.4921Y0.5591
X-0.2992Y0.685
X-0.2953Y0.5591
X-0.2559Y0.2244
X-0.252Y-0.4094
X-0.0591Y0.2244
X-0.0551Y-0.4094
X0.2717Y0.685
X0.2717Y0.5591
X0.3898Y0.0906
X0.3898Y-0.2362
X0.4685Y0.685
X0.4685Y0.5591
X0.5098Y1.4961
X0.5866Y0.0906
X0.5866Y-0.2362
X0.6083Y1.4961
X1.0236Y0.2323
X1.0236Y0.0354
X1.0236Y-0.0827
X1.0236Y-0.2795
X1.748Y0.2323
X1.748Y0.0354
T7
X-1.7736Y-1.1311
X-1.7736Y-1.2311
T8
X-0.8449Y-1.0508
X-0.8449Y-1.1508
X-0.8449Y-1.2508
X-0.8449Y-1.3508
X0.8449Y-1.0508
X0.8449Y-1.1508
X0.8449Y-1.2508
X0.8449Y-1.3508
X1.2248Y-0.689
X1.3248Y-0.689
X1.4248Y-0.689
X1.5248Y-0.689
X1.6248Y-0.689
X1.7248Y-0.689
X1.8248Y-0.689
X1.9248Y-0.689
T9
X-1.9685Y0.374
X-1.7717Y0.374
X-1.5748Y0.374
X-1.0827Y0.374
X-0.8858Y0.374
X-0.689Y0.374
X-0.1969Y0.374
X0.0Y0.374
X0.1969Y0.374
X0.689Y0.374
X0.8858Y0.374
X1.0827Y0.374
X1.5748Y0.5315
X1.5748Y0.374
X1.7717Y0.5315
X1.7717Y0.374
X1.9685Y0.5315
X1.9685Y0.374
T10
X-1.8209Y1.4311
X-1.8209Y1.1811
X-1.8209Y0.9311
X-1.1713Y1.4311
X-1.1713Y1.1811
X-1.1713Y0.9311
X1.1713Y1.4311
X1.1713Y1.1811
X1.1713Y0.9311
X1.8209Y1.4311
X1.8209Y1.1811
X1.8209Y0.9311
T2
G00X1.9449Y1.3583
M15
G01X2.0Y1.3583
M16
G05
G00X1.9449Y1.0039
M15
G01X2.0Y1.0039
M16
G05
G00X2.1024Y1.2087
M15
G01X2.1024Y1.1535
M16
G05
T3
G00X-0.185Y1.2431
M15
G01X-0.185Y1.3396
M16
G05
G00X-0.0482Y1.4094
M15
G01X0.0482Y1.4094
M16
G05
G00X-0.0482Y1.1732
M15
G01X0.0482Y1.1732
M16
G05
T9
G00X0.7598Y0.185
M15
G01X0.815Y0.185
M16
G05
G00X0.7598Y0.0
M15
G01X0.815Y0.0
M16
G05
G00X0.7598Y-0.185
M15
G01X0.815Y-0.185
M16
G05
G00X1.2559Y0.185
M15
G01X1.311Y0.185
M16
G05
G00X1.2559Y0.0
M15
G01X1.311Y0.0
M16
G05
G00X1.2559Y-0.185
M15
G01X1.311Y-0.185
M16
G05
G00X1.4449Y0.185
M15
G01X1.5Y0.185
M16
G05
G00X1.4449Y0.0
M15
G01X1.5Y0.0
M16
G05
G00X1.4449Y-0.185
M15
G01X1.5Y-0.185
M16
G05
G00X1.9409Y0.185
M15
G01X1.9961Y0.185
M16
G05
G00X1.9409Y0.0
M15
G01X1.9961Y0.0
M16
G05
G00X1.9409Y-0.185
M15
G01X1.9961Y-0.185
M16
G05
T0
M30
