G04 #@! TF.GenerationSoftware,KiCad,Pcbnew,7.0.10*
G04 #@! TF.CreationDate,2024-02-16T20:24:02-03:30*
G04 #@! TF.ProjectId,tight-distortion,74696768-742d-4646-9973-746f7274696f,rev?*
G04 #@! TF.SameCoordinates,Original*
G04 #@! TF.FileFunction,Legend,Bot*
G04 #@! TF.FilePolarity,Positive*
%FSLAX46Y46*%
G04 Gerber Fmt 4.6, Leading zero omitted, Abs format (unit mm)*
G04 Created by KiCad (PCBNEW 7.0.10) date 2024-02-16 20:24:02*
%MOMM*%
%LPD*%
G01*
G04 APERTURE LIST*
%ADD10C,0.150000*%
%ADD11C,0.120000*%
G04 APERTURE END LIST*
D10*
X29852381Y41835895D02*
X29376191Y41835895D01*
X29947619Y41550180D02*
X29614286Y42550180D01*
X29614286Y42550180D02*
X29280953Y41550180D01*
X28471429Y41550180D02*
X28947619Y41550180D01*
X28947619Y41550180D02*
X28947619Y42550180D01*
X27661905Y41550180D02*
X28138095Y41550180D01*
X28138095Y41550180D02*
X28138095Y42550180D01*
X26614285Y42454942D02*
X26566666Y42502561D01*
X26566666Y42502561D02*
X26471428Y42550180D01*
X26471428Y42550180D02*
X26233333Y42550180D01*
X26233333Y42550180D02*
X26138095Y42502561D01*
X26138095Y42502561D02*
X26090476Y42454942D01*
X26090476Y42454942D02*
X26042857Y42359704D01*
X26042857Y42359704D02*
X26042857Y42264466D01*
X26042857Y42264466D02*
X26090476Y42121609D01*
X26090476Y42121609D02*
X26661904Y41550180D01*
X26661904Y41550180D02*
X26042857Y41550180D01*
X25423809Y42550180D02*
X25328571Y42550180D01*
X25328571Y42550180D02*
X25233333Y42502561D01*
X25233333Y42502561D02*
X25185714Y42454942D01*
X25185714Y42454942D02*
X25138095Y42359704D01*
X25138095Y42359704D02*
X25090476Y42169228D01*
X25090476Y42169228D02*
X25090476Y41931133D01*
X25090476Y41931133D02*
X25138095Y41740657D01*
X25138095Y41740657D02*
X25185714Y41645419D01*
X25185714Y41645419D02*
X25233333Y41597800D01*
X25233333Y41597800D02*
X25328571Y41550180D01*
X25328571Y41550180D02*
X25423809Y41550180D01*
X25423809Y41550180D02*
X25519047Y41597800D01*
X25519047Y41597800D02*
X25566666Y41645419D01*
X25566666Y41645419D02*
X25614285Y41740657D01*
X25614285Y41740657D02*
X25661904Y41931133D01*
X25661904Y41931133D02*
X25661904Y42169228D01*
X25661904Y42169228D02*
X25614285Y42359704D01*
X25614285Y42359704D02*
X25566666Y42454942D01*
X25566666Y42454942D02*
X25519047Y42502561D01*
X25519047Y42502561D02*
X25423809Y42550180D01*
X24661904Y41550180D02*
X24661904Y42550180D01*
X24566666Y41931133D02*
X24280952Y41550180D01*
X24280952Y42216847D02*
X24661904Y41835895D01*
X23947618Y42550180D02*
X23709523Y41550180D01*
X23709523Y41550180D02*
X23519047Y42264466D01*
X23519047Y42264466D02*
X23328571Y41550180D01*
X23328571Y41550180D02*
X23090476Y42550180D01*
X21947618Y41550180D02*
X21947618Y42550180D01*
X21947618Y42550180D02*
X21566666Y42550180D01*
X21566666Y42550180D02*
X21471428Y42502561D01*
X21471428Y42502561D02*
X21423809Y42454942D01*
X21423809Y42454942D02*
X21376190Y42359704D01*
X21376190Y42359704D02*
X21376190Y42216847D01*
X21376190Y42216847D02*
X21423809Y42121609D01*
X21423809Y42121609D02*
X21471428Y42073990D01*
X21471428Y42073990D02*
X21566666Y42026371D01*
X21566666Y42026371D02*
X21947618Y42026371D01*
X20757142Y42550180D02*
X20566666Y42550180D01*
X20566666Y42550180D02*
X20471428Y42502561D01*
X20471428Y42502561D02*
X20376190Y42407323D01*
X20376190Y42407323D02*
X20328571Y42216847D01*
X20328571Y42216847D02*
X20328571Y41883514D01*
X20328571Y41883514D02*
X20376190Y41693038D01*
X20376190Y41693038D02*
X20471428Y41597800D01*
X20471428Y41597800D02*
X20566666Y41550180D01*
X20566666Y41550180D02*
X20757142Y41550180D01*
X20757142Y41550180D02*
X20852380Y41597800D01*
X20852380Y41597800D02*
X20947618Y41693038D01*
X20947618Y41693038D02*
X20995237Y41883514D01*
X20995237Y41883514D02*
X20995237Y42216847D01*
X20995237Y42216847D02*
X20947618Y42407323D01*
X20947618Y42407323D02*
X20852380Y42502561D01*
X20852380Y42502561D02*
X20757142Y42550180D01*
X20042856Y42550180D02*
X19471428Y42550180D01*
X19757142Y41550180D02*
X19757142Y42550180D01*
X19185713Y41597800D02*
X19042856Y41550180D01*
X19042856Y41550180D02*
X18804761Y41550180D01*
X18804761Y41550180D02*
X18709523Y41597800D01*
X18709523Y41597800D02*
X18661904Y41645419D01*
X18661904Y41645419D02*
X18614285Y41740657D01*
X18614285Y41740657D02*
X18614285Y41835895D01*
X18614285Y41835895D02*
X18661904Y41931133D01*
X18661904Y41931133D02*
X18709523Y41978752D01*
X18709523Y41978752D02*
X18804761Y42026371D01*
X18804761Y42026371D02*
X18995237Y42073990D01*
X18995237Y42073990D02*
X19090475Y42121609D01*
X19090475Y42121609D02*
X19138094Y42169228D01*
X19138094Y42169228D02*
X19185713Y42264466D01*
X19185713Y42264466D02*
X19185713Y42359704D01*
X19185713Y42359704D02*
X19138094Y42454942D01*
X19138094Y42454942D02*
X19090475Y42502561D01*
X19090475Y42502561D02*
X18995237Y42550180D01*
X18995237Y42550180D02*
X18757142Y42550180D01*
X18757142Y42550180D02*
X18614285Y42502561D01*
X17423808Y42550180D02*
X17423808Y41740657D01*
X17423808Y41740657D02*
X17376189Y41645419D01*
X17376189Y41645419D02*
X17328570Y41597800D01*
X17328570Y41597800D02*
X17233332Y41550180D01*
X17233332Y41550180D02*
X17042856Y41550180D01*
X17042856Y41550180D02*
X16947618Y41597800D01*
X16947618Y41597800D02*
X16899999Y41645419D01*
X16899999Y41645419D02*
X16852380Y41740657D01*
X16852380Y41740657D02*
X16852380Y42550180D01*
X16423808Y41597800D02*
X16280951Y41550180D01*
X16280951Y41550180D02*
X16042856Y41550180D01*
X16042856Y41550180D02*
X15947618Y41597800D01*
X15947618Y41597800D02*
X15899999Y41645419D01*
X15899999Y41645419D02*
X15852380Y41740657D01*
X15852380Y41740657D02*
X15852380Y41835895D01*
X15852380Y41835895D02*
X15899999Y41931133D01*
X15899999Y41931133D02*
X15947618Y41978752D01*
X15947618Y41978752D02*
X16042856Y42026371D01*
X16042856Y42026371D02*
X16233332Y42073990D01*
X16233332Y42073990D02*
X16328570Y42121609D01*
X16328570Y42121609D02*
X16376189Y42169228D01*
X16376189Y42169228D02*
X16423808Y42264466D01*
X16423808Y42264466D02*
X16423808Y42359704D01*
X16423808Y42359704D02*
X16376189Y42454942D01*
X16376189Y42454942D02*
X16328570Y42502561D01*
X16328570Y42502561D02*
X16233332Y42550180D01*
X16233332Y42550180D02*
X15995237Y42550180D01*
X15995237Y42550180D02*
X15852380Y42502561D01*
X15423808Y42073990D02*
X15090475Y42073990D01*
X14947618Y41550180D02*
X15423808Y41550180D01*
X15423808Y41550180D02*
X15423808Y42550180D01*
X15423808Y42550180D02*
X14947618Y42550180D01*
X27471429Y40035419D02*
X27519048Y39987800D01*
X27519048Y39987800D02*
X27661905Y39940180D01*
X27661905Y39940180D02*
X27757143Y39940180D01*
X27757143Y39940180D02*
X27900000Y39987800D01*
X27900000Y39987800D02*
X27995238Y40083038D01*
X27995238Y40083038D02*
X28042857Y40178276D01*
X28042857Y40178276D02*
X28090476Y40368752D01*
X28090476Y40368752D02*
X28090476Y40511609D01*
X28090476Y40511609D02*
X28042857Y40702085D01*
X28042857Y40702085D02*
X27995238Y40797323D01*
X27995238Y40797323D02*
X27900000Y40892561D01*
X27900000Y40892561D02*
X27757143Y40940180D01*
X27757143Y40940180D02*
X27661905Y40940180D01*
X27661905Y40940180D02*
X27519048Y40892561D01*
X27519048Y40892561D02*
X27471429Y40844942D01*
X27042857Y40463990D02*
X26709524Y40463990D01*
X26566667Y39940180D02*
X27042857Y39940180D01*
X27042857Y39940180D02*
X27042857Y40940180D01*
X27042857Y40940180D02*
X26566667Y40940180D01*
X26138095Y39940180D02*
X26138095Y40940180D01*
X26138095Y40940180D02*
X25566667Y39940180D01*
X25566667Y39940180D02*
X25566667Y40940180D01*
X25233333Y40940180D02*
X24661905Y40940180D01*
X24947619Y39940180D02*
X24947619Y40940180D01*
X24328571Y40463990D02*
X23995238Y40463990D01*
X23852381Y39940180D02*
X24328571Y39940180D01*
X24328571Y39940180D02*
X24328571Y40940180D01*
X24328571Y40940180D02*
X23852381Y40940180D01*
X22852381Y39940180D02*
X23185714Y40416371D01*
X23423809Y39940180D02*
X23423809Y40940180D01*
X23423809Y40940180D02*
X23042857Y40940180D01*
X23042857Y40940180D02*
X22947619Y40892561D01*
X22947619Y40892561D02*
X22900000Y40844942D01*
X22900000Y40844942D02*
X22852381Y40749704D01*
X22852381Y40749704D02*
X22852381Y40606847D01*
X22852381Y40606847D02*
X22900000Y40511609D01*
X22900000Y40511609D02*
X22947619Y40463990D01*
X22947619Y40463990D02*
X23042857Y40416371D01*
X23042857Y40416371D02*
X23423809Y40416371D01*
X21661904Y39940180D02*
X21661904Y40940180D01*
X21661904Y40940180D02*
X21423809Y40940180D01*
X21423809Y40940180D02*
X21280952Y40892561D01*
X21280952Y40892561D02*
X21185714Y40797323D01*
X21185714Y40797323D02*
X21138095Y40702085D01*
X21138095Y40702085D02*
X21090476Y40511609D01*
X21090476Y40511609D02*
X21090476Y40368752D01*
X21090476Y40368752D02*
X21138095Y40178276D01*
X21138095Y40178276D02*
X21185714Y40083038D01*
X21185714Y40083038D02*
X21280952Y39987800D01*
X21280952Y39987800D02*
X21423809Y39940180D01*
X21423809Y39940180D02*
X21661904Y39940180D01*
X20661904Y40463990D02*
X20328571Y40463990D01*
X20185714Y39940180D02*
X20661904Y39940180D01*
X20661904Y39940180D02*
X20661904Y40940180D01*
X20661904Y40940180D02*
X20185714Y40940180D01*
X19899999Y40940180D02*
X19328571Y40940180D01*
X19614285Y39940180D02*
X19614285Y40940180D01*
X18995237Y40463990D02*
X18661904Y40463990D01*
X18519047Y39940180D02*
X18995237Y39940180D01*
X18995237Y39940180D02*
X18995237Y40940180D01*
X18995237Y40940180D02*
X18519047Y40940180D01*
X18090475Y39940180D02*
X18090475Y40940180D01*
X18090475Y40940180D02*
X17519047Y39940180D01*
X17519047Y39940180D02*
X17519047Y40940180D01*
X17185713Y40940180D02*
X16614285Y40940180D01*
X16899999Y39940180D02*
X16899999Y40940180D01*
X4619048Y-37354819D02*
X4619048Y-38069104D01*
X4619048Y-38069104D02*
X4666667Y-38211961D01*
X4666667Y-38211961D02*
X4761905Y-38307200D01*
X4761905Y-38307200D02*
X4904762Y-38354819D01*
X4904762Y-38354819D02*
X5000000Y-38354819D01*
X3666667Y-38354819D02*
X4142857Y-38354819D01*
X4142857Y-38354819D02*
X4142857Y-37354819D01*
X2761905Y-38259580D02*
X2809524Y-38307200D01*
X2809524Y-38307200D02*
X2952381Y-38354819D01*
X2952381Y-38354819D02*
X3047619Y-38354819D01*
X3047619Y-38354819D02*
X3190476Y-38307200D01*
X3190476Y-38307200D02*
X3285714Y-38211961D01*
X3285714Y-38211961D02*
X3333333Y-38116723D01*
X3333333Y-38116723D02*
X3380952Y-37926247D01*
X3380952Y-37926247D02*
X3380952Y-37783390D01*
X3380952Y-37783390D02*
X3333333Y-37592914D01*
X3333333Y-37592914D02*
X3285714Y-37497676D01*
X3285714Y-37497676D02*
X3190476Y-37402438D01*
X3190476Y-37402438D02*
X3047619Y-37354819D01*
X3047619Y-37354819D02*
X2952381Y-37354819D01*
X2952381Y-37354819D02*
X2809524Y-37402438D01*
X2809524Y-37402438D02*
X2761905Y-37450057D01*
X2047619Y-37354819D02*
X2047619Y-38069104D01*
X2047619Y-38069104D02*
X2095238Y-38211961D01*
X2095238Y-38211961D02*
X2190476Y-38307200D01*
X2190476Y-38307200D02*
X2333333Y-38354819D01*
X2333333Y-38354819D02*
X2428571Y-38354819D01*
X1095238Y-38354819D02*
X1571428Y-38354819D01*
X1571428Y-38354819D02*
X1571428Y-37354819D01*
X190476Y-38259580D02*
X238095Y-38307200D01*
X238095Y-38307200D02*
X380952Y-38354819D01*
X380952Y-38354819D02*
X476190Y-38354819D01*
X476190Y-38354819D02*
X619047Y-38307200D01*
X619047Y-38307200D02*
X714285Y-38211961D01*
X714285Y-38211961D02*
X761904Y-38116723D01*
X761904Y-38116723D02*
X809523Y-37926247D01*
X809523Y-37926247D02*
X809523Y-37783390D01*
X809523Y-37783390D02*
X761904Y-37592914D01*
X761904Y-37592914D02*
X714285Y-37497676D01*
X714285Y-37497676D02*
X619047Y-37402438D01*
X619047Y-37402438D02*
X476190Y-37354819D01*
X476190Y-37354819D02*
X380952Y-37354819D01*
X380952Y-37354819D02*
X238095Y-37402438D01*
X238095Y-37402438D02*
X190476Y-37450057D01*
X-523809Y-37354819D02*
X-523809Y-38069104D01*
X-523809Y-38069104D02*
X-476190Y-38211961D01*
X-476190Y-38211961D02*
X-380952Y-38307200D01*
X-380952Y-38307200D02*
X-238095Y-38354819D01*
X-238095Y-38354819D02*
X-142857Y-38354819D01*
X-1476190Y-38354819D02*
X-1000000Y-38354819D01*
X-1000000Y-38354819D02*
X-1000000Y-37354819D01*
X-2380952Y-38259580D02*
X-2333333Y-38307200D01*
X-2333333Y-38307200D02*
X-2190476Y-38354819D01*
X-2190476Y-38354819D02*
X-2095238Y-38354819D01*
X-2095238Y-38354819D02*
X-1952381Y-38307200D01*
X-1952381Y-38307200D02*
X-1857143Y-38211961D01*
X-1857143Y-38211961D02*
X-1809524Y-38116723D01*
X-1809524Y-38116723D02*
X-1761905Y-37926247D01*
X-1761905Y-37926247D02*
X-1761905Y-37783390D01*
X-1761905Y-37783390D02*
X-1809524Y-37592914D01*
X-1809524Y-37592914D02*
X-1857143Y-37497676D01*
X-1857143Y-37497676D02*
X-1952381Y-37402438D01*
X-1952381Y-37402438D02*
X-2095238Y-37354819D01*
X-2095238Y-37354819D02*
X-2190476Y-37354819D01*
X-2190476Y-37354819D02*
X-2333333Y-37402438D01*
X-2333333Y-37402438D02*
X-2380952Y-37450057D01*
X-3095238Y-37354819D02*
X-3095238Y-38069104D01*
X-3095238Y-38069104D02*
X-3047619Y-38211961D01*
X-3047619Y-38211961D02*
X-2952381Y-38307200D01*
X-2952381Y-38307200D02*
X-2809524Y-38354819D01*
X-2809524Y-38354819D02*
X-2714286Y-38354819D01*
X-4047619Y-38354819D02*
X-3571429Y-38354819D01*
X-3571429Y-38354819D02*
X-3571429Y-37354819D01*
X-4952381Y-38259580D02*
X-4904762Y-38307200D01*
X-4904762Y-38307200D02*
X-4761905Y-38354819D01*
X-4761905Y-38354819D02*
X-4666667Y-38354819D01*
X-4666667Y-38354819D02*
X-4523810Y-38307200D01*
X-4523810Y-38307200D02*
X-4428572Y-38211961D01*
X-4428572Y-38211961D02*
X-4380953Y-38116723D01*
X-4380953Y-38116723D02*
X-4333334Y-37926247D01*
X-4333334Y-37926247D02*
X-4333334Y-37783390D01*
X-4333334Y-37783390D02*
X-4380953Y-37592914D01*
X-4380953Y-37592914D02*
X-4428572Y-37497676D01*
X-4428572Y-37497676D02*
X-4523810Y-37402438D01*
X-4523810Y-37402438D02*
X-4666667Y-37354819D01*
X-4666667Y-37354819D02*
X-4761905Y-37354819D01*
X-4761905Y-37354819D02*
X-4904762Y-37402438D01*
X-4904762Y-37402438D02*
X-4952381Y-37450057D01*
X-44404761Y25545180D02*
X-44071428Y26021371D01*
X-43833333Y25545180D02*
X-43833333Y26545180D01*
X-43833333Y26545180D02*
X-44214285Y26545180D01*
X-44214285Y26545180D02*
X-44309523Y26497561D01*
X-44309523Y26497561D02*
X-44357142Y26449942D01*
X-44357142Y26449942D02*
X-44404761Y26354704D01*
X-44404761Y26354704D02*
X-44404761Y26211847D01*
X-44404761Y26211847D02*
X-44357142Y26116609D01*
X-44357142Y26116609D02*
X-44309523Y26068990D01*
X-44309523Y26068990D02*
X-44214285Y26021371D01*
X-44214285Y26021371D02*
X-43833333Y26021371D01*
X-44690476Y26545180D02*
X-45023809Y25545180D01*
X-45023809Y25545180D02*
X-45357142Y26545180D01*
X-46214285Y25545180D02*
X-45642857Y25545180D01*
X-45928571Y25545180D02*
X-45928571Y26545180D01*
X-45928571Y26545180D02*
X-45833333Y26402323D01*
X-45833333Y26402323D02*
X-45738095Y26307085D01*
X-45738095Y26307085D02*
X-45642857Y26259466D01*
X-43452380Y21545180D02*
X-42976190Y21545180D01*
X-42976190Y21545180D02*
X-42928571Y21068990D01*
X-42928571Y21068990D02*
X-42976190Y21116609D01*
X-42976190Y21116609D02*
X-43071428Y21164228D01*
X-43071428Y21164228D02*
X-43309523Y21164228D01*
X-43309523Y21164228D02*
X-43404761Y21116609D01*
X-43404761Y21116609D02*
X-43452380Y21068990D01*
X-43452380Y21068990D02*
X-43499999Y20973752D01*
X-43499999Y20973752D02*
X-43499999Y20735657D01*
X-43499999Y20735657D02*
X-43452380Y20640419D01*
X-43452380Y20640419D02*
X-43404761Y20592800D01*
X-43404761Y20592800D02*
X-43309523Y20545180D01*
X-43309523Y20545180D02*
X-43071428Y20545180D01*
X-43071428Y20545180D02*
X-42976190Y20592800D01*
X-42976190Y20592800D02*
X-42928571Y20640419D01*
X-44119047Y21545180D02*
X-44214285Y21545180D01*
X-44214285Y21545180D02*
X-44309523Y21497561D01*
X-44309523Y21497561D02*
X-44357142Y21449942D01*
X-44357142Y21449942D02*
X-44404761Y21354704D01*
X-44404761Y21354704D02*
X-44452380Y21164228D01*
X-44452380Y21164228D02*
X-44452380Y20926133D01*
X-44452380Y20926133D02*
X-44404761Y20735657D01*
X-44404761Y20735657D02*
X-44357142Y20640419D01*
X-44357142Y20640419D02*
X-44309523Y20592800D01*
X-44309523Y20592800D02*
X-44214285Y20545180D01*
X-44214285Y20545180D02*
X-44119047Y20545180D01*
X-44119047Y20545180D02*
X-44023809Y20592800D01*
X-44023809Y20592800D02*
X-43976190Y20640419D01*
X-43976190Y20640419D02*
X-43928571Y20735657D01*
X-43928571Y20735657D02*
X-43880952Y20926133D01*
X-43880952Y20926133D02*
X-43880952Y21164228D01*
X-43880952Y21164228D02*
X-43928571Y21354704D01*
X-43928571Y21354704D02*
X-43976190Y21449942D01*
X-43976190Y21449942D02*
X-44023809Y21497561D01*
X-44023809Y21497561D02*
X-44119047Y21545180D01*
X-45071428Y21545180D02*
X-45166666Y21545180D01*
X-45166666Y21545180D02*
X-45261904Y21497561D01*
X-45261904Y21497561D02*
X-45309523Y21449942D01*
X-45309523Y21449942D02*
X-45357142Y21354704D01*
X-45357142Y21354704D02*
X-45404761Y21164228D01*
X-45404761Y21164228D02*
X-45404761Y20926133D01*
X-45404761Y20926133D02*
X-45357142Y20735657D01*
X-45357142Y20735657D02*
X-45309523Y20640419D01*
X-45309523Y20640419D02*
X-45261904Y20592800D01*
X-45261904Y20592800D02*
X-45166666Y20545180D01*
X-45166666Y20545180D02*
X-45071428Y20545180D01*
X-45071428Y20545180D02*
X-44976190Y20592800D01*
X-44976190Y20592800D02*
X-44928571Y20640419D01*
X-44928571Y20640419D02*
X-44880952Y20735657D01*
X-44880952Y20735657D02*
X-44833333Y20926133D01*
X-44833333Y20926133D02*
X-44833333Y21164228D01*
X-44833333Y21164228D02*
X-44880952Y21354704D01*
X-44880952Y21354704D02*
X-44928571Y21449942D01*
X-44928571Y21449942D02*
X-44976190Y21497561D01*
X-44976190Y21497561D02*
X-45071428Y21545180D01*
X-45833333Y20545180D02*
X-45833333Y21545180D01*
X-45928571Y20926133D02*
X-46214285Y20545180D01*
X-46214285Y21211847D02*
X-45833333Y20830895D01*
X-46595238Y20830895D02*
X-47071428Y20830895D01*
X-46500000Y20545180D02*
X-46833333Y21545180D01*
X-46833333Y21545180D02*
X-47166666Y20545180D01*
X45595238Y25545180D02*
X45928571Y26021371D01*
X46166666Y25545180D02*
X46166666Y26545180D01*
X46166666Y26545180D02*
X45785714Y26545180D01*
X45785714Y26545180D02*
X45690476Y26497561D01*
X45690476Y26497561D02*
X45642857Y26449942D01*
X45642857Y26449942D02*
X45595238Y26354704D01*
X45595238Y26354704D02*
X45595238Y26211847D01*
X45595238Y26211847D02*
X45642857Y26116609D01*
X45642857Y26116609D02*
X45690476Y26068990D01*
X45690476Y26068990D02*
X45785714Y26021371D01*
X45785714Y26021371D02*
X46166666Y26021371D01*
X45309523Y26545180D02*
X44976190Y25545180D01*
X44976190Y25545180D02*
X44642857Y26545180D01*
X43833333Y26545180D02*
X44309523Y26545180D01*
X44309523Y26545180D02*
X44357142Y26068990D01*
X44357142Y26068990D02*
X44309523Y26116609D01*
X44309523Y26116609D02*
X44214285Y26164228D01*
X44214285Y26164228D02*
X43976190Y26164228D01*
X43976190Y26164228D02*
X43880952Y26116609D01*
X43880952Y26116609D02*
X43833333Y26068990D01*
X43833333Y26068990D02*
X43785714Y25973752D01*
X43785714Y25973752D02*
X43785714Y25735657D01*
X43785714Y25735657D02*
X43833333Y25640419D01*
X43833333Y25640419D02*
X43880952Y25592800D01*
X43880952Y25592800D02*
X43976190Y25545180D01*
X43976190Y25545180D02*
X44214285Y25545180D01*
X44214285Y25545180D02*
X44309523Y25592800D01*
X44309523Y25592800D02*
X44357142Y25640419D01*
X46500000Y20545180D02*
X47071428Y20545180D01*
X46785714Y20545180D02*
X46785714Y21545180D01*
X46785714Y21545180D02*
X46880952Y21402323D01*
X46880952Y21402323D02*
X46976190Y21307085D01*
X46976190Y21307085D02*
X47071428Y21259466D01*
X45880952Y21545180D02*
X45785714Y21545180D01*
X45785714Y21545180D02*
X45690476Y21497561D01*
X45690476Y21497561D02*
X45642857Y21449942D01*
X45642857Y21449942D02*
X45595238Y21354704D01*
X45595238Y21354704D02*
X45547619Y21164228D01*
X45547619Y21164228D02*
X45547619Y20926133D01*
X45547619Y20926133D02*
X45595238Y20735657D01*
X45595238Y20735657D02*
X45642857Y20640419D01*
X45642857Y20640419D02*
X45690476Y20592800D01*
X45690476Y20592800D02*
X45785714Y20545180D01*
X45785714Y20545180D02*
X45880952Y20545180D01*
X45880952Y20545180D02*
X45976190Y20592800D01*
X45976190Y20592800D02*
X46023809Y20640419D01*
X46023809Y20640419D02*
X46071428Y20735657D01*
X46071428Y20735657D02*
X46119047Y20926133D01*
X46119047Y20926133D02*
X46119047Y21164228D01*
X46119047Y21164228D02*
X46071428Y21354704D01*
X46071428Y21354704D02*
X46023809Y21449942D01*
X46023809Y21449942D02*
X45976190Y21497561D01*
X45976190Y21497561D02*
X45880952Y21545180D01*
X44928571Y21545180D02*
X44833333Y21545180D01*
X44833333Y21545180D02*
X44738095Y21497561D01*
X44738095Y21497561D02*
X44690476Y21449942D01*
X44690476Y21449942D02*
X44642857Y21354704D01*
X44642857Y21354704D02*
X44595238Y21164228D01*
X44595238Y21164228D02*
X44595238Y20926133D01*
X44595238Y20926133D02*
X44642857Y20735657D01*
X44642857Y20735657D02*
X44690476Y20640419D01*
X44690476Y20640419D02*
X44738095Y20592800D01*
X44738095Y20592800D02*
X44833333Y20545180D01*
X44833333Y20545180D02*
X44928571Y20545180D01*
X44928571Y20545180D02*
X45023809Y20592800D01*
X45023809Y20592800D02*
X45071428Y20640419D01*
X45071428Y20640419D02*
X45119047Y20735657D01*
X45119047Y20735657D02*
X45166666Y20926133D01*
X45166666Y20926133D02*
X45166666Y21164228D01*
X45166666Y21164228D02*
X45119047Y21354704D01*
X45119047Y21354704D02*
X45071428Y21449942D01*
X45071428Y21449942D02*
X45023809Y21497561D01*
X45023809Y21497561D02*
X44928571Y21545180D01*
X44166666Y20545180D02*
X44166666Y21545180D01*
X44071428Y20926133D02*
X43785714Y20545180D01*
X43785714Y21211847D02*
X44166666Y20830895D01*
X43404761Y20830895D02*
X42928571Y20830895D01*
X43499999Y20545180D02*
X43166666Y21545180D01*
X43166666Y21545180D02*
X42833333Y20545180D01*
X-21904761Y25545180D02*
X-21571428Y26021371D01*
X-21333333Y25545180D02*
X-21333333Y26545180D01*
X-21333333Y26545180D02*
X-21714285Y26545180D01*
X-21714285Y26545180D02*
X-21809523Y26497561D01*
X-21809523Y26497561D02*
X-21857142Y26449942D01*
X-21857142Y26449942D02*
X-21904761Y26354704D01*
X-21904761Y26354704D02*
X-21904761Y26211847D01*
X-21904761Y26211847D02*
X-21857142Y26116609D01*
X-21857142Y26116609D02*
X-21809523Y26068990D01*
X-21809523Y26068990D02*
X-21714285Y26021371D01*
X-21714285Y26021371D02*
X-21333333Y26021371D01*
X-22190476Y26545180D02*
X-22523809Y25545180D01*
X-22523809Y25545180D02*
X-22857142Y26545180D01*
X-23619047Y26211847D02*
X-23619047Y25545180D01*
X-23380952Y26592800D02*
X-23142857Y25878514D01*
X-23142857Y25878514D02*
X-23761904Y25878514D01*
X-20761905Y21549942D02*
X-20809524Y21597561D01*
X-20809524Y21597561D02*
X-20904762Y21645180D01*
X-20904762Y21645180D02*
X-21142857Y21645180D01*
X-21142857Y21645180D02*
X-21238095Y21597561D01*
X-21238095Y21597561D02*
X-21285714Y21549942D01*
X-21285714Y21549942D02*
X-21333333Y21454704D01*
X-21333333Y21454704D02*
X-21333333Y21359466D01*
X-21333333Y21359466D02*
X-21285714Y21216609D01*
X-21285714Y21216609D02*
X-20714286Y20645180D01*
X-20714286Y20645180D02*
X-21333333Y20645180D01*
X-21952381Y21645180D02*
X-22047619Y21645180D01*
X-22047619Y21645180D02*
X-22142857Y21597561D01*
X-22142857Y21597561D02*
X-22190476Y21549942D01*
X-22190476Y21549942D02*
X-22238095Y21454704D01*
X-22238095Y21454704D02*
X-22285714Y21264228D01*
X-22285714Y21264228D02*
X-22285714Y21026133D01*
X-22285714Y21026133D02*
X-22238095Y20835657D01*
X-22238095Y20835657D02*
X-22190476Y20740419D01*
X-22190476Y20740419D02*
X-22142857Y20692800D01*
X-22142857Y20692800D02*
X-22047619Y20645180D01*
X-22047619Y20645180D02*
X-21952381Y20645180D01*
X-21952381Y20645180D02*
X-21857143Y20692800D01*
X-21857143Y20692800D02*
X-21809524Y20740419D01*
X-21809524Y20740419D02*
X-21761905Y20835657D01*
X-21761905Y20835657D02*
X-21714286Y21026133D01*
X-21714286Y21026133D02*
X-21714286Y21264228D01*
X-21714286Y21264228D02*
X-21761905Y21454704D01*
X-21761905Y21454704D02*
X-21809524Y21549942D01*
X-21809524Y21549942D02*
X-21857143Y21597561D01*
X-21857143Y21597561D02*
X-21952381Y21645180D01*
X-22714286Y20645180D02*
X-22714286Y21645180D01*
X-22809524Y21026133D02*
X-23095238Y20645180D01*
X-23095238Y21311847D02*
X-22714286Y20930895D01*
X-23428572Y21645180D02*
X-23666667Y20645180D01*
X-23666667Y20645180D02*
X-23857143Y21359466D01*
X-23857143Y21359466D02*
X-24047619Y20645180D01*
X-24047619Y20645180D02*
X-24285715Y21645180D01*
X595238Y25545180D02*
X928571Y26021371D01*
X1166666Y25545180D02*
X1166666Y26545180D01*
X1166666Y26545180D02*
X785714Y26545180D01*
X785714Y26545180D02*
X690476Y26497561D01*
X690476Y26497561D02*
X642857Y26449942D01*
X642857Y26449942D02*
X595238Y26354704D01*
X595238Y26354704D02*
X595238Y26211847D01*
X595238Y26211847D02*
X642857Y26116609D01*
X642857Y26116609D02*
X690476Y26068990D01*
X690476Y26068990D02*
X785714Y26021371D01*
X785714Y26021371D02*
X1166666Y26021371D01*
X309523Y26545180D02*
X-23809Y25545180D01*
X-23809Y25545180D02*
X-357142Y26545180D01*
X-595238Y26545180D02*
X-1214285Y26545180D01*
X-1214285Y26545180D02*
X-880952Y26164228D01*
X-880952Y26164228D02*
X-1023809Y26164228D01*
X-1023809Y26164228D02*
X-1119047Y26116609D01*
X-1119047Y26116609D02*
X-1166666Y26068990D01*
X-1166666Y26068990D02*
X-1214285Y25973752D01*
X-1214285Y25973752D02*
X-1214285Y25735657D01*
X-1214285Y25735657D02*
X-1166666Y25640419D01*
X-1166666Y25640419D02*
X-1119047Y25592800D01*
X-1119047Y25592800D02*
X-1023809Y25545180D01*
X-1023809Y25545180D02*
X-738095Y25545180D01*
X-738095Y25545180D02*
X-642857Y25592800D01*
X-642857Y25592800D02*
X-595238Y25640419D01*
X1738094Y21449942D02*
X1690475Y21497561D01*
X1690475Y21497561D02*
X1595237Y21545180D01*
X1595237Y21545180D02*
X1357142Y21545180D01*
X1357142Y21545180D02*
X1261904Y21497561D01*
X1261904Y21497561D02*
X1214285Y21449942D01*
X1214285Y21449942D02*
X1166666Y21354704D01*
X1166666Y21354704D02*
X1166666Y21259466D01*
X1166666Y21259466D02*
X1214285Y21116609D01*
X1214285Y21116609D02*
X1785713Y20545180D01*
X1785713Y20545180D02*
X1166666Y20545180D01*
X547618Y21545180D02*
X452380Y21545180D01*
X452380Y21545180D02*
X357142Y21497561D01*
X357142Y21497561D02*
X309523Y21449942D01*
X309523Y21449942D02*
X261904Y21354704D01*
X261904Y21354704D02*
X214285Y21164228D01*
X214285Y21164228D02*
X214285Y20926133D01*
X214285Y20926133D02*
X261904Y20735657D01*
X261904Y20735657D02*
X309523Y20640419D01*
X309523Y20640419D02*
X357142Y20592800D01*
X357142Y20592800D02*
X452380Y20545180D01*
X452380Y20545180D02*
X547618Y20545180D01*
X547618Y20545180D02*
X642856Y20592800D01*
X642856Y20592800D02*
X690475Y20640419D01*
X690475Y20640419D02*
X738094Y20735657D01*
X738094Y20735657D02*
X785713Y20926133D01*
X785713Y20926133D02*
X785713Y21164228D01*
X785713Y21164228D02*
X738094Y21354704D01*
X738094Y21354704D02*
X690475Y21449942D01*
X690475Y21449942D02*
X642856Y21497561D01*
X642856Y21497561D02*
X547618Y21545180D01*
X-214286Y20545180D02*
X-214286Y21545180D01*
X-309524Y20926133D02*
X-595238Y20545180D01*
X-595238Y21211847D02*
X-214286Y20830895D01*
X-928572Y21545180D02*
X-1166667Y20545180D01*
X-1166667Y20545180D02*
X-1357143Y21259466D01*
X-1357143Y21259466D02*
X-1547619Y20545180D01*
X-1547619Y20545180D02*
X-1785715Y21545180D01*
X23095238Y25545180D02*
X23428571Y26021371D01*
X23666666Y25545180D02*
X23666666Y26545180D01*
X23666666Y26545180D02*
X23285714Y26545180D01*
X23285714Y26545180D02*
X23190476Y26497561D01*
X23190476Y26497561D02*
X23142857Y26449942D01*
X23142857Y26449942D02*
X23095238Y26354704D01*
X23095238Y26354704D02*
X23095238Y26211847D01*
X23095238Y26211847D02*
X23142857Y26116609D01*
X23142857Y26116609D02*
X23190476Y26068990D01*
X23190476Y26068990D02*
X23285714Y26021371D01*
X23285714Y26021371D02*
X23666666Y26021371D01*
X22809523Y26545180D02*
X22476190Y25545180D01*
X22476190Y25545180D02*
X22142857Y26545180D01*
X21857142Y26449942D02*
X21809523Y26497561D01*
X21809523Y26497561D02*
X21714285Y26545180D01*
X21714285Y26545180D02*
X21476190Y26545180D01*
X21476190Y26545180D02*
X21380952Y26497561D01*
X21380952Y26497561D02*
X21333333Y26449942D01*
X21333333Y26449942D02*
X21285714Y26354704D01*
X21285714Y26354704D02*
X21285714Y26259466D01*
X21285714Y26259466D02*
X21333333Y26116609D01*
X21333333Y26116609D02*
X21904761Y25545180D01*
X21904761Y25545180D02*
X21285714Y25545180D01*
X24238094Y21449942D02*
X24190475Y21497561D01*
X24190475Y21497561D02*
X24095237Y21545180D01*
X24095237Y21545180D02*
X23857142Y21545180D01*
X23857142Y21545180D02*
X23761904Y21497561D01*
X23761904Y21497561D02*
X23714285Y21449942D01*
X23714285Y21449942D02*
X23666666Y21354704D01*
X23666666Y21354704D02*
X23666666Y21259466D01*
X23666666Y21259466D02*
X23714285Y21116609D01*
X23714285Y21116609D02*
X24285713Y20545180D01*
X24285713Y20545180D02*
X23666666Y20545180D01*
X23047618Y21545180D02*
X22952380Y21545180D01*
X22952380Y21545180D02*
X22857142Y21497561D01*
X22857142Y21497561D02*
X22809523Y21449942D01*
X22809523Y21449942D02*
X22761904Y21354704D01*
X22761904Y21354704D02*
X22714285Y21164228D01*
X22714285Y21164228D02*
X22714285Y20926133D01*
X22714285Y20926133D02*
X22761904Y20735657D01*
X22761904Y20735657D02*
X22809523Y20640419D01*
X22809523Y20640419D02*
X22857142Y20592800D01*
X22857142Y20592800D02*
X22952380Y20545180D01*
X22952380Y20545180D02*
X23047618Y20545180D01*
X23047618Y20545180D02*
X23142856Y20592800D01*
X23142856Y20592800D02*
X23190475Y20640419D01*
X23190475Y20640419D02*
X23238094Y20735657D01*
X23238094Y20735657D02*
X23285713Y20926133D01*
X23285713Y20926133D02*
X23285713Y21164228D01*
X23285713Y21164228D02*
X23238094Y21354704D01*
X23238094Y21354704D02*
X23190475Y21449942D01*
X23190475Y21449942D02*
X23142856Y21497561D01*
X23142856Y21497561D02*
X23047618Y21545180D01*
X22285713Y20545180D02*
X22285713Y21545180D01*
X22190475Y20926133D02*
X21904761Y20545180D01*
X21904761Y21211847D02*
X22285713Y20830895D01*
X21571427Y21545180D02*
X21333332Y20545180D01*
X21333332Y20545180D02*
X21142856Y21259466D01*
X21142856Y21259466D02*
X20952380Y20545180D01*
X20952380Y20545180D02*
X20714285Y21545180D01*
X24508094Y-21914819D02*
X24508094Y-20914819D01*
X24508094Y-20914819D02*
X24269999Y-20914819D01*
X24269999Y-20914819D02*
X24127142Y-20962438D01*
X24127142Y-20962438D02*
X24031904Y-21057676D01*
X24031904Y-21057676D02*
X23984285Y-21152914D01*
X23984285Y-21152914D02*
X23936666Y-21343390D01*
X23936666Y-21343390D02*
X23936666Y-21486247D01*
X23936666Y-21486247D02*
X23984285Y-21676723D01*
X23984285Y-21676723D02*
X24031904Y-21771961D01*
X24031904Y-21771961D02*
X24127142Y-21867200D01*
X24127142Y-21867200D02*
X24269999Y-21914819D01*
X24269999Y-21914819D02*
X24508094Y-21914819D01*
X23031904Y-20914819D02*
X23508094Y-20914819D01*
X23508094Y-20914819D02*
X23555713Y-21391009D01*
X23555713Y-21391009D02*
X23508094Y-21343390D01*
X23508094Y-21343390D02*
X23412856Y-21295771D01*
X23412856Y-21295771D02*
X23174761Y-21295771D01*
X23174761Y-21295771D02*
X23079523Y-21343390D01*
X23079523Y-21343390D02*
X23031904Y-21391009D01*
X23031904Y-21391009D02*
X22984285Y-21486247D01*
X22984285Y-21486247D02*
X22984285Y-21724342D01*
X22984285Y-21724342D02*
X23031904Y-21819580D01*
X23031904Y-21819580D02*
X23079523Y-21867200D01*
X23079523Y-21867200D02*
X23174761Y-21914819D01*
X23174761Y-21914819D02*
X23412856Y-21914819D01*
X23412856Y-21914819D02*
X23508094Y-21867200D01*
X23508094Y-21867200D02*
X23555713Y-21819580D01*
X-32416667Y1892800D02*
X-32559524Y1845180D01*
X-32559524Y1845180D02*
X-32797619Y1845180D01*
X-32797619Y1845180D02*
X-32892857Y1892800D01*
X-32892857Y1892800D02*
X-32940476Y1940419D01*
X-32940476Y1940419D02*
X-32988095Y2035657D01*
X-32988095Y2035657D02*
X-32988095Y2130895D01*
X-32988095Y2130895D02*
X-32940476Y2226133D01*
X-32940476Y2226133D02*
X-32892857Y2273752D01*
X-32892857Y2273752D02*
X-32797619Y2321371D01*
X-32797619Y2321371D02*
X-32607143Y2368990D01*
X-32607143Y2368990D02*
X-32511905Y2416609D01*
X-32511905Y2416609D02*
X-32464286Y2464228D01*
X-32464286Y2464228D02*
X-32416667Y2559466D01*
X-32416667Y2559466D02*
X-32416667Y2654704D01*
X-32416667Y2654704D02*
X-32464286Y2749942D01*
X-32464286Y2749942D02*
X-32511905Y2797561D01*
X-32511905Y2797561D02*
X-32607143Y2845180D01*
X-32607143Y2845180D02*
X-32845238Y2845180D01*
X-32845238Y2845180D02*
X-32988095Y2797561D01*
X-33321429Y2845180D02*
X-33559524Y1845180D01*
X-33559524Y1845180D02*
X-33750000Y2559466D01*
X-33750000Y2559466D02*
X-33940476Y1845180D01*
X-33940476Y1845180D02*
X-34178572Y2845180D01*
X-35083333Y1845180D02*
X-34511905Y1845180D01*
X-34797619Y1845180D02*
X-34797619Y2845180D01*
X-34797619Y2845180D02*
X-34702381Y2702323D01*
X-34702381Y2702323D02*
X-34607143Y2607085D01*
X-34607143Y2607085D02*
X-34511905Y2559466D01*
X-48666667Y1992800D02*
X-48809524Y1945180D01*
X-48809524Y1945180D02*
X-49047619Y1945180D01*
X-49047619Y1945180D02*
X-49142857Y1992800D01*
X-49142857Y1992800D02*
X-49190476Y2040419D01*
X-49190476Y2040419D02*
X-49238095Y2135657D01*
X-49238095Y2135657D02*
X-49238095Y2230895D01*
X-49238095Y2230895D02*
X-49190476Y2326133D01*
X-49190476Y2326133D02*
X-49142857Y2373752D01*
X-49142857Y2373752D02*
X-49047619Y2421371D01*
X-49047619Y2421371D02*
X-48857143Y2468990D01*
X-48857143Y2468990D02*
X-48761905Y2516609D01*
X-48761905Y2516609D02*
X-48714286Y2564228D01*
X-48714286Y2564228D02*
X-48666667Y2659466D01*
X-48666667Y2659466D02*
X-48666667Y2754704D01*
X-48666667Y2754704D02*
X-48714286Y2849942D01*
X-48714286Y2849942D02*
X-48761905Y2897561D01*
X-48761905Y2897561D02*
X-48857143Y2945180D01*
X-48857143Y2945180D02*
X-49095238Y2945180D01*
X-49095238Y2945180D02*
X-49238095Y2897561D01*
X-49571429Y2945180D02*
X-49809524Y1945180D01*
X-49809524Y1945180D02*
X-50000000Y2659466D01*
X-50000000Y2659466D02*
X-50190476Y1945180D01*
X-50190476Y1945180D02*
X-50428572Y2945180D01*
X-50714286Y2945180D02*
X-51333333Y2945180D01*
X-51333333Y2945180D02*
X-51000000Y2564228D01*
X-51000000Y2564228D02*
X-51142857Y2564228D01*
X-51142857Y2564228D02*
X-51238095Y2516609D01*
X-51238095Y2516609D02*
X-51285714Y2468990D01*
X-51285714Y2468990D02*
X-51333333Y2373752D01*
X-51333333Y2373752D02*
X-51333333Y2135657D01*
X-51333333Y2135657D02*
X-51285714Y2040419D01*
X-51285714Y2040419D02*
X-51238095Y1992800D01*
X-51238095Y1992800D02*
X-51142857Y1945180D01*
X-51142857Y1945180D02*
X-50857143Y1945180D01*
X-50857143Y1945180D02*
X-50761905Y1992800D01*
X-50761905Y1992800D02*
X-50714286Y2040419D01*
X-19221905Y-21914819D02*
X-19221905Y-20914819D01*
X-19221905Y-20914819D02*
X-19460000Y-20914819D01*
X-19460000Y-20914819D02*
X-19602857Y-20962438D01*
X-19602857Y-20962438D02*
X-19698095Y-21057676D01*
X-19698095Y-21057676D02*
X-19745714Y-21152914D01*
X-19745714Y-21152914D02*
X-19793333Y-21343390D01*
X-19793333Y-21343390D02*
X-19793333Y-21486247D01*
X-19793333Y-21486247D02*
X-19745714Y-21676723D01*
X-19745714Y-21676723D02*
X-19698095Y-21771961D01*
X-19698095Y-21771961D02*
X-19602857Y-21867200D01*
X-19602857Y-21867200D02*
X-19460000Y-21914819D01*
X-19460000Y-21914819D02*
X-19221905Y-21914819D01*
X-20650476Y-20914819D02*
X-20460000Y-20914819D01*
X-20460000Y-20914819D02*
X-20364762Y-20962438D01*
X-20364762Y-20962438D02*
X-20317143Y-21010057D01*
X-20317143Y-21010057D02*
X-20221905Y-21152914D01*
X-20221905Y-21152914D02*
X-20174286Y-21343390D01*
X-20174286Y-21343390D02*
X-20174286Y-21724342D01*
X-20174286Y-21724342D02*
X-20221905Y-21819580D01*
X-20221905Y-21819580D02*
X-20269524Y-21867200D01*
X-20269524Y-21867200D02*
X-20364762Y-21914819D01*
X-20364762Y-21914819D02*
X-20555238Y-21914819D01*
X-20555238Y-21914819D02*
X-20650476Y-21867200D01*
X-20650476Y-21867200D02*
X-20698095Y-21819580D01*
X-20698095Y-21819580D02*
X-20745714Y-21724342D01*
X-20745714Y-21724342D02*
X-20745714Y-21486247D01*
X-20745714Y-21486247D02*
X-20698095Y-21391009D01*
X-20698095Y-21391009D02*
X-20650476Y-21343390D01*
X-20650476Y-21343390D02*
X-20555238Y-21295771D01*
X-20555238Y-21295771D02*
X-20364762Y-21295771D01*
X-20364762Y-21295771D02*
X-20269524Y-21343390D01*
X-20269524Y-21343390D02*
X-20221905Y-21391009D01*
X-20221905Y-21391009D02*
X-20174286Y-21486247D01*
D11*
G04 #@! TO.C,RV1*
X-52600000Y14000000D02*
X-52600000Y20000000D01*
X-52600000Y14000000D02*
X-37500000Y14000000D01*
X-51900000Y20700000D02*
X-52600000Y20000000D01*
X-51900000Y9500000D02*
X-51900000Y14000000D01*
X-51900000Y9500000D02*
X-48100000Y9500000D01*
X-48100000Y9500000D02*
X-48100000Y14000000D01*
X-46900000Y9500000D02*
X-46900000Y14000000D01*
X-46900000Y9500000D02*
X-43100000Y9500000D01*
X-43100000Y9500000D02*
X-43100000Y14000000D01*
X-41900000Y9500000D02*
X-41900000Y14000000D01*
X-41900000Y9500000D02*
X-38100000Y9500000D01*
X-38100000Y9500000D02*
X-38100000Y14000000D01*
X-37500000Y14000000D02*
X-37400000Y14000000D01*
X-37400000Y20000000D02*
X-38100000Y20700000D01*
X-37400000Y14000000D02*
X-37400000Y20000000D01*
X-41825000Y26000000D02*
G75*
G03*
X-48175000Y26000000I-3175000J0D01*
G01*
X-48175000Y26000000D02*
G75*
G03*
X-41825000Y26000000I3175000J0D01*
G01*
X-36500000Y26000000D02*
G75*
G03*
X-53500000Y26000000I-8500000J0D01*
G01*
X-53500000Y26000000D02*
G75*
G03*
X-36500000Y26000000I8500000J0D01*
G01*
G04 #@! TO.C,RV5*
X37400000Y14000000D02*
X37400000Y20000000D01*
X37400000Y14000000D02*
X52500000Y14000000D01*
X38100000Y20700000D02*
X37400000Y20000000D01*
X38100000Y9500000D02*
X38100000Y14000000D01*
X38100000Y9500000D02*
X41900000Y9500000D01*
X41900000Y9500000D02*
X41900000Y14000000D01*
X43100000Y9500000D02*
X43100000Y14000000D01*
X43100000Y9500000D02*
X46900000Y9500000D01*
X46900000Y9500000D02*
X46900000Y14000000D01*
X48100000Y9500000D02*
X48100000Y14000000D01*
X48100000Y9500000D02*
X51900000Y9500000D01*
X51900000Y9500000D02*
X51900000Y14000000D01*
X52500000Y14000000D02*
X52600000Y14000000D01*
X52600000Y20000000D02*
X51900000Y20700000D01*
X52600000Y14000000D02*
X52600000Y20000000D01*
X48175000Y26000000D02*
G75*
G03*
X41825000Y26000000I-3175000J0D01*
G01*
X41825000Y26000000D02*
G75*
G03*
X48175000Y26000000I3175000J0D01*
G01*
X53500000Y26000000D02*
G75*
G03*
X36500000Y26000000I-8500000J0D01*
G01*
X36500000Y26000000D02*
G75*
G03*
X53500000Y26000000I8500000J0D01*
G01*
G04 #@! TO.C,RV4*
X-30100000Y14000000D02*
X-30100000Y20000000D01*
X-30100000Y14000000D02*
X-15000000Y14000000D01*
X-29400000Y20700000D02*
X-30100000Y20000000D01*
X-29400000Y9500000D02*
X-29400000Y14000000D01*
X-29400000Y9500000D02*
X-25600000Y9500000D01*
X-25600000Y9500000D02*
X-25600000Y14000000D01*
X-24400000Y9500000D02*
X-24400000Y14000000D01*
X-24400000Y9500000D02*
X-20600000Y9500000D01*
X-20600000Y9500000D02*
X-20600000Y14000000D01*
X-19400000Y9500000D02*
X-19400000Y14000000D01*
X-19400000Y9500000D02*
X-15600000Y9500000D01*
X-15600000Y9500000D02*
X-15600000Y14000000D01*
X-15000000Y14000000D02*
X-14900000Y14000000D01*
X-14900000Y20000000D02*
X-15600000Y20700000D01*
X-14900000Y14000000D02*
X-14900000Y20000000D01*
X-19325000Y26000000D02*
G75*
G03*
X-25675000Y26000000I-3175000J0D01*
G01*
X-25675000Y26000000D02*
G75*
G03*
X-19325000Y26000000I3175000J0D01*
G01*
X-14000000Y26000000D02*
G75*
G03*
X-31000000Y26000000I-8500000J0D01*
G01*
X-31000000Y26000000D02*
G75*
G03*
X-14000000Y26000000I8500000J0D01*
G01*
G04 #@! TO.C,RV3*
X-7600000Y14000000D02*
X-7600000Y20000000D01*
X-7600000Y14000000D02*
X7500000Y14000000D01*
X-6900000Y20700000D02*
X-7600000Y20000000D01*
X-6900000Y9500000D02*
X-6900000Y14000000D01*
X-6900000Y9500000D02*
X-3100000Y9500000D01*
X-3100000Y9500000D02*
X-3100000Y14000000D01*
X-1900000Y9500000D02*
X-1900000Y14000000D01*
X-1900000Y9500000D02*
X1900000Y9500000D01*
X1900000Y9500000D02*
X1900000Y14000000D01*
X3100000Y9500000D02*
X3100000Y14000000D01*
X3100000Y9500000D02*
X6900000Y9500000D01*
X6900000Y9500000D02*
X6900000Y14000000D01*
X7500000Y14000000D02*
X7600000Y14000000D01*
X7600000Y20000000D02*
X6900000Y20700000D01*
X7600000Y14000000D02*
X7600000Y20000000D01*
X3175000Y26000000D02*
G75*
G03*
X-3175000Y26000000I-3175000J0D01*
G01*
X-3175000Y26000000D02*
G75*
G03*
X3175000Y26000000I3175000J0D01*
G01*
X8500000Y26000000D02*
G75*
G03*
X-8500000Y26000000I-8500000J0D01*
G01*
X-8500000Y26000000D02*
G75*
G03*
X8500000Y26000000I8500000J0D01*
G01*
G04 #@! TO.C,RV2*
X14900000Y14000000D02*
X14900000Y20000000D01*
X14900000Y14000000D02*
X30000000Y14000000D01*
X15600000Y20700000D02*
X14900000Y20000000D01*
X15600000Y9500000D02*
X15600000Y14000000D01*
X15600000Y9500000D02*
X19400000Y9500000D01*
X19400000Y9500000D02*
X19400000Y14000000D01*
X20600000Y9500000D02*
X20600000Y14000000D01*
X20600000Y9500000D02*
X24400000Y9500000D01*
X24400000Y9500000D02*
X24400000Y14000000D01*
X25600000Y9500000D02*
X25600000Y14000000D01*
X25600000Y9500000D02*
X29400000Y9500000D01*
X29400000Y9500000D02*
X29400000Y14000000D01*
X30000000Y14000000D02*
X30100000Y14000000D01*
X30100000Y20000000D02*
X29400000Y20700000D01*
X30100000Y14000000D02*
X30100000Y20000000D01*
X25675000Y26000000D02*
G75*
G03*
X19325000Y26000000I-3175000J0D01*
G01*
X19325000Y26000000D02*
G75*
G03*
X25675000Y26000000I3175000J0D01*
G01*
X31000000Y26000000D02*
G75*
G03*
X14000000Y26000000I-8500000J0D01*
G01*
X14000000Y26000000D02*
G75*
G03*
X31000000Y26000000I8500000J0D01*
G01*
G04 #@! TO.C,D5*
X19940000Y-18995000D02*
X19940000Y-15905000D01*
X25489999Y-17450462D02*
G75*
G03*
X19940001Y-15905170I-2989999J462D01*
G01*
X19940000Y-18994830D02*
G75*
G03*
X25490000Y-17449538I2560000J1544830D01*
G01*
X25000000Y-17450000D02*
G75*
G03*
X20000000Y-17450000I-2500000J0D01*
G01*
X20000000Y-17450000D02*
G75*
G03*
X25000000Y-17450000I2500000J0D01*
G01*
D10*
G04 #@! TO.C,SW1*
X-39450000Y6350000D02*
X-28050000Y6350000D01*
X-39450000Y-6350000D02*
X-39450000Y6350000D01*
X-39450000Y-6350000D02*
X-28050000Y-6350000D01*
X-28050000Y-6350000D02*
X-28050000Y6350000D01*
G04 #@! TO.C,SW3*
X-47500000Y-6500000D02*
X-52500000Y-6500000D01*
X-47500000Y5650000D02*
X-47500000Y-6500000D01*
X-48350000Y6500000D02*
X-47500000Y5650000D01*
X-52500000Y-6500000D02*
X-52500000Y6500000D01*
X-52500000Y6500000D02*
X-48350000Y6500000D01*
D11*
G04 #@! TO.C,D6*
X-25060000Y-16420000D02*
X-25060000Y-15955000D01*
X-25060000Y-19045000D02*
X-25060000Y-18580000D01*
X-19712186Y-16419173D02*
G75*
G03*
X-25059999Y-15955170I-2787814J-1080827D01*
G01*
X-20245522Y-16419572D02*
G75*
G03*
X-24754683Y-16420000I-2254478J-1080428D01*
G01*
X-24754684Y-18580000D02*
G75*
G03*
X-20245521Y-18580429I2254684J1080000D01*
G01*
X-25060000Y-19044830D02*
G75*
G03*
X-19712185Y-18580827I2560000J1544831D01*
G01*
G04 #@! TD*
M02*
