G04 #@! TF.GenerationSoftware,KiCad,Pcbnew,7.0.10*
G04 #@! TF.CreationDate,2024-02-16T20:24:02-03:30*
G04 #@! TF.ProjectId,tight-distortion,74696768-742d-4646-9973-746f7274696f,rev?*
G04 #@! TF.SameCoordinates,Original*
G04 #@! TF.FileFunction,Soldermask,Bot*
G04 #@! TF.FilePolarity,Negative*
%FSLAX46Y46*%
G04 Gerber Fmt 4.6, Leading zero omitted, Abs format (unit mm)*
G04 Created by KiCad (PCBNEW 7.0.10) date 2024-02-16 20:24:02*
%MOMM*%
%LPD*%
G01*
G04 APERTURE LIST*
%ADD10O,4.000000X1.500000*%
%ADD11O,1.500000X4.000000*%
%ADD12C,2.540000*%
%ADD13O,3.000000X1.400000*%
%ADD14O,1.400000X3.000000*%
%ADD15R,1.700000X1.700000*%
%ADD16O,1.700000X1.700000*%
%ADD17C,1.600000*%
%ADD18R,1.200000X1.200000*%
%ADD19C,1.200000*%
%ADD20C,1.400000*%
%ADD21O,1.400000X1.400000*%
%ADD22R,1.600000X1.600000*%
%ADD23R,2.000000X2.000000*%
%ADD24C,2.000000*%
%ADD25R,1.800000X1.800000*%
%ADD26C,1.800000*%
%ADD27O,3.800000X2.400000*%
G04 APERTURE END LIST*
D10*
G04 #@! TO.C,J1*
X0Y29800000D03*
X0Y35800000D03*
D11*
X-4700000Y32800000D03*
G04 #@! TD*
D12*
G04 #@! TO.C,J2*
X-46250000Y23650000D03*
X-46250000Y30000000D03*
X-46250000Y36350000D03*
X-29750000Y23650000D03*
X-29750000Y30000000D03*
X-29750000Y36350000D03*
G04 #@! TD*
G04 #@! TO.C,J3*
X29750000Y23650000D03*
X29750000Y30000000D03*
X29750000Y36350000D03*
X46250000Y23650000D03*
X46250000Y30000000D03*
X46250000Y36350000D03*
G04 #@! TD*
D13*
G04 #@! TO.C,G1*
X50100000Y34500000D03*
D14*
X53400000Y30000000D03*
D13*
X50100000Y25500000D03*
G04 #@! TD*
D15*
G04 #@! TO.C,J4*
X31110000Y-17000000D03*
D16*
X33650000Y-17000000D03*
X36190000Y-17000000D03*
X38730000Y-17000000D03*
X41270000Y-17000000D03*
X43810000Y-17000000D03*
X46350000Y-17000000D03*
X48890000Y-17000000D03*
G04 #@! TD*
D17*
G04 #@! TO.C,C4*
X-41650000Y6200000D03*
X-41650000Y1200000D03*
G04 #@! TD*
G04 #@! TO.C,C5*
X-7400000Y-8135000D03*
X-12400000Y-8135000D03*
G04 #@! TD*
D18*
G04 #@! TO.C,C6*
X-44730000Y-11300000D03*
D19*
X-43230000Y-11300000D03*
G04 #@! TD*
D17*
G04 #@! TO.C,C8*
X-44850000Y-1800000D03*
X-44850000Y-6800000D03*
G04 #@! TD*
D18*
G04 #@! TO.C,C9*
X-10470000Y-3990000D03*
D19*
X-8970000Y-3990000D03*
G04 #@! TD*
D18*
G04 #@! TO.C,C13*
X-10470000Y4300000D03*
D19*
X-8970000Y4300000D03*
G04 #@! TD*
D17*
G04 #@! TO.C,C15*
X15400000Y4900000D03*
X10400000Y4900000D03*
G04 #@! TD*
G04 #@! TO.C,C22*
X15350000Y19700000D03*
X10350000Y19700000D03*
G04 #@! TD*
D20*
G04 #@! TO.C,R1*
X-33700000Y-12600000D03*
D21*
X-28700000Y-12600000D03*
G04 #@! TD*
D17*
G04 #@! TO.C,C37*
X51000000Y-1924998D03*
X46000000Y-1924998D03*
G04 #@! TD*
G04 #@! TO.C,C2*
X-41600000Y-6800000D03*
X-41600000Y-1800000D03*
G04 #@! TD*
D18*
G04 #@! TO.C,C39*
X-18870000Y26100000D03*
D19*
X-17370000Y26100000D03*
G04 #@! TD*
D22*
G04 #@! TO.C,C40*
X7155000Y38799999D03*
D17*
X9655000Y38799999D03*
G04 #@! TD*
D22*
G04 #@! TO.C,C47*
X-21652651Y38800000D03*
D17*
X-18152651Y38800000D03*
G04 #@! TD*
D16*
G04 #@! TO.C,J5*
X-21420000Y-31760000D03*
D15*
X-21420000Y-34300000D03*
D16*
X-21420000Y-26680000D03*
X-21420000Y-29220000D03*
X21500000Y-26680000D03*
X21500000Y-29220000D03*
X21500000Y-31760000D03*
X21500000Y-34300000D03*
G04 #@! TD*
D20*
G04 #@! TO.C,R2*
X-28700000Y-10400000D03*
D21*
X-33700000Y-10400000D03*
G04 #@! TD*
D20*
G04 #@! TO.C,R3*
X-21000000Y-12600000D03*
D21*
X-26000000Y-12600000D03*
G04 #@! TD*
D20*
G04 #@! TO.C,R4*
X-26000000Y-8453331D03*
D21*
X-21000000Y-8453331D03*
G04 #@! TD*
D20*
G04 #@! TO.C,R5*
X-21000000Y-10526664D03*
D21*
X-26000000Y-10526664D03*
G04 #@! TD*
D20*
G04 #@! TO.C,R7*
X-21000000Y-6379998D03*
D21*
X-26000000Y-6379998D03*
G04 #@! TD*
D20*
G04 #@! TO.C,R8*
X-26000000Y-4306665D03*
D21*
X-21000000Y-4306665D03*
G04 #@! TD*
D20*
G04 #@! TO.C,R9*
X-52250000Y21100000D03*
D21*
X-52250000Y26100000D03*
G04 #@! TD*
D20*
G04 #@! TO.C,R11*
X-21000000Y3326667D03*
D21*
X-26000000Y3326667D03*
G04 #@! TD*
D17*
G04 #@! TO.C,C3*
X-7400000Y-11500000D03*
X-12400000Y-11500000D03*
G04 #@! TD*
D20*
G04 #@! TO.C,R13*
X1300000Y5400000D03*
D21*
X-3700000Y5400000D03*
G04 #@! TD*
D20*
G04 #@! TO.C,R14*
X-49600000Y21100000D03*
D21*
X-49600000Y26100000D03*
G04 #@! TD*
D20*
G04 #@! TO.C,R15*
X-3700000Y1529000D03*
D21*
X1300000Y1529000D03*
G04 #@! TD*
D20*
G04 #@! TO.C,R16*
X1300000Y-2342000D03*
D21*
X-3700000Y-2342000D03*
G04 #@! TD*
D20*
G04 #@! TO.C,R17*
X-3700000Y-4442500D03*
D21*
X1300000Y-4442500D03*
G04 #@! TD*
D20*
G04 #@! TO.C,R18*
X1300000Y-6543000D03*
D21*
X-3700000Y-6543000D03*
G04 #@! TD*
D20*
G04 #@! TO.C,R19*
X-3700000Y-12514500D03*
D21*
X1300000Y-12514500D03*
G04 #@! TD*
D20*
G04 #@! TO.C,R20*
X-3700000Y-10414000D03*
D21*
X1300000Y-10414000D03*
G04 #@! TD*
D20*
G04 #@! TO.C,R21*
X15400000Y-12500000D03*
D21*
X10400000Y-12500000D03*
G04 #@! TD*
D20*
G04 #@! TO.C,R22*
X10400000Y-15000000D03*
D21*
X15400000Y-15000000D03*
G04 #@! TD*
D20*
G04 #@! TO.C,R26*
X15350000Y17100000D03*
D21*
X10350000Y17100000D03*
G04 #@! TD*
D20*
G04 #@! TO.C,R28*
X-7500000Y17100000D03*
D21*
X-2500000Y17100000D03*
G04 #@! TD*
D20*
G04 #@! TO.C,R29*
X-7500000Y15000000D03*
D21*
X-2500000Y15000000D03*
G04 #@! TD*
D20*
G04 #@! TO.C,R30*
X-7500000Y12900000D03*
D21*
X-2500000Y12900000D03*
G04 #@! TD*
D20*
G04 #@! TO.C,R31*
X24200000Y-4925000D03*
D21*
X19200000Y-4925000D03*
G04 #@! TD*
D23*
G04 #@! TO.C,RV1*
X-40000000Y9300000D03*
D24*
X-45000000Y9300000D03*
X-50000000Y9300000D03*
D23*
X-40000000Y14300000D03*
D24*
X-45000000Y14300000D03*
X-50000000Y14300000D03*
G04 #@! TD*
D20*
G04 #@! TO.C,R32*
X15350000Y22700000D03*
D21*
X10350000Y22700000D03*
G04 #@! TD*
D20*
G04 #@! TO.C,R12*
X-21000000Y5400000D03*
D21*
X-26000000Y5400000D03*
G04 #@! TD*
D20*
G04 #@! TO.C,R6*
X-47500000Y-10200000D03*
D21*
X-52500000Y-10200000D03*
G04 #@! TD*
D17*
G04 #@! TO.C,C36*
X46000000Y-8308330D03*
X51000000Y-8308330D03*
G04 #@! TD*
G04 #@! TO.C,C25*
X-7500000Y26800000D03*
X-2500000Y26800000D03*
G04 #@! TD*
G04 #@! TO.C,C20*
X15400000Y-6974000D03*
X10400000Y-6974000D03*
G04 #@! TD*
D22*
G04 #@! TO.C,C38*
X-25350000Y26100000D03*
D17*
X-22850000Y26100000D03*
G04 #@! TD*
G04 #@! TO.C,C23*
X-7500000Y23200000D03*
X-2500000Y23200000D03*
G04 #@! TD*
G04 #@! TO.C,C11*
X-12400000Y155000D03*
X-7400000Y155000D03*
G04 #@! TD*
D15*
G04 #@! TO.C,SW2*
X-46350000Y-17000000D03*
D16*
X-43810000Y-17000000D03*
X-41270000Y-17000000D03*
X-38730000Y-17000000D03*
X-36190000Y-17000000D03*
X-33650000Y-17000000D03*
G04 #@! TD*
D23*
G04 #@! TO.C,RV5*
X50000000Y9500000D03*
D24*
X45000000Y9500000D03*
X40000000Y9500000D03*
G04 #@! TD*
D23*
G04 #@! TO.C,RV4*
X-17500000Y9500000D03*
D24*
X-22500000Y9500000D03*
X-27500000Y9500000D03*
G04 #@! TD*
D23*
G04 #@! TO.C,RV3*
X5000000Y9500000D03*
D24*
X0Y9500000D03*
X-5000000Y9500000D03*
G04 #@! TD*
D23*
G04 #@! TO.C,RV2*
X27500000Y9500000D03*
D24*
X22500000Y9500000D03*
X17500000Y9500000D03*
G04 #@! TD*
D20*
G04 #@! TO.C,R10*
X-26000000Y-489999D03*
D21*
X-21000000Y-489999D03*
G04 #@! TD*
D17*
G04 #@! TO.C,C21*
X19200000Y-1950000D03*
X24200000Y-1950000D03*
G04 #@! TD*
D20*
G04 #@! TO.C,R61*
X19200000Y-12500000D03*
D21*
X24200000Y-12500000D03*
G04 #@! TD*
D20*
G04 #@! TO.C,R62*
X-52500000Y-12400000D03*
D21*
X-47500000Y-12400000D03*
G04 #@! TD*
D17*
G04 #@! TO.C,C35*
X46000000Y-11500000D03*
X51000000Y-11500000D03*
G04 #@! TD*
G04 #@! TO.C,C34*
X46000000Y-5116664D03*
X51000000Y-5116664D03*
G04 #@! TD*
G04 #@! TO.C,C31*
X24200000Y23200000D03*
X19200000Y23200000D03*
G04 #@! TD*
G04 #@! TO.C,C27*
X19200000Y4900000D03*
X24200000Y4900000D03*
G04 #@! TD*
G04 #@! TO.C,C29*
X24200000Y19700000D03*
X19200000Y19700000D03*
G04 #@! TD*
G04 #@! TO.C,C30*
X24200000Y16300000D03*
X19200000Y16300000D03*
G04 #@! TD*
D20*
G04 #@! TO.C,R44*
X46000000Y816668D03*
D21*
X51000000Y816668D03*
G04 #@! TD*
D20*
G04 #@! TO.C,R42*
X41700000Y-5165000D03*
D21*
X36700000Y-5165000D03*
G04 #@! TD*
D20*
G04 #@! TO.C,R40*
X41700000Y-2920000D03*
D21*
X36700000Y-2920000D03*
G04 #@! TD*
D20*
G04 #@! TO.C,R41*
X46000000Y5400000D03*
D21*
X51000000Y5400000D03*
G04 #@! TD*
D20*
G04 #@! TO.C,R37*
X36700000Y5400000D03*
D21*
X41700000Y5400000D03*
G04 #@! TD*
D20*
G04 #@! TO.C,R33*
X10350000Y29562500D03*
D21*
X15350000Y29562500D03*
G04 #@! TD*
D20*
G04 #@! TO.C,R34*
X10350000Y24987500D03*
D21*
X15350000Y24987500D03*
G04 #@! TD*
D20*
G04 #@! TO.C,R39*
X46000000Y3108334D03*
D21*
X51000000Y3108334D03*
G04 #@! TD*
D20*
G04 #@! TO.C,R36*
X15350000Y27275000D03*
D21*
X10350000Y27275000D03*
G04 #@! TD*
D20*
G04 #@! TO.C,R45*
X41700000Y-9655000D03*
D21*
X36700000Y-9655000D03*
G04 #@! TD*
D20*
G04 #@! TO.C,R46*
X41700000Y-11900000D03*
D21*
X36700000Y-11900000D03*
G04 #@! TD*
D20*
G04 #@! TO.C,R38*
X36700000Y1240000D03*
D21*
X41700000Y1240000D03*
G04 #@! TD*
D20*
G04 #@! TO.C,R35*
X10350000Y31850000D03*
D21*
X15350000Y31850000D03*
G04 #@! TD*
D20*
G04 #@! TO.C,R43*
X41700000Y-7410000D03*
D21*
X36700000Y-7410000D03*
G04 #@! TD*
D20*
G04 #@! TO.C,R24*
X19200000Y-9975000D03*
D21*
X24200000Y-9975000D03*
G04 #@! TD*
D20*
G04 #@! TO.C,R23*
X10400000Y-9962000D03*
D21*
X15400000Y-9962000D03*
G04 #@! TD*
D20*
G04 #@! TO.C,R27*
X10350000Y15000000D03*
D21*
X15350000Y15000000D03*
G04 #@! TD*
D20*
G04 #@! TO.C,R25*
X24200000Y-7450000D03*
D21*
X19200000Y-7450000D03*
G04 #@! TD*
D18*
G04 #@! TO.C,C17*
X12330000Y682000D03*
D19*
X13830000Y682000D03*
G04 #@! TD*
D17*
G04 #@! TO.C,C19*
X15400000Y-3536000D03*
X10400000Y-3536000D03*
G04 #@! TD*
G04 #@! TO.C,C26*
X19200000Y1475000D03*
X24200000Y1475000D03*
G04 #@! TD*
G04 #@! TO.C,C24*
X-7500000Y19700000D03*
X-2500000Y19700000D03*
G04 #@! TD*
D20*
G04 #@! TO.C,R63*
X-52500000Y-14600000D03*
D21*
X-47500000Y-14600000D03*
G04 #@! TD*
D25*
G04 #@! TO.C,D5*
X21230000Y-17450000D03*
D26*
X23770000Y-17450000D03*
G04 #@! TD*
D27*
G04 #@! TO.C,SW1*
X-36150000Y-4700000D03*
X-36150000Y0D03*
X-36150000Y4700000D03*
X-31350000Y-4700000D03*
X-31350000Y0D03*
X-31350000Y4700000D03*
G04 #@! TD*
G04 #@! TO.C,SW3*
X-50000000Y-4700000D03*
X-50000000Y0D03*
X-50000000Y4700000D03*
G04 #@! TD*
D25*
G04 #@! TO.C,D6*
X-25040000Y-17500000D03*
D26*
X-22500000Y-17500000D03*
X-19960000Y-17500000D03*
G04 #@! TD*
M02*
