M48
; DRILL file {KiCad 7.0.10} date Fri Feb 16 20:24:04 2024
; FORMAT={-:-/ absolute / inch / decimal}
; #@! TF.CreationDate,2024-02-16T20:24:04-03:30
; #@! TF.GenerationSoftware,Kicad,Pcbnew,7.0.10
; #@! TF.FileFunction,Plated,1,4,PTH
FMAT,2
INCH
; #@! TA.AperFunction,Plated,PTH,ViaDrill
T1C0.0157
; #@! TA.AperFunction,Plated,PTH,ComponentDrill
T2C0.0236
; #@! TA.AperFunction,Plated,PTH,ComponentDrill
T3C0.0256
; #@! TA.AperFunction,Plated,PTH,ComponentDrill
T4C0.0276
; #@! TA.AperFunction,Plated,PTH,ComponentDrill
T5C0.0315
; #@! TA.AperFunction,Plated,PTH,ComponentDrill
T6C0.0354
; #@! TA.AperFunction,Plated,PTH,ComponentDrill
T7C0.0394
; #@! TA.AperFunction,Plated,PTH,ComponentDrill
T8C0.0472
; #@! TA.AperFunction,Plated,PTH,ComponentDrill
T9C0.0591
%
G90
G05
T1
X-1.2992Y-0.3307
X-1.1299Y-0.2126
X-1.0787Y-0.564
X-1.0472Y-0.0984
X-0.9592Y0.0558
X-0.9567Y0.7756
X-0.9449Y-0.1654
X-0.9173Y0.8819
X-0.9094Y-0.3425
X-0.9016Y1.1811
X-0.8465Y-0.0945
X-0.7913Y1.1575
X-0.7047Y0.9213
X-0.7047Y0.8125
X-0.6211Y1.2766
X-0.5591Y-1.1575
X-0.5276Y1.2756
X-0.4843Y-1.1575
X-0.4409Y0.6654
X-0.4252Y-0.7638
X-0.3701Y-1.1575
X-0.2874Y1.5276
X-0.252Y-0.8228
X-0.252Y-0.937
X-0.248Y1.5276
X-0.2087Y1.5276
X-0.1378Y-1.1575
X-0.126Y0.1378
X-0.1181Y-0.3346
X-0.0812Y-0.563
X-0.0197Y-0.8543
X-0.0197Y-0.937
X0.0827Y0.9764
X0.0984Y-1.1575
X0.1142Y0.6575
X0.1496Y-0.437
X0.185Y1.0157
X0.2165Y-0.8583
X0.2165Y-0.937
X0.2205Y0.7008
X0.2677Y-1.1575
X0.3346Y-1.1575
X0.4528Y-0.8661
X0.4528Y-0.937
X0.4724Y1.6024
X0.5079Y-1.1575
X0.5669Y-0.7205
X0.5748Y-1.1575
X0.5984Y0.122
X0.6063Y-0.7205
X0.6102Y1.6024
X0.6457Y-0.7205
X0.748Y1.0394
X1.1339Y0.0551
X1.1708Y-0.2559
X1.2387Y0.0906
X1.2756Y-0.2205
X1.4646Y0.1299
X1.4685Y-0.0315
T2
X-1.761Y-0.4449
X-1.702Y-0.4449
X-0.7429Y1.0276
X-0.6839Y1.0276
X-0.4122Y0.1693
X-0.4122Y-0.1571
X-0.3531Y0.1693
X-0.3531Y-0.1571
X0.4854Y0.0269
X0.5445Y0.0269
T4
X-2.0669Y-0.4016
X-2.0669Y-0.4882
X-2.0669Y-0.5748
X-2.0571Y1.0276
X-2.0571Y0.8307
X-1.9528Y1.0276
X-1.9528Y0.8307
X-1.8701Y-0.4016
X-1.8701Y-0.4882
X-1.8701Y-0.5748
X-1.3268Y-0.4094
X-1.3268Y-0.4961
X-1.1299Y-0.4094
X-1.1299Y-0.4961
X-1.0236Y0.2126
X-1.0236Y0.131
X-1.0236Y-0.0193
X-1.0236Y-0.1696
X-1.0236Y-0.2512
X-1.0236Y-0.3328
X-1.0236Y-0.4144
X-1.0236Y-0.4961
X-0.8268Y0.2126
X-0.8268Y0.131
X-0.8268Y-0.0193
X-0.8268Y-0.1696
X-0.8268Y-0.2512
X-0.8268Y-0.3328
X-0.8268Y-0.4144
X-0.8268Y-0.4961
X-0.2953Y0.6732
X-0.2953Y0.5906
X-0.2953Y0.5079
X-0.1457Y0.2126
X-0.1457Y0.0602
X-0.1457Y-0.0922
X-0.1457Y-0.1749
X-0.1457Y-0.2576
X-0.1457Y-0.41
X-0.1457Y-0.4927
X-0.0984Y0.6732
X-0.0984Y0.5906
X-0.0984Y0.5079
X0.0512Y0.2126
X0.0512Y0.0602
X0.0512Y-0.0922
X0.0512Y-0.1749
X0.0512Y-0.2576
X0.0512Y-0.41
X0.0512Y-0.4927
X0.4075Y1.2539
X0.4075Y1.1639
X0.4075Y1.0738
X0.4075Y0.9838
X0.4075Y0.8937
X0.4075Y0.6732
X0.4075Y0.5906
X0.4094Y-0.3922
X0.4094Y-0.4921
X0.4094Y-0.5906
X0.6043Y1.2539
X0.6043Y1.1639
X0.6043Y1.0738
X0.6043Y0.9838
X0.6043Y0.8937
X0.6043Y0.6732
X0.6043Y0.5906
X0.6063Y-0.3922
X0.6063Y-0.4921
X0.6063Y-0.5906
X0.7559Y-0.1939
X0.7559Y-0.2933
X0.7559Y-0.3927
X0.7559Y-0.4921
X0.9528Y-0.1939
X0.9528Y-0.2933
X0.9528Y-0.3927
X0.9528Y-0.4921
X1.4449Y0.2126
X1.4449Y0.0488
X1.4449Y-0.115
X1.4449Y-0.2033
X1.4449Y-0.2917
X1.4449Y-0.3801
X1.4449Y-0.4685
X1.6417Y0.2126
X1.6417Y0.0488
X1.6417Y-0.115
X1.6417Y-0.2033
X1.6417Y-0.2917
X1.6417Y-0.3801
X1.6417Y-0.4685
X1.811Y0.2126
X1.811Y0.1224
X1.811Y0.0322
X2.0079Y0.2126
X2.0079Y0.1224
X2.0079Y0.0322
T5
X-1.7657Y-0.0709
X-1.7657Y-0.2677
X-1.6398Y0.2441
X-1.6398Y0.0472
X-1.6378Y-0.0709
X-1.6378Y-0.2677
X-0.998Y1.0276
X-0.8996Y1.0276
X-0.8525Y1.5276
X-0.7147Y1.5276
X-0.4882Y0.0061
X-0.4882Y-0.3203
X-0.4882Y-0.4528
X-0.2953Y1.0551
X-0.2953Y0.9134
X-0.2953Y0.7756
X-0.2913Y0.0061
X-0.2913Y-0.3203
X-0.2913Y-0.4528
X-0.0984Y1.0551
X-0.0984Y0.9134
X-0.0984Y0.7756
X0.2817Y1.5276
X0.3801Y1.5276
X0.4075Y0.7756
X0.4094Y0.1929
X0.4094Y-0.1392
X0.4094Y-0.2746
X0.6043Y0.7756
X0.6063Y0.1929
X0.6063Y-0.1392
X0.6063Y-0.2746
X0.7559Y0.9134
X0.7559Y0.7756
X0.7559Y0.6417
X0.7559Y0.1929
X0.7559Y0.0581
X0.7559Y-0.0768
X0.9528Y0.9134
X0.9528Y0.7756
X0.9528Y0.6417
X0.9528Y0.1929
X0.9528Y0.0581
X0.9528Y-0.0768
X1.811Y-0.0758
X1.811Y-0.2014
X1.811Y-0.3271
X1.811Y-0.4528
X2.0079Y-0.0758
X2.0079Y-0.2014
X2.0079Y-0.3271
X2.0079Y-0.4528
T6
X-0.9858Y-0.689
X-0.8858Y-0.689
X-0.7858Y-0.689
X0.8358Y-0.687
X0.9358Y-0.687
T7
X-1.8248Y-0.6693
X-1.7248Y-0.6693
X-1.6248Y-0.6693
X-1.5248Y-0.6693
X-1.4248Y-0.6693
X-1.3248Y-0.6693
X-0.8433Y-1.0504
X-0.8433Y-1.1504
X-0.8433Y-1.2504
X-0.8433Y-1.3504
X0.8465Y-1.0504
X0.8465Y-1.1504
X0.8465Y-1.2504
X0.8465Y-1.3504
X1.2248Y-0.6693
X1.3248Y-0.6693
X1.4248Y-0.6693
X1.5248Y-0.6693
X1.6248Y-0.6693
X1.7248Y-0.6693
X1.8248Y-0.6693
X1.9248Y-0.6693
T8
X-1.9685Y0.563
X-1.9685Y0.3661
X-1.7717Y0.563
X-1.7717Y0.3661
X-1.5748Y0.563
X-1.5748Y0.3661
X-1.0827Y0.374
X-0.8858Y0.374
X-0.689Y0.374
X-0.1969Y0.374
X0.0Y0.374
X0.1969Y0.374
X0.689Y0.374
X0.8858Y0.374
X1.0827Y0.374
X1.5748Y0.374
X1.7717Y0.374
X1.9685Y0.374
T9
X-1.8209Y1.4311
X-1.8209Y1.1811
X-1.8209Y0.9311
X-1.1713Y1.4311
X-1.1713Y1.1811
X-1.1713Y0.9311
X1.1713Y1.4311
X1.1713Y1.1811
X1.1713Y0.9311
X1.8209Y1.4311
X1.8209Y1.1811
X1.8209Y0.9311
T2
G00X1.9449Y1.3583
M15
G01X2.0Y1.3583
M16
G05
G00X1.9449Y1.0039
M15
G01X2.0Y1.0039
M16
G05
G00X2.1024Y1.2087
M15
G01X2.1024Y1.1535
M16
G05
T3
G00X-0.185Y1.2431
M15
G01X-0.185Y1.3396
M16
G05
G00X-0.0482Y1.4094
M15
G01X0.0482Y1.4094
M16
G05
G00X-0.0482Y1.1732
M15
G01X0.0482Y1.1732
M16
G05
T8
G00X-1.9409Y0.185
M15
G01X-1.9961Y0.185
M16
G05
G00X-1.9409Y0.0
M15
G01X-1.9961Y0.0
M16
G05
G00X-1.9409Y-0.185
M15
G01X-1.9961Y-0.185
M16
G05
G00X-1.4508Y0.185
M15
G01X-1.3957Y0.185
M16
G05
G00X-1.4508Y0.0
M15
G01X-1.3957Y0.0
M16
G05
G00X-1.4508Y-0.185
M15
G01X-1.3957Y-0.185
M16
G05
G00X-1.2618Y0.185
M15
G01X-1.2067Y0.185
M16
G05
G00X-1.2618Y0.0
M15
G01X-1.2067Y0.0
M16
G05
G00X-1.2618Y-0.185
M15
G01X-1.2067Y-0.185
M16
G05
M30
