G04 #@! TF.GenerationSoftware,KiCad,Pcbnew,(5.1.10)-1*
G04 #@! TF.CreationDate,2023-12-11T13:30:18-03:30*
G04 #@! TF.ProjectId,tight-distortion,74696768-742d-4646-9973-746f7274696f,rev?*
G04 #@! TF.SameCoordinates,Original*
G04 #@! TF.FileFunction,Soldermask,Top*
G04 #@! TF.FilePolarity,Negative*
%FSLAX46Y46*%
G04 Gerber Fmt 4.6, Leading zero omitted, Abs format (unit mm)*
G04 Created by KiCad (PCBNEW (5.1.10)-1) date 2023-12-11 13:30:18*
%MOMM*%
%LPD*%
G01*
G04 APERTURE LIST*
%ADD10R,1.700000X1.700000*%
%ADD11O,1.700000X1.700000*%
%ADD12O,3.000000X1.400000*%
%ADD13O,1.400000X3.000000*%
%ADD14O,4.000000X1.500000*%
%ADD15O,1.500000X4.000000*%
%ADD16C,2.540000*%
%ADD17C,1.500000*%
%ADD18C,1.600000*%
%ADD19C,1.200000*%
%ADD20R,1.200000X1.200000*%
%ADD21R,1.600000X1.600000*%
%ADD22R,0.900000X1.200000*%
%ADD23R,1.800000X1.800000*%
%ADD24C,1.800000*%
%ADD25R,1.900000X0.800000*%
%ADD26R,1.560000X0.650000*%
%ADD27C,1.400000*%
%ADD28O,1.400000X1.400000*%
%ADD29C,2.000000*%
%ADD30R,2.000000X2.000000*%
%ADD31O,3.800000X2.400000*%
%ADD32R,1.060000X0.650000*%
G04 APERTURE END LIST*
D10*
G04 #@! TO.C,J4*
X-21460000Y-34310000D03*
D11*
X-21460000Y-29230000D03*
X-21460000Y-26690000D03*
X-21460000Y-31770000D03*
X21460000Y-31770000D03*
X21460000Y-26690000D03*
X21460000Y-29230000D03*
X21460000Y-34310000D03*
G04 #@! TD*
D12*
G04 #@! TO.C,G1*
X50100000Y34500000D03*
X50100000Y25500000D03*
D13*
X53400000Y30000000D03*
G04 #@! TD*
D14*
G04 #@! TO.C,J1*
X0Y29800000D03*
X0Y35800000D03*
D15*
X-4700000Y32800000D03*
G04 #@! TD*
D16*
G04 #@! TO.C,J2*
X-46250000Y36350000D03*
X-46250000Y30000000D03*
X-46250000Y23650000D03*
X-29750000Y36350000D03*
X-29750000Y30000000D03*
X-29750000Y23650000D03*
G04 #@! TD*
G04 #@! TO.C,J3*
X46250000Y23650000D03*
X46250000Y30000000D03*
X46250000Y36350000D03*
X29750000Y23650000D03*
X29750000Y30000000D03*
X29750000Y36350000D03*
G04 #@! TD*
D17*
G04 #@! TO.C,C1*
X11150000Y5700000D03*
X13650000Y5700000D03*
G04 #@! TD*
D18*
G04 #@! TO.C,C2*
X44400000Y900000D03*
X44400000Y5900000D03*
G04 #@! TD*
G04 #@! TO.C,C3*
X9900000Y2300000D03*
X14900000Y2300000D03*
G04 #@! TD*
G04 #@! TO.C,C4*
X26000000Y5900000D03*
X26000000Y900000D03*
G04 #@! TD*
G04 #@! TO.C,C5*
X9900000Y-6000000D03*
X14900000Y-6000000D03*
G04 #@! TD*
D19*
G04 #@! TO.C,C6*
X45150000Y-4100000D03*
D20*
X43650000Y-4100000D03*
G04 #@! TD*
D17*
G04 #@! TO.C,C7*
X11150000Y-9100000D03*
X13650000Y-9100000D03*
G04 #@! TD*
D18*
G04 #@! TO.C,C8*
X26000000Y-2100000D03*
X26000000Y-7100000D03*
G04 #@! TD*
D20*
G04 #@! TO.C,C9*
X20750000Y-12100000D03*
D19*
X19250000Y-12100000D03*
G04 #@! TD*
D17*
G04 #@! TO.C,C10*
X18750000Y-8300000D03*
X21250000Y-8300000D03*
G04 #@! TD*
D18*
G04 #@! TO.C,C11*
X-1500000Y5700000D03*
X-6500000Y5700000D03*
G04 #@! TD*
D20*
G04 #@! TO.C,C12*
X-1800000Y-5750000D03*
D19*
X-1800000Y-7250000D03*
G04 #@! TD*
D17*
G04 #@! TO.C,C13*
X-2650000Y2300000D03*
X-5150000Y2300000D03*
G04 #@! TD*
D18*
G04 #@! TO.C,C14*
X-1400000Y-10400000D03*
X-6400000Y-10400000D03*
G04 #@! TD*
D20*
G04 #@! TO.C,C15*
X-6300000Y-5750000D03*
D19*
X-6300000Y-7250000D03*
G04 #@! TD*
D17*
G04 #@! TO.C,C16*
X-10750000Y-17900000D03*
X-13250000Y-17900000D03*
G04 #@! TD*
D18*
G04 #@! TO.C,C17*
X-17900000Y5700000D03*
X-22900000Y5700000D03*
G04 #@! TD*
G04 #@! TO.C,C18*
X-22900000Y2300000D03*
X-17900000Y2300000D03*
G04 #@! TD*
D17*
G04 #@! TO.C,C19*
X-19250000Y-5500000D03*
X-21750000Y-5500000D03*
G04 #@! TD*
D18*
G04 #@! TO.C,C20*
X11900000Y14200000D03*
X6900000Y14200000D03*
G04 #@! TD*
G04 #@! TO.C,C21*
X6900000Y17400000D03*
X11900000Y17400000D03*
G04 #@! TD*
G04 #@! TO.C,C22*
X-7500000Y14200000D03*
X-12500000Y14200000D03*
G04 #@! TD*
G04 #@! TO.C,C23*
X-12600000Y17400000D03*
X-7600000Y17400000D03*
G04 #@! TD*
G04 #@! TO.C,C24*
X-17600000Y14200000D03*
X-22600000Y14200000D03*
G04 #@! TD*
G04 #@! TO.C,C25*
X-22600000Y17400000D03*
X-17600000Y17400000D03*
G04 #@! TD*
D17*
G04 #@! TO.C,C26*
X-27050000Y-3900000D03*
X-29550000Y-3900000D03*
G04 #@! TD*
D18*
G04 #@! TO.C,C27*
X-18000000Y-8800000D03*
X-23000000Y-8800000D03*
G04 #@! TD*
D17*
G04 #@! TO.C,C28*
X-21650000Y-11900000D03*
X-19150000Y-11900000D03*
G04 #@! TD*
D18*
G04 #@! TO.C,C29*
X-43100000Y-4800000D03*
X-38100000Y-4800000D03*
G04 #@! TD*
G04 #@! TO.C,C30*
X-38100000Y-8100000D03*
X-43100000Y-8100000D03*
G04 #@! TD*
G04 #@! TO.C,C31*
X-43100000Y-19500000D03*
X-38100000Y-19500000D03*
G04 #@! TD*
D17*
G04 #@! TO.C,C32*
X-38100000Y-10950000D03*
X-38100000Y-13450000D03*
G04 #@! TD*
G04 #@! TO.C,C33*
X-43000000Y-13450000D03*
X-43000000Y-10950000D03*
G04 #@! TD*
D18*
G04 #@! TO.C,C34*
X-43100000Y-16200000D03*
X-38100000Y-16200000D03*
G04 #@! TD*
D17*
G04 #@! TO.C,C35*
X-50850000Y5900000D03*
X-48350000Y5900000D03*
G04 #@! TD*
D18*
G04 #@! TO.C,C36*
X-43100000Y12900000D03*
X-38100000Y12900000D03*
G04 #@! TD*
D21*
G04 #@! TO.C,C37*
X-19900000Y38000000D03*
D18*
X-23400000Y38000000D03*
G04 #@! TD*
D21*
G04 #@! TO.C,C38*
X12950000Y38000000D03*
D18*
X15450000Y38000000D03*
G04 #@! TD*
D19*
G04 #@! TO.C,C39*
X14950000Y31600000D03*
D20*
X13450000Y31600000D03*
G04 #@! TD*
D18*
G04 #@! TO.C,C40*
X-35500000Y-34250000D03*
D21*
X-35500000Y-36750000D03*
G04 #@! TD*
G04 #@! TO.C,C41*
G36*
G01*
X-37675000Y6475000D02*
X-37675000Y5525000D01*
G75*
G02*
X-37925000Y5275000I-250000J0D01*
G01*
X-38600000Y5275000D01*
G75*
G02*
X-38850000Y5525000I0J250000D01*
G01*
X-38850000Y6475000D01*
G75*
G02*
X-38600000Y6725000I250000J0D01*
G01*
X-37925000Y6725000D01*
G75*
G02*
X-37675000Y6475000I0J-250000D01*
G01*
G37*
G36*
G01*
X-39750000Y6475000D02*
X-39750000Y5525000D01*
G75*
G02*
X-40000000Y5275000I-250000J0D01*
G01*
X-40675000Y5275000D01*
G75*
G02*
X-40925000Y5525000I0J250000D01*
G01*
X-40925000Y6475000D01*
G75*
G02*
X-40675000Y6725000I250000J0D01*
G01*
X-40000000Y6725000D01*
G75*
G02*
X-39750000Y6475000I0J-250000D01*
G01*
G37*
G04 #@! TD*
G04 #@! TO.C,C42*
G36*
G01*
X-42550000Y-1125000D02*
X-42550000Y-2075000D01*
G75*
G02*
X-42800000Y-2325000I-250000J0D01*
G01*
X-43475000Y-2325000D01*
G75*
G02*
X-43725000Y-2075000I0J250000D01*
G01*
X-43725000Y-1125000D01*
G75*
G02*
X-43475000Y-875000I250000J0D01*
G01*
X-42800000Y-875000D01*
G75*
G02*
X-42550000Y-1125000I0J-250000D01*
G01*
G37*
G36*
G01*
X-40475000Y-1125000D02*
X-40475000Y-2075000D01*
G75*
G02*
X-40725000Y-2325000I-250000J0D01*
G01*
X-41400000Y-2325000D01*
G75*
G02*
X-41650000Y-2075000I0J250000D01*
G01*
X-41650000Y-1125000D01*
G75*
G02*
X-41400000Y-875000I250000J0D01*
G01*
X-40725000Y-875000D01*
G75*
G02*
X-40475000Y-1125000I0J-250000D01*
G01*
G37*
G04 #@! TD*
G04 #@! TO.C,C43*
G36*
G01*
X3025000Y24475000D02*
X3025000Y23525000D01*
G75*
G02*
X2775000Y23275000I-250000J0D01*
G01*
X2100000Y23275000D01*
G75*
G02*
X1850000Y23525000I0J250000D01*
G01*
X1850000Y24475000D01*
G75*
G02*
X2100000Y24725000I250000J0D01*
G01*
X2775000Y24725000D01*
G75*
G02*
X3025000Y24475000I0J-250000D01*
G01*
G37*
G36*
G01*
X950000Y24475000D02*
X950000Y23525000D01*
G75*
G02*
X700000Y23275000I-250000J0D01*
G01*
X25000Y23275000D01*
G75*
G02*
X-225000Y23525000I0J250000D01*
G01*
X-225000Y24475000D01*
G75*
G02*
X25000Y24725000I250000J0D01*
G01*
X700000Y24725000D01*
G75*
G02*
X950000Y24475000I0J-250000D01*
G01*
G37*
G04 #@! TD*
G04 #@! TO.C,C44*
G36*
G01*
X-1850000Y16875000D02*
X-1850000Y15925000D01*
G75*
G02*
X-2100000Y15675000I-250000J0D01*
G01*
X-2775000Y15675000D01*
G75*
G02*
X-3025000Y15925000I0J250000D01*
G01*
X-3025000Y16875000D01*
G75*
G02*
X-2775000Y17125000I250000J0D01*
G01*
X-2100000Y17125000D01*
G75*
G02*
X-1850000Y16875000I0J-250000D01*
G01*
G37*
G36*
G01*
X225000Y16875000D02*
X225000Y15925000D01*
G75*
G02*
X-25000Y15675000I-250000J0D01*
G01*
X-700000Y15675000D01*
G75*
G02*
X-950000Y15925000I0J250000D01*
G01*
X-950000Y16875000D01*
G75*
G02*
X-700000Y17125000I250000J0D01*
G01*
X-25000Y17125000D01*
G75*
G02*
X225000Y16875000I0J-250000D01*
G01*
G37*
G04 #@! TD*
G04 #@! TO.C,C45*
G36*
G01*
X-16525000Y23375000D02*
X-17475000Y23375000D01*
G75*
G02*
X-17725000Y23625000I0J250000D01*
G01*
X-17725000Y24300000D01*
G75*
G02*
X-17475000Y24550000I250000J0D01*
G01*
X-16525000Y24550000D01*
G75*
G02*
X-16275000Y24300000I0J-250000D01*
G01*
X-16275000Y23625000D01*
G75*
G02*
X-16525000Y23375000I-250000J0D01*
G01*
G37*
G36*
G01*
X-16525000Y25450000D02*
X-17475000Y25450000D01*
G75*
G02*
X-17725000Y25700000I0J250000D01*
G01*
X-17725000Y26375000D01*
G75*
G02*
X-17475000Y26625000I250000J0D01*
G01*
X-16525000Y26625000D01*
G75*
G02*
X-16275000Y26375000I0J-250000D01*
G01*
X-16275000Y25700000D01*
G75*
G02*
X-16525000Y25450000I-250000J0D01*
G01*
G37*
G04 #@! TD*
G04 #@! TO.C,C46*
G36*
G01*
X-22425000Y22450000D02*
X-23375000Y22450000D01*
G75*
G02*
X-23625000Y22700000I0J250000D01*
G01*
X-23625000Y23375000D01*
G75*
G02*
X-23375000Y23625000I250000J0D01*
G01*
X-22425000Y23625000D01*
G75*
G02*
X-22175000Y23375000I0J-250000D01*
G01*
X-22175000Y22700000D01*
G75*
G02*
X-22425000Y22450000I-250000J0D01*
G01*
G37*
G36*
G01*
X-22425000Y20375000D02*
X-23375000Y20375000D01*
G75*
G02*
X-23625000Y20625000I0J250000D01*
G01*
X-23625000Y21300000D01*
G75*
G02*
X-23375000Y21550000I250000J0D01*
G01*
X-22425000Y21550000D01*
G75*
G02*
X-22175000Y21300000I0J-250000D01*
G01*
X-22175000Y20625000D01*
G75*
G02*
X-22425000Y20375000I-250000J0D01*
G01*
G37*
G04 #@! TD*
G04 #@! TO.C,C47*
G36*
G01*
X18875000Y29975000D02*
X17925000Y29975000D01*
G75*
G02*
X17675000Y30225000I0J250000D01*
G01*
X17675000Y30900000D01*
G75*
G02*
X17925000Y31150000I250000J0D01*
G01*
X18875000Y31150000D01*
G75*
G02*
X19125000Y30900000I0J-250000D01*
G01*
X19125000Y30225000D01*
G75*
G02*
X18875000Y29975000I-250000J0D01*
G01*
G37*
G36*
G01*
X18875000Y32050000D02*
X17925000Y32050000D01*
G75*
G02*
X17675000Y32300000I0J250000D01*
G01*
X17675000Y32975000D01*
G75*
G02*
X17925000Y33225000I250000J0D01*
G01*
X18875000Y33225000D01*
G75*
G02*
X19125000Y32975000I0J-250000D01*
G01*
X19125000Y32300000D01*
G75*
G02*
X18875000Y32050000I-250000J0D01*
G01*
G37*
G04 #@! TD*
G04 #@! TO.C,C48*
G36*
G01*
X24225000Y32050000D02*
X25175000Y32050000D01*
G75*
G02*
X25425000Y31800000I0J-250000D01*
G01*
X25425000Y31125000D01*
G75*
G02*
X25175000Y30875000I-250000J0D01*
G01*
X24225000Y30875000D01*
G75*
G02*
X23975000Y31125000I0J250000D01*
G01*
X23975000Y31800000D01*
G75*
G02*
X24225000Y32050000I250000J0D01*
G01*
G37*
G36*
G01*
X24225000Y34125000D02*
X25175000Y34125000D01*
G75*
G02*
X25425000Y33875000I0J-250000D01*
G01*
X25425000Y33200000D01*
G75*
G02*
X25175000Y32950000I-250000J0D01*
G01*
X24225000Y32950000D01*
G75*
G02*
X23975000Y33200000I0J250000D01*
G01*
X23975000Y33875000D01*
G75*
G02*
X24225000Y34125000I250000J0D01*
G01*
G37*
G04 #@! TD*
D22*
G04 #@! TO.C,D1*
X-7150000Y39300000D03*
X-10450000Y39300000D03*
G04 #@! TD*
G04 #@! TO.C,D2*
X-10450000Y36700000D03*
X-7150000Y36700000D03*
G04 #@! TD*
G04 #@! TO.C,D3*
X-15750000Y39300000D03*
X-12450000Y39300000D03*
G04 #@! TD*
G04 #@! TO.C,D4*
X-12450000Y36700000D03*
X-15750000Y36700000D03*
G04 #@! TD*
D23*
G04 #@! TO.C,D5*
X-45050000Y-31270000D03*
D24*
X-45050000Y-28730000D03*
G04 #@! TD*
D11*
G04 #@! TO.C,J5*
X38730000Y-17500000D03*
X43810000Y-17500000D03*
X46350000Y-17500000D03*
X36190000Y-17500000D03*
X41270000Y-17500000D03*
X48890000Y-17500000D03*
D10*
X31110000Y-17500000D03*
D11*
X33650000Y-17500000D03*
G04 #@! TD*
D25*
G04 #@! TO.C,Q1*
X14000000Y-2000000D03*
X11000000Y-2950000D03*
X11000000Y-1050000D03*
G04 #@! TD*
G04 #@! TO.C,Q2*
X13900000Y-12900000D03*
X10900000Y-13850000D03*
X10900000Y-11950000D03*
G04 #@! TD*
G04 #@! TO.C,Q3*
X-5400000Y-1050000D03*
X-5400000Y-2950000D03*
X-2400000Y-2000000D03*
G04 #@! TD*
G04 #@! TO.C,Q4*
X-5400000Y-13250000D03*
X-5400000Y-15150000D03*
X-2400000Y-14200000D03*
G04 #@! TD*
G04 #@! TO.C,Q5*
X-21900000Y-1050000D03*
X-21900000Y-2950000D03*
X-18900000Y-2000000D03*
G04 #@! TD*
D26*
G04 #@! TO.C,Q6*
X-21750000Y-14450000D03*
X-21750000Y-15400000D03*
X-21750000Y-16350000D03*
X-19050000Y-16350000D03*
X-19050000Y-14450000D03*
X-19050000Y-15400000D03*
G04 #@! TD*
D25*
G04 #@! TO.C,Q7*
X-12100000Y-29900000D03*
X-15100000Y-30850000D03*
X-15100000Y-28950000D03*
G04 #@! TD*
G04 #@! TO.C,Q8*
X-15100000Y-25050000D03*
X-15100000Y-26950000D03*
X-12100000Y-26000000D03*
G04 #@! TD*
G04 #@! TO.C,Q9*
X13900000Y-28950000D03*
X13900000Y-30850000D03*
X16900000Y-29900000D03*
G04 #@! TD*
G04 #@! TO.C,Q10*
X11100000Y-29900000D03*
X8100000Y-30850000D03*
X8100000Y-28950000D03*
G04 #@! TD*
G04 #@! TO.C,Q11*
X5300000Y-29900000D03*
X2300000Y-30850000D03*
X2300000Y-28950000D03*
G04 #@! TD*
G04 #@! TO.C,Q12*
X-500000Y-29900000D03*
X-3500000Y-30850000D03*
X-3500000Y-28950000D03*
G04 #@! TD*
G04 #@! TO.C,Q13*
X-9300000Y-28950000D03*
X-9300000Y-30850000D03*
X-6300000Y-29900000D03*
G04 #@! TD*
D27*
G04 #@! TO.C,R1*
X7000000Y5700000D03*
D28*
X2000000Y5700000D03*
G04 #@! TD*
D27*
G04 #@! TO.C,R2*
X2000000Y3200000D03*
D28*
X7000000Y3200000D03*
G04 #@! TD*
D27*
G04 #@! TO.C,R3*
X2000000Y800000D03*
D28*
X7000000Y800000D03*
G04 #@! TD*
G04 #@! TO.C,R4*
X7000000Y-3900000D03*
D27*
X2000000Y-3900000D03*
G04 #@! TD*
D28*
G04 #@! TO.C,R5*
X2000000Y-1500000D03*
D27*
X7000000Y-1500000D03*
G04 #@! TD*
G04 #@! TO.C,R6*
X7000000Y-6200000D03*
D28*
X2000000Y-6200000D03*
G04 #@! TD*
G04 #@! TO.C,R7*
X7000000Y-8500000D03*
D27*
X2000000Y-8500000D03*
G04 #@! TD*
D28*
G04 #@! TO.C,R8*
X52750000Y22450000D03*
D27*
X52750000Y17450000D03*
G04 #@! TD*
D28*
G04 #@! TO.C,R9*
X7000000Y-10800000D03*
D27*
X2000000Y-10800000D03*
G04 #@! TD*
G04 #@! TO.C,R10*
X2000000Y-15400000D03*
D28*
X7000000Y-15400000D03*
G04 #@! TD*
D27*
G04 #@! TO.C,R11*
X7000000Y-13100000D03*
D28*
X2000000Y-13100000D03*
G04 #@! TD*
G04 #@! TO.C,R12*
X-14600000Y5700000D03*
D27*
X-9600000Y5700000D03*
G04 #@! TD*
G04 #@! TO.C,R13*
X-14600000Y3200000D03*
D28*
X-9600000Y3200000D03*
G04 #@! TD*
D27*
G04 #@! TO.C,R14*
X50500000Y17450000D03*
D28*
X50500000Y22450000D03*
G04 #@! TD*
D27*
G04 #@! TO.C,R15*
X-14600000Y800000D03*
D28*
X-9600000Y800000D03*
G04 #@! TD*
G04 #@! TO.C,R16*
X-9600000Y-3900000D03*
D27*
X-14600000Y-3900000D03*
G04 #@! TD*
D28*
G04 #@! TO.C,R17*
X-14600000Y-1500000D03*
D27*
X-9600000Y-1500000D03*
G04 #@! TD*
G04 #@! TO.C,R18*
X-9600000Y-6200000D03*
D28*
X-14600000Y-6200000D03*
G04 #@! TD*
D27*
G04 #@! TO.C,R19*
X-14600000Y-8500000D03*
D28*
X-9600000Y-8500000D03*
G04 #@! TD*
G04 #@! TO.C,R20*
X-9600000Y-10800000D03*
D27*
X-14600000Y-10800000D03*
G04 #@! TD*
D28*
G04 #@! TO.C,R21*
X-9600000Y-15400000D03*
D27*
X-14600000Y-15400000D03*
G04 #@! TD*
D28*
G04 #@! TO.C,R22*
X-14600000Y-13100000D03*
D27*
X-9600000Y-13100000D03*
G04 #@! TD*
G04 #@! TO.C,R23*
X-30800000Y5700000D03*
D28*
X-25800000Y5700000D03*
G04 #@! TD*
G04 #@! TO.C,R24*
X-30800000Y3200000D03*
D27*
X-25800000Y3200000D03*
G04 #@! TD*
G04 #@! TO.C,R25*
X-25800000Y800000D03*
D28*
X-30800000Y800000D03*
G04 #@! TD*
G04 #@! TO.C,R26*
X7000000Y20500000D03*
D27*
X12000000Y20500000D03*
G04 #@! TD*
G04 #@! TO.C,R27*
X-30700000Y-6200000D03*
D28*
X-25700000Y-6200000D03*
G04 #@! TD*
D27*
G04 #@! TO.C,R28*
X7000000Y22900000D03*
D28*
X12000000Y22900000D03*
G04 #@! TD*
G04 #@! TO.C,R29*
X-7600000Y20500000D03*
D27*
X-12600000Y20500000D03*
G04 #@! TD*
G04 #@! TO.C,R30*
X-7600000Y22900000D03*
D28*
X-12600000Y22900000D03*
G04 #@! TD*
G04 #@! TO.C,R31*
X-12600000Y25300000D03*
D27*
X-7600000Y25300000D03*
G04 #@! TD*
G04 #@! TO.C,R32*
X-12600000Y27600000D03*
D28*
X-7600000Y27600000D03*
G04 #@! TD*
G04 #@! TO.C,R33*
X-30800000Y-1500000D03*
D27*
X-25800000Y-1500000D03*
G04 #@! TD*
D28*
G04 #@! TO.C,R34*
X-30700000Y-13100000D03*
D27*
X-25700000Y-13100000D03*
G04 #@! TD*
D28*
G04 #@! TO.C,R35*
X-25700000Y-15400000D03*
D27*
X-30700000Y-15400000D03*
G04 #@! TD*
G04 #@! TO.C,R36*
X-30700000Y-8500000D03*
D28*
X-25700000Y-8500000D03*
G04 #@! TD*
G04 #@! TO.C,R37*
X-25700000Y-10700000D03*
D27*
X-30700000Y-10700000D03*
G04 #@! TD*
D28*
G04 #@! TO.C,R38*
X-30700000Y-17600000D03*
D27*
X-25700000Y-17600000D03*
G04 #@! TD*
D28*
G04 #@! TO.C,R39*
X-52100000Y-3900000D03*
D27*
X-47100000Y-3900000D03*
G04 #@! TD*
G04 #@! TO.C,R40*
X-47100000Y-6200000D03*
D28*
X-52100000Y-6200000D03*
G04 #@! TD*
D27*
G04 #@! TO.C,R41*
X-47100000Y-15400000D03*
D28*
X-52100000Y-15400000D03*
G04 #@! TD*
D27*
G04 #@! TO.C,R42*
X-52100000Y-13100000D03*
D28*
X-47100000Y-13100000D03*
G04 #@! TD*
G04 #@! TO.C,R43*
X-47100000Y-8500000D03*
D27*
X-52100000Y-8500000D03*
G04 #@! TD*
G04 #@! TO.C,R44*
X-52100000Y800000D03*
D28*
X-47100000Y800000D03*
G04 #@! TD*
G04 #@! TO.C,R45*
X-47100000Y-1500000D03*
D27*
X-52100000Y-1500000D03*
G04 #@! TD*
G04 #@! TO.C,R46*
X-52100000Y3300000D03*
D28*
X-47100000Y3300000D03*
G04 #@! TD*
G04 #@! TO.C,R47*
X-52100000Y-10700000D03*
D27*
X-47100000Y-10700000D03*
G04 #@! TD*
D28*
G04 #@! TO.C,R48*
X-14700000Y-33100000D03*
D27*
X-14700000Y-38100000D03*
G04 #@! TD*
G04 #@! TO.C,R49*
X-12200000Y-33100000D03*
D28*
X-12200000Y-38100000D03*
G04 #@! TD*
D27*
G04 #@! TO.C,R50*
X16900000Y-33100000D03*
D28*
X16900000Y-38100000D03*
G04 #@! TD*
G04 #@! TO.C,R51*
X11100000Y-38100000D03*
D27*
X11100000Y-33100000D03*
G04 #@! TD*
G04 #@! TO.C,R52*
X5300000Y-33100000D03*
D28*
X5300000Y-38100000D03*
G04 #@! TD*
G04 #@! TO.C,R53*
X-500000Y-38100000D03*
D27*
X-500000Y-33100000D03*
G04 #@! TD*
G04 #@! TO.C,R54*
X-6300000Y-33100000D03*
D28*
X-6300000Y-38100000D03*
G04 #@! TD*
D27*
G04 #@! TO.C,R55*
X19100000Y40500000D03*
D28*
X19100000Y35500000D03*
G04 #@! TD*
D27*
G04 #@! TO.C,R56*
X21600000Y35500000D03*
D28*
X21600000Y40500000D03*
G04 #@! TD*
G04 #@! TO.C,R57*
X24100000Y35500000D03*
D27*
X24100000Y40500000D03*
G04 #@! TD*
G04 #@! TO.C,R58*
X-30100000Y-38100000D03*
D28*
X-30100000Y-33100000D03*
G04 #@! TD*
G04 #@! TO.C,R59*
X-27300000Y-38100000D03*
D27*
X-27300000Y-33100000D03*
G04 #@! TD*
D28*
G04 #@! TO.C,R60*
X46300000Y-13600000D03*
D27*
X51300000Y-13600000D03*
G04 #@! TD*
D29*
G04 #@! TO.C,RV1*
X40000000Y9500000D03*
X45000000Y9500000D03*
D30*
X50000000Y9500000D03*
D29*
X45000000Y13500000D03*
D30*
X50000000Y13500000D03*
D29*
X40000000Y13500000D03*
G04 #@! TD*
D30*
G04 #@! TO.C,RV2*
X27500000Y9500000D03*
D29*
X22500000Y9500000D03*
X17500000Y9500000D03*
G04 #@! TD*
G04 #@! TO.C,RV3*
X-5000000Y9500000D03*
X0Y9500000D03*
D30*
X5000000Y9500000D03*
G04 #@! TD*
G04 #@! TO.C,RV4*
X-17500000Y9500000D03*
D29*
X-22500000Y9500000D03*
X-27500000Y9500000D03*
G04 #@! TD*
G04 #@! TO.C,RV5*
X-50000000Y9500000D03*
X-45000000Y9500000D03*
D30*
X-40000000Y9500000D03*
G04 #@! TD*
D31*
G04 #@! TO.C,SW1*
X32600000Y4700000D03*
X32600000Y0D03*
X32600000Y-4700000D03*
X37400000Y4700000D03*
X37400000Y0D03*
X37400000Y-4700000D03*
G04 #@! TD*
G04 #@! TO.C,SW2*
X50000000Y4700000D03*
X50000000Y0D03*
X50000000Y-4700000D03*
G04 #@! TD*
G04 #@! TO.C,SW3*
X20000000Y-4700000D03*
X20000000Y0D03*
X20000000Y4700000D03*
G04 #@! TD*
G04 #@! TO.C,U1*
G36*
G01*
X1500000Y21855000D02*
X1500000Y22155000D01*
G75*
G02*
X1650000Y22305000I150000J0D01*
G01*
X3300000Y22305000D01*
G75*
G02*
X3450000Y22155000I0J-150000D01*
G01*
X3450000Y21855000D01*
G75*
G02*
X3300000Y21705000I-150000J0D01*
G01*
X1650000Y21705000D01*
G75*
G02*
X1500000Y21855000I0J150000D01*
G01*
G37*
G36*
G01*
X1500000Y20585000D02*
X1500000Y20885000D01*
G75*
G02*
X1650000Y21035000I150000J0D01*
G01*
X3300000Y21035000D01*
G75*
G02*
X3450000Y20885000I0J-150000D01*
G01*
X3450000Y20585000D01*
G75*
G02*
X3300000Y20435000I-150000J0D01*
G01*
X1650000Y20435000D01*
G75*
G02*
X1500000Y20585000I0J150000D01*
G01*
G37*
G36*
G01*
X1500000Y19315000D02*
X1500000Y19615000D01*
G75*
G02*
X1650000Y19765000I150000J0D01*
G01*
X3300000Y19765000D01*
G75*
G02*
X3450000Y19615000I0J-150000D01*
G01*
X3450000Y19315000D01*
G75*
G02*
X3300000Y19165000I-150000J0D01*
G01*
X1650000Y19165000D01*
G75*
G02*
X1500000Y19315000I0J150000D01*
G01*
G37*
G36*
G01*
X1500000Y18045000D02*
X1500000Y18345000D01*
G75*
G02*
X1650000Y18495000I150000J0D01*
G01*
X3300000Y18495000D01*
G75*
G02*
X3450000Y18345000I0J-150000D01*
G01*
X3450000Y18045000D01*
G75*
G02*
X3300000Y17895000I-150000J0D01*
G01*
X1650000Y17895000D01*
G75*
G02*
X1500000Y18045000I0J150000D01*
G01*
G37*
G36*
G01*
X-3450000Y18045000D02*
X-3450000Y18345000D01*
G75*
G02*
X-3300000Y18495000I150000J0D01*
G01*
X-1650000Y18495000D01*
G75*
G02*
X-1500000Y18345000I0J-150000D01*
G01*
X-1500000Y18045000D01*
G75*
G02*
X-1650000Y17895000I-150000J0D01*
G01*
X-3300000Y17895000D01*
G75*
G02*
X-3450000Y18045000I0J150000D01*
G01*
G37*
G36*
G01*
X-3450000Y19315000D02*
X-3450000Y19615000D01*
G75*
G02*
X-3300000Y19765000I150000J0D01*
G01*
X-1650000Y19765000D01*
G75*
G02*
X-1500000Y19615000I0J-150000D01*
G01*
X-1500000Y19315000D01*
G75*
G02*
X-1650000Y19165000I-150000J0D01*
G01*
X-3300000Y19165000D01*
G75*
G02*
X-3450000Y19315000I0J150000D01*
G01*
G37*
G36*
G01*
X-3450000Y20585000D02*
X-3450000Y20885000D01*
G75*
G02*
X-3300000Y21035000I150000J0D01*
G01*
X-1650000Y21035000D01*
G75*
G02*
X-1500000Y20885000I0J-150000D01*
G01*
X-1500000Y20585000D01*
G75*
G02*
X-1650000Y20435000I-150000J0D01*
G01*
X-3300000Y20435000D01*
G75*
G02*
X-3450000Y20585000I0J150000D01*
G01*
G37*
G36*
G01*
X-3450000Y21855000D02*
X-3450000Y22155000D01*
G75*
G02*
X-3300000Y22305000I150000J0D01*
G01*
X-1650000Y22305000D01*
G75*
G02*
X-1500000Y22155000I0J-150000D01*
G01*
X-1500000Y21855000D01*
G75*
G02*
X-1650000Y21705000I-150000J0D01*
G01*
X-3300000Y21705000D01*
G75*
G02*
X-3450000Y21855000I0J150000D01*
G01*
G37*
G04 #@! TD*
D32*
G04 #@! TO.C,U2*
X-18900000Y23950000D03*
X-18900000Y22050000D03*
X-21100000Y22050000D03*
X-21100000Y23000000D03*
X-21100000Y23950000D03*
G04 #@! TD*
G04 #@! TO.C,U3*
G36*
G01*
X-44150000Y3955000D02*
X-44150000Y4255000D01*
G75*
G02*
X-44000000Y4405000I150000J0D01*
G01*
X-42350000Y4405000D01*
G75*
G02*
X-42200000Y4255000I0J-150000D01*
G01*
X-42200000Y3955000D01*
G75*
G02*
X-42350000Y3805000I-150000J0D01*
G01*
X-44000000Y3805000D01*
G75*
G02*
X-44150000Y3955000I0J150000D01*
G01*
G37*
G36*
G01*
X-44150000Y2685000D02*
X-44150000Y2985000D01*
G75*
G02*
X-44000000Y3135000I150000J0D01*
G01*
X-42350000Y3135000D01*
G75*
G02*
X-42200000Y2985000I0J-150000D01*
G01*
X-42200000Y2685000D01*
G75*
G02*
X-42350000Y2535000I-150000J0D01*
G01*
X-44000000Y2535000D01*
G75*
G02*
X-44150000Y2685000I0J150000D01*
G01*
G37*
G36*
G01*
X-44150000Y1415000D02*
X-44150000Y1715000D01*
G75*
G02*
X-44000000Y1865000I150000J0D01*
G01*
X-42350000Y1865000D01*
G75*
G02*
X-42200000Y1715000I0J-150000D01*
G01*
X-42200000Y1415000D01*
G75*
G02*
X-42350000Y1265000I-150000J0D01*
G01*
X-44000000Y1265000D01*
G75*
G02*
X-44150000Y1415000I0J150000D01*
G01*
G37*
G36*
G01*
X-44150000Y145000D02*
X-44150000Y445000D01*
G75*
G02*
X-44000000Y595000I150000J0D01*
G01*
X-42350000Y595000D01*
G75*
G02*
X-42200000Y445000I0J-150000D01*
G01*
X-42200000Y145000D01*
G75*
G02*
X-42350000Y-5000I-150000J0D01*
G01*
X-44000000Y-5000D01*
G75*
G02*
X-44150000Y145000I0J150000D01*
G01*
G37*
G36*
G01*
X-39200000Y145000D02*
X-39200000Y445000D01*
G75*
G02*
X-39050000Y595000I150000J0D01*
G01*
X-37400000Y595000D01*
G75*
G02*
X-37250000Y445000I0J-150000D01*
G01*
X-37250000Y145000D01*
G75*
G02*
X-37400000Y-5000I-150000J0D01*
G01*
X-39050000Y-5000D01*
G75*
G02*
X-39200000Y145000I0J150000D01*
G01*
G37*
G36*
G01*
X-39200000Y1415000D02*
X-39200000Y1715000D01*
G75*
G02*
X-39050000Y1865000I150000J0D01*
G01*
X-37400000Y1865000D01*
G75*
G02*
X-37250000Y1715000I0J-150000D01*
G01*
X-37250000Y1415000D01*
G75*
G02*
X-37400000Y1265000I-150000J0D01*
G01*
X-39050000Y1265000D01*
G75*
G02*
X-39200000Y1415000I0J150000D01*
G01*
G37*
G36*
G01*
X-39200000Y2685000D02*
X-39200000Y2985000D01*
G75*
G02*
X-39050000Y3135000I150000J0D01*
G01*
X-37400000Y3135000D01*
G75*
G02*
X-37250000Y2985000I0J-150000D01*
G01*
X-37250000Y2685000D01*
G75*
G02*
X-37400000Y2535000I-150000J0D01*
G01*
X-39050000Y2535000D01*
G75*
G02*
X-39200000Y2685000I0J150000D01*
G01*
G37*
G36*
G01*
X-39200000Y3955000D02*
X-39200000Y4255000D01*
G75*
G02*
X-39050000Y4405000I150000J0D01*
G01*
X-37400000Y4405000D01*
G75*
G02*
X-37250000Y4255000I0J-150000D01*
G01*
X-37250000Y3955000D01*
G75*
G02*
X-37400000Y3805000I-150000J0D01*
G01*
X-39050000Y3805000D01*
G75*
G02*
X-39200000Y3955000I0J150000D01*
G01*
G37*
G04 #@! TD*
G04 #@! TO.C,U4*
X22700000Y30550000D03*
X22700000Y31500000D03*
X22700000Y32450000D03*
X20500000Y32450000D03*
X20500000Y30550000D03*
G04 #@! TD*
D28*
G04 #@! TO.C,R61*
X-2700000Y-38100000D03*
D27*
X-2700000Y-33100000D03*
G04 #@! TD*
G04 #@! TO.C,R62*
X-8600000Y-33100000D03*
D28*
X-8600000Y-38100000D03*
G04 #@! TD*
G04 #@! TO.C,C49*
G36*
G01*
X-24375000Y33075000D02*
X-24375000Y32125000D01*
G75*
G02*
X-24625000Y31875000I-250000J0D01*
G01*
X-25300000Y31875000D01*
G75*
G02*
X-25550000Y32125000I0J250000D01*
G01*
X-25550000Y33075000D01*
G75*
G02*
X-25300000Y33325000I250000J0D01*
G01*
X-24625000Y33325000D01*
G75*
G02*
X-24375000Y33075000I0J-250000D01*
G01*
G37*
G36*
G01*
X-26450000Y33075000D02*
X-26450000Y32125000D01*
G75*
G02*
X-26700000Y31875000I-250000J0D01*
G01*
X-27375000Y31875000D01*
G75*
G02*
X-27625000Y32125000I0J250000D01*
G01*
X-27625000Y33075000D01*
G75*
G02*
X-27375000Y33325000I250000J0D01*
G01*
X-26700000Y33325000D01*
G75*
G02*
X-26450000Y33075000I0J-250000D01*
G01*
G37*
G04 #@! TD*
M02*
