G04 #@! TF.GenerationSoftware,KiCad,Pcbnew,7.0.10*
G04 #@! TF.CreationDate,2024-02-16T20:24:02-03:30*
G04 #@! TF.ProjectId,tight-distortion,74696768-742d-4646-9973-746f7274696f,rev?*
G04 #@! TF.SameCoordinates,Original*
G04 #@! TF.FileFunction,Profile,NP*
%FSLAX46Y46*%
G04 Gerber Fmt 4.6, Leading zero omitted, Abs format (unit mm)*
G04 Created by KiCad (PCBNEW 7.0.10) date 2024-02-16 20:24:02*
%MOMM*%
%LPD*%
G01*
G04 APERTURE LIST*
G04 #@! TA.AperFunction,Profile*
%ADD10C,0.050000*%
G04 #@! TD*
G04 APERTURE END LIST*
D10*
X24000000Y-39000000D02*
X24000000Y-22000000D01*
X48000000Y43300000D02*
X-48000000Y43300000D01*
X22000000Y-41000000D02*
G75*
G03*
X24000000Y-39000000I0J2000000D01*
G01*
X26000000Y-20000000D02*
G75*
G03*
X24000000Y-22000000I0J-2000000D01*
G01*
X53000000Y-20000000D02*
G75*
G03*
X55000000Y-18000000I0J2000000D01*
G01*
X55000000Y36000000D02*
G75*
G03*
X53000000Y38000000I-2000000J0D01*
G01*
X50000000Y40000000D02*
G75*
G03*
X52000000Y38000000I2000000J0D01*
G01*
X50000000Y41300000D02*
G75*
G03*
X48000000Y43300000I-2000000J0D01*
G01*
X-48000000Y43300000D02*
G75*
G03*
X-50000000Y41300000I-1J-1999999D01*
G01*
X-52000000Y38000000D02*
G75*
G03*
X-50000000Y40000000I1J1999999D01*
G01*
X-53000000Y38000000D02*
G75*
G03*
X-55000000Y36000000I-1J-1999999D01*
G01*
X55000000Y-18000000D02*
X55000000Y36000000D01*
X-50000000Y41300000D02*
X-50000000Y40000000D01*
X-55000000Y36000000D02*
X-55000000Y-18000000D01*
X-24000000Y-22000000D02*
G75*
G03*
X-26000000Y-20000000I-1999999J1D01*
G01*
X53000000Y38000000D02*
X52000000Y38000000D01*
X-24000000Y-39000000D02*
X-24000000Y-22000000D01*
X-52000000Y38000000D02*
X-53000000Y38000000D01*
X-26000000Y-20000000D02*
X-53000000Y-20000000D01*
X-22000000Y-41000000D02*
X22000000Y-41000000D01*
X26000000Y-20000000D02*
X53000000Y-20000000D01*
X-24000000Y-39000000D02*
G75*
G03*
X-22000000Y-41000000I1999999J-1D01*
G01*
X50000000Y40000000D02*
X50000000Y41300000D01*
X-55000000Y-18000000D02*
G75*
G03*
X-53000000Y-20000000I1999999J-1D01*
G01*
M02*
