G04 #@! TF.GenerationSoftware,KiCad,Pcbnew,7.0.10*
G04 #@! TF.CreationDate,2024-02-16T20:24:02-03:30*
G04 #@! TF.ProjectId,tight-distortion,74696768-742d-4646-9973-746f7274696f,rev?*
G04 #@! TF.SameCoordinates,Original*
G04 #@! TF.FileFunction,Soldermask,Top*
G04 #@! TF.FilePolarity,Negative*
%FSLAX46Y46*%
G04 Gerber Fmt 4.6, Leading zero omitted, Abs format (unit mm)*
G04 Created by KiCad (PCBNEW 7.0.10) date 2024-02-16 20:24:02*
%MOMM*%
%LPD*%
G01*
G04 APERTURE LIST*
G04 Aperture macros list*
%AMRoundRect*
0 Rectangle with rounded corners*
0 $1 Rounding radius*
0 $2 $3 $4 $5 $6 $7 $8 $9 X,Y pos of 4 corners*
0 Add a 4 corners polygon primitive as box body*
4,1,4,$2,$3,$4,$5,$6,$7,$8,$9,$2,$3,0*
0 Add four circle primitives for the rounded corners*
1,1,$1+$1,$2,$3*
1,1,$1+$1,$4,$5*
1,1,$1+$1,$6,$7*
1,1,$1+$1,$8,$9*
0 Add four rect primitives between the rounded corners*
20,1,$1+$1,$2,$3,$4,$5,0*
20,1,$1+$1,$4,$5,$6,$7,0*
20,1,$1+$1,$6,$7,$8,$9,0*
20,1,$1+$1,$8,$9,$2,$3,0*%
G04 Aperture macros list end*
%ADD10O,4.000000X1.500000*%
%ADD11O,1.500000X4.000000*%
%ADD12C,2.540000*%
%ADD13O,3.000000X1.400000*%
%ADD14O,1.400000X3.000000*%
%ADD15R,1.700000X1.700000*%
%ADD16O,1.700000X1.700000*%
%ADD17RoundRect,0.237500X0.300000X0.237500X-0.300000X0.237500X-0.300000X-0.237500X0.300000X-0.237500X0*%
%ADD18C,1.600000*%
%ADD19R,1.200000X1.200000*%
%ADD20C,1.200000*%
%ADD21C,1.400000*%
%ADD22O,1.400000X1.400000*%
%ADD23R,1.600000X1.600000*%
%ADD24RoundRect,0.237500X0.237500X-0.300000X0.237500X0.300000X-0.237500X0.300000X-0.237500X-0.300000X0*%
%ADD25RoundRect,0.237500X-0.237500X0.300000X-0.237500X-0.300000X0.237500X-0.300000X0.237500X0.300000X0*%
%ADD26RoundRect,0.250000X-0.337500X-0.475000X0.337500X-0.475000X0.337500X0.475000X-0.337500X0.475000X0*%
%ADD27R,0.900000X1.200000*%
%ADD28R,1.900000X0.800000*%
%ADD29RoundRect,0.237500X-0.237500X0.250000X-0.237500X-0.250000X0.237500X-0.250000X0.237500X0.250000X0*%
%ADD30RoundRect,0.237500X-0.250000X-0.237500X0.250000X-0.237500X0.250000X0.237500X-0.250000X0.237500X0*%
%ADD31RoundRect,0.237500X0.250000X0.237500X-0.250000X0.237500X-0.250000X-0.237500X0.250000X-0.237500X0*%
%ADD32RoundRect,0.237500X0.237500X-0.250000X0.237500X0.250000X-0.237500X0.250000X-0.237500X-0.250000X0*%
%ADD33R,2.000000X2.000000*%
%ADD34C,2.000000*%
%ADD35R,1.060000X0.650000*%
%ADD36RoundRect,0.150000X-0.825000X-0.150000X0.825000X-0.150000X0.825000X0.150000X-0.825000X0.150000X0*%
%ADD37RoundRect,0.237500X-0.300000X-0.237500X0.300000X-0.237500X0.300000X0.237500X-0.300000X0.237500X0*%
%ADD38R,1.560000X0.650000*%
%ADD39R,1.800000X1.800000*%
%ADD40C,1.800000*%
%ADD41O,3.800000X2.400000*%
G04 APERTURE END LIST*
D10*
G04 #@! TO.C,J1*
X0Y29800000D03*
X0Y35800000D03*
D11*
X-4700000Y32800000D03*
G04 #@! TD*
D12*
G04 #@! TO.C,J2*
X-46250000Y23650000D03*
X-46250000Y30000000D03*
X-46250000Y36350000D03*
X-29750000Y23650000D03*
X-29750000Y30000000D03*
X-29750000Y36350000D03*
G04 #@! TD*
G04 #@! TO.C,J3*
X29750000Y23650000D03*
X29750000Y30000000D03*
X29750000Y36350000D03*
X46250000Y23650000D03*
X46250000Y30000000D03*
X46250000Y36350000D03*
G04 #@! TD*
D13*
G04 #@! TO.C,G1*
X50100000Y34500000D03*
D14*
X53400000Y30000000D03*
D13*
X50100000Y25500000D03*
G04 #@! TD*
D15*
G04 #@! TO.C,J4*
X31110000Y-17000000D03*
D16*
X33650000Y-17000000D03*
X36190000Y-17000000D03*
X38730000Y-17000000D03*
X41270000Y-17000000D03*
X43810000Y-17000000D03*
X46350000Y-17000000D03*
X48890000Y-17000000D03*
G04 #@! TD*
D17*
G04 #@! TO.C,C1*
X-30337500Y-8400000D03*
X-32062500Y-8400000D03*
G04 #@! TD*
D18*
G04 #@! TO.C,C4*
X-41650000Y6200000D03*
X-41650000Y1200000D03*
G04 #@! TD*
G04 #@! TO.C,C5*
X-7400000Y-8135000D03*
X-12400000Y-8135000D03*
G04 #@! TD*
D19*
G04 #@! TO.C,C6*
X-44730000Y-11300000D03*
D20*
X-43230000Y-11300000D03*
G04 #@! TD*
D17*
G04 #@! TO.C,C7*
X-22637500Y-2398332D03*
X-24362500Y-2398332D03*
G04 #@! TD*
D18*
G04 #@! TO.C,C8*
X-44850000Y-1800000D03*
X-44850000Y-6800000D03*
G04 #@! TD*
D19*
G04 #@! TO.C,C9*
X-10470000Y-3990000D03*
D20*
X-8970000Y-3990000D03*
G04 #@! TD*
D19*
G04 #@! TO.C,C13*
X-10470000Y4300000D03*
D20*
X-8970000Y4300000D03*
G04 #@! TD*
D17*
G04 #@! TO.C,C14*
X-337500Y-406500D03*
X-2062500Y-406500D03*
G04 #@! TD*
D18*
G04 #@! TO.C,C15*
X15400000Y4900000D03*
X10400000Y4900000D03*
G04 #@! TD*
G04 #@! TO.C,C22*
X15350000Y19700000D03*
X10350000Y19700000D03*
G04 #@! TD*
D21*
G04 #@! TO.C,R1*
X-33700000Y-12600000D03*
D22*
X-28700000Y-12600000D03*
G04 #@! TD*
D18*
G04 #@! TO.C,C37*
X51000000Y-1924998D03*
X46000000Y-1924998D03*
G04 #@! TD*
G04 #@! TO.C,C2*
X-41600000Y-6800000D03*
X-41600000Y-1800000D03*
G04 #@! TD*
D19*
G04 #@! TO.C,C39*
X-18870000Y26100000D03*
D20*
X-17370000Y26100000D03*
G04 #@! TD*
D23*
G04 #@! TO.C,C40*
X7155000Y38799999D03*
D18*
X9655000Y38799999D03*
G04 #@! TD*
D17*
G04 #@! TO.C,C43*
X4662500Y24800000D03*
X2937500Y24800000D03*
G04 #@! TD*
G04 #@! TO.C,C44*
X4662500Y17800000D03*
X2937500Y17800000D03*
G04 #@! TD*
D24*
G04 #@! TO.C,C45*
X-23300000Y19637500D03*
X-23300000Y21362500D03*
G04 #@! TD*
D25*
G04 #@! TO.C,C46*
X-17900000Y22362500D03*
X-17900000Y20637500D03*
G04 #@! TD*
D23*
G04 #@! TO.C,C47*
X-21652651Y38800000D03*
D18*
X-18152651Y38800000D03*
G04 #@! TD*
D26*
G04 #@! TO.C,C48*
X-15737500Y33800000D03*
X-13662500Y33800000D03*
G04 #@! TD*
D27*
G04 #@! TO.C,D1*
X-9550000Y40100000D03*
X-6250000Y40100000D03*
G04 #@! TD*
G04 #@! TO.C,D2*
X-9550000Y37500000D03*
X-6250000Y37500000D03*
G04 #@! TD*
G04 #@! TO.C,D3*
X-14750000Y40100000D03*
X-11450000Y40100000D03*
G04 #@! TD*
G04 #@! TO.C,D4*
X-14750000Y37500000D03*
X-11450000Y37500000D03*
G04 #@! TD*
D16*
G04 #@! TO.C,J5*
X-21420000Y-31760000D03*
D15*
X-21420000Y-34300000D03*
D16*
X-21420000Y-26680000D03*
X-21420000Y-29220000D03*
X21500000Y-26680000D03*
X21500000Y-29220000D03*
X21500000Y-31760000D03*
X21500000Y-34300000D03*
G04 #@! TD*
D28*
G04 #@! TO.C,Q2*
X-15600000Y-3350000D03*
X-15600000Y-1450000D03*
X-18600000Y-2400000D03*
G04 #@! TD*
G04 #@! TO.C,Q3*
X6800000Y550000D03*
X6800000Y2450000D03*
X3800000Y1500000D03*
G04 #@! TD*
G04 #@! TO.C,Q4*
X6800000Y-5350000D03*
X6800000Y-3450000D03*
X3800000Y-4400000D03*
G04 #@! TD*
G04 #@! TO.C,Q7*
X-15300000Y-22850000D03*
X-15300000Y-24750000D03*
X-12300000Y-23800000D03*
G04 #@! TD*
G04 #@! TO.C,Q8*
X-15300000Y-18450000D03*
X-15300000Y-20350000D03*
X-12300000Y-19400000D03*
G04 #@! TD*
G04 #@! TO.C,Q9*
X-9400000Y-22850000D03*
X-9400000Y-24750000D03*
X-6400000Y-23800000D03*
G04 #@! TD*
G04 #@! TO.C,Q10*
X-3500000Y-22850000D03*
X-3500000Y-24750000D03*
X-500000Y-23800000D03*
G04 #@! TD*
G04 #@! TO.C,Q11*
X2500000Y-22850000D03*
X2500000Y-24750000D03*
X5500000Y-23800000D03*
G04 #@! TD*
G04 #@! TO.C,Q12*
X8500000Y-22850000D03*
X8500000Y-24750000D03*
X11500000Y-23800000D03*
G04 #@! TD*
G04 #@! TO.C,Q13*
X14600000Y-22850000D03*
X14600000Y-24750000D03*
X17600000Y-23800000D03*
G04 #@! TD*
D21*
G04 #@! TO.C,R2*
X-28700000Y-10400000D03*
D22*
X-33700000Y-10400000D03*
G04 #@! TD*
D21*
G04 #@! TO.C,R3*
X-21000000Y-12600000D03*
D22*
X-26000000Y-12600000D03*
G04 #@! TD*
D21*
G04 #@! TO.C,R4*
X-26000000Y-8453331D03*
D22*
X-21000000Y-8453331D03*
G04 #@! TD*
D21*
G04 #@! TO.C,R5*
X-21000000Y-10526664D03*
D22*
X-26000000Y-10526664D03*
G04 #@! TD*
D21*
G04 #@! TO.C,R7*
X-21000000Y-6379998D03*
D22*
X-26000000Y-6379998D03*
G04 #@! TD*
D21*
G04 #@! TO.C,R8*
X-26000000Y-4306665D03*
D22*
X-21000000Y-4306665D03*
G04 #@! TD*
D21*
G04 #@! TO.C,R9*
X-52250000Y21100000D03*
D22*
X-52250000Y26100000D03*
G04 #@! TD*
D21*
G04 #@! TO.C,R11*
X-21000000Y3326667D03*
D22*
X-26000000Y3326667D03*
G04 #@! TD*
D18*
G04 #@! TO.C,C3*
X-7400000Y-11500000D03*
X-12400000Y-11500000D03*
G04 #@! TD*
D21*
G04 #@! TO.C,R13*
X1300000Y5400000D03*
D22*
X-3700000Y5400000D03*
G04 #@! TD*
D21*
G04 #@! TO.C,R14*
X-49600000Y21100000D03*
D22*
X-49600000Y26100000D03*
G04 #@! TD*
D21*
G04 #@! TO.C,R15*
X-3700000Y1529000D03*
D22*
X1300000Y1529000D03*
G04 #@! TD*
D21*
G04 #@! TO.C,R16*
X1300000Y-2342000D03*
D22*
X-3700000Y-2342000D03*
G04 #@! TD*
D21*
G04 #@! TO.C,R17*
X-3700000Y-4442500D03*
D22*
X1300000Y-4442500D03*
G04 #@! TD*
D21*
G04 #@! TO.C,R18*
X1300000Y-6543000D03*
D22*
X-3700000Y-6543000D03*
G04 #@! TD*
D21*
G04 #@! TO.C,R19*
X-3700000Y-12514500D03*
D22*
X1300000Y-12514500D03*
G04 #@! TD*
D21*
G04 #@! TO.C,R20*
X-3700000Y-10414000D03*
D22*
X1300000Y-10414000D03*
G04 #@! TD*
D21*
G04 #@! TO.C,R21*
X15400000Y-12500000D03*
D22*
X10400000Y-12500000D03*
G04 #@! TD*
D21*
G04 #@! TO.C,R22*
X10400000Y-15000000D03*
D22*
X15400000Y-15000000D03*
G04 #@! TD*
D21*
G04 #@! TO.C,R26*
X15350000Y17100000D03*
D22*
X10350000Y17100000D03*
G04 #@! TD*
D21*
G04 #@! TO.C,R28*
X-7500000Y17100000D03*
D22*
X-2500000Y17100000D03*
G04 #@! TD*
D21*
G04 #@! TO.C,R29*
X-7500000Y15000000D03*
D22*
X-2500000Y15000000D03*
G04 #@! TD*
D21*
G04 #@! TO.C,R30*
X-7500000Y12900000D03*
D22*
X-2500000Y12900000D03*
G04 #@! TD*
D21*
G04 #@! TO.C,R31*
X24200000Y-4925000D03*
D22*
X19200000Y-4925000D03*
G04 #@! TD*
D29*
G04 #@! TO.C,R48*
X-14200000Y-26687500D03*
X-14200000Y-28512500D03*
G04 #@! TD*
G04 #@! TO.C,R49*
X-9400000Y-26687500D03*
X-9400000Y-28512500D03*
G04 #@! TD*
G04 #@! TO.C,R50*
X-3500000Y-26687500D03*
X-3500000Y-28512500D03*
G04 #@! TD*
G04 #@! TO.C,R52*
X6800000Y-26687500D03*
X6800000Y-28512500D03*
G04 #@! TD*
G04 #@! TO.C,R53*
X8500000Y-26687500D03*
X8500000Y-28512500D03*
G04 #@! TD*
G04 #@! TO.C,R54*
X12900000Y-26687500D03*
X12900000Y-28512500D03*
G04 #@! TD*
G04 #@! TO.C,R55*
X14600000Y-26687500D03*
X14600000Y-28512500D03*
G04 #@! TD*
D30*
G04 #@! TO.C,R56*
X-19212500Y29400000D03*
X-17387500Y29400000D03*
G04 #@! TD*
D31*
G04 #@! TO.C,R57*
X-17387500Y30900000D03*
X-19212500Y30900000D03*
G04 #@! TD*
G04 #@! TO.C,R58*
X-21087500Y30900000D03*
X-22912500Y30900000D03*
G04 #@! TD*
D32*
G04 #@! TO.C,R60*
X14550000Y38887500D03*
X14550000Y40712500D03*
G04 #@! TD*
D33*
G04 #@! TO.C,RV1*
X-40000000Y9300000D03*
D34*
X-45000000Y9300000D03*
X-50000000Y9300000D03*
D33*
X-40000000Y14300000D03*
D34*
X-45000000Y14300000D03*
X-50000000Y14300000D03*
G04 #@! TD*
D35*
G04 #@! TO.C,U4*
X-19500000Y19650000D03*
X-19500000Y20600000D03*
X-19500000Y21550000D03*
X-21700000Y21550000D03*
X-21700000Y19650000D03*
G04 #@! TD*
D21*
G04 #@! TO.C,R32*
X15350000Y22700000D03*
D22*
X10350000Y22700000D03*
G04 #@! TD*
D21*
G04 #@! TO.C,R12*
X-21000000Y5400000D03*
D22*
X-26000000Y5400000D03*
G04 #@! TD*
D21*
G04 #@! TO.C,R6*
X-47500000Y-10200000D03*
D22*
X-52500000Y-10200000D03*
G04 #@! TD*
D18*
G04 #@! TO.C,C36*
X46000000Y-8308330D03*
X51000000Y-8308330D03*
G04 #@! TD*
G04 #@! TO.C,C25*
X-7500000Y26800000D03*
X-2500000Y26800000D03*
G04 #@! TD*
G04 #@! TO.C,C20*
X15400000Y-6974000D03*
X10400000Y-6974000D03*
G04 #@! TD*
D23*
G04 #@! TO.C,C38*
X-25350000Y26100000D03*
D18*
X-22850000Y26100000D03*
G04 #@! TD*
G04 #@! TO.C,C23*
X-7500000Y23200000D03*
X-2500000Y23200000D03*
G04 #@! TD*
G04 #@! TO.C,C11*
X-12400000Y155000D03*
X-7400000Y155000D03*
G04 #@! TD*
D36*
G04 #@! TO.C,U1*
X1325000Y23205000D03*
X1325000Y21935000D03*
X1325000Y20665000D03*
X1325000Y19395000D03*
X6275000Y19395000D03*
X6275000Y20665000D03*
X6275000Y21935000D03*
X6275000Y23205000D03*
G04 #@! TD*
D15*
G04 #@! TO.C,SW2*
X-46350000Y-17000000D03*
D16*
X-43810000Y-17000000D03*
X-41270000Y-17000000D03*
X-38730000Y-17000000D03*
X-36190000Y-17000000D03*
X-33650000Y-17000000D03*
G04 #@! TD*
D33*
G04 #@! TO.C,RV5*
X50000000Y9500000D03*
D34*
X45000000Y9500000D03*
X40000000Y9500000D03*
G04 #@! TD*
D33*
G04 #@! TO.C,RV4*
X-17500000Y9500000D03*
D34*
X-22500000Y9500000D03*
X-27500000Y9500000D03*
G04 #@! TD*
D33*
G04 #@! TO.C,RV3*
X5000000Y9500000D03*
D34*
X0Y9500000D03*
X-5000000Y9500000D03*
G04 #@! TD*
D33*
G04 #@! TO.C,RV2*
X27500000Y9500000D03*
D34*
X22500000Y9500000D03*
X17500000Y9500000D03*
G04 #@! TD*
D29*
G04 #@! TO.C,R51*
X2500000Y-26687500D03*
X2500000Y-28512500D03*
G04 #@! TD*
D21*
G04 #@! TO.C,R10*
X-26000000Y-489999D03*
D22*
X-21000000Y-489999D03*
G04 #@! TD*
D18*
G04 #@! TO.C,C21*
X19200000Y-1950000D03*
X24200000Y-1950000D03*
G04 #@! TD*
D21*
G04 #@! TO.C,R61*
X19200000Y-12500000D03*
D22*
X24200000Y-12500000D03*
G04 #@! TD*
D21*
G04 #@! TO.C,R62*
X-52500000Y-12400000D03*
D22*
X-47500000Y-12400000D03*
G04 #@! TD*
D17*
G04 #@! TO.C,C10*
X-22637500Y1418334D03*
X-24362500Y1418334D03*
G04 #@! TD*
D28*
G04 #@! TO.C,Q1*
X-15500000Y-9750000D03*
X-15500000Y-7850000D03*
X-18500000Y-8800000D03*
G04 #@! TD*
D37*
G04 #@! TO.C,C12*
X-2062500Y3464500D03*
X-337500Y3464500D03*
G04 #@! TD*
G04 #@! TO.C,C16*
X-2062500Y-8478500D03*
X-337500Y-8478500D03*
G04 #@! TD*
D29*
G04 #@! TO.C,R59*
X12900000Y40712500D03*
X12900000Y38887500D03*
G04 #@! TD*
D38*
G04 #@! TO.C,Q6*
X20300000Y28300000D03*
X20300000Y27350000D03*
X20300000Y26400000D03*
X23000000Y26400000D03*
X23000000Y27350000D03*
X23000000Y28300000D03*
G04 #@! TD*
D28*
G04 #@! TO.C,Q5*
X6800000Y-11250000D03*
X6800000Y-9350000D03*
X3800000Y-10300000D03*
G04 #@! TD*
D18*
G04 #@! TO.C,C35*
X46000000Y-11500000D03*
X51000000Y-11500000D03*
G04 #@! TD*
G04 #@! TO.C,C34*
X46000000Y-5116664D03*
X51000000Y-5116664D03*
G04 #@! TD*
D37*
G04 #@! TO.C,C28*
X20787500Y30000000D03*
X22512500Y30000000D03*
G04 #@! TD*
G04 #@! TO.C,C32*
X38337500Y3320000D03*
X40062500Y3320000D03*
G04 #@! TD*
D18*
G04 #@! TO.C,C31*
X24200000Y23200000D03*
X19200000Y23200000D03*
G04 #@! TD*
G04 #@! TO.C,C27*
X19200000Y4900000D03*
X24200000Y4900000D03*
G04 #@! TD*
G04 #@! TO.C,C29*
X24200000Y19700000D03*
X19200000Y19700000D03*
G04 #@! TD*
D17*
G04 #@! TO.C,C42*
X31462500Y-5600000D03*
X29737500Y-5600000D03*
G04 #@! TD*
D18*
G04 #@! TO.C,C30*
X24200000Y16300000D03*
X19200000Y16300000D03*
G04 #@! TD*
D17*
G04 #@! TO.C,C41*
X31462500Y1400000D03*
X29737500Y1400000D03*
G04 #@! TD*
D37*
G04 #@! TO.C,C33*
X38337500Y-840000D03*
X40062500Y-840000D03*
G04 #@! TD*
D36*
G04 #@! TO.C,U3*
X28125000Y-195000D03*
X28125000Y-1465000D03*
X28125000Y-2735000D03*
X28125000Y-4005000D03*
X33075000Y-4005000D03*
X33075000Y-2735000D03*
X33075000Y-1465000D03*
X33075000Y-195000D03*
G04 #@! TD*
D21*
G04 #@! TO.C,R44*
X46000000Y816668D03*
D22*
X51000000Y816668D03*
G04 #@! TD*
D21*
G04 #@! TO.C,R42*
X41700000Y-5165000D03*
D22*
X36700000Y-5165000D03*
G04 #@! TD*
D21*
G04 #@! TO.C,R40*
X41700000Y-2920000D03*
D22*
X36700000Y-2920000D03*
G04 #@! TD*
D21*
G04 #@! TO.C,R41*
X46000000Y5400000D03*
D22*
X51000000Y5400000D03*
G04 #@! TD*
D32*
G04 #@! TO.C,R47*
X-12300000Y-28512500D03*
X-12300000Y-26687500D03*
G04 #@! TD*
D21*
G04 #@! TO.C,R37*
X36700000Y5400000D03*
D22*
X41700000Y5400000D03*
G04 #@! TD*
D21*
G04 #@! TO.C,R33*
X10350000Y29562500D03*
D22*
X15350000Y29562500D03*
G04 #@! TD*
D21*
G04 #@! TO.C,R34*
X10350000Y24987500D03*
D22*
X15350000Y24987500D03*
G04 #@! TD*
D21*
G04 #@! TO.C,R39*
X46000000Y3108334D03*
D22*
X51000000Y3108334D03*
G04 #@! TD*
D21*
G04 #@! TO.C,R36*
X15350000Y27275000D03*
D22*
X10350000Y27275000D03*
G04 #@! TD*
D21*
G04 #@! TO.C,R45*
X41700000Y-9655000D03*
D22*
X36700000Y-9655000D03*
G04 #@! TD*
D21*
G04 #@! TO.C,R46*
X41700000Y-11900000D03*
D22*
X36700000Y-11900000D03*
G04 #@! TD*
D21*
G04 #@! TO.C,R38*
X36700000Y1240000D03*
D22*
X41700000Y1240000D03*
G04 #@! TD*
D21*
G04 #@! TO.C,R35*
X10350000Y31850000D03*
D22*
X15350000Y31850000D03*
G04 #@! TD*
D21*
G04 #@! TO.C,R43*
X41700000Y-7410000D03*
D22*
X36700000Y-7410000D03*
G04 #@! TD*
D21*
G04 #@! TO.C,R24*
X19200000Y-9975000D03*
D22*
X24200000Y-9975000D03*
G04 #@! TD*
D21*
G04 #@! TO.C,R23*
X10400000Y-9962000D03*
D22*
X15400000Y-9962000D03*
G04 #@! TD*
D21*
G04 #@! TO.C,R27*
X10350000Y15000000D03*
D22*
X15350000Y15000000D03*
G04 #@! TD*
D21*
G04 #@! TO.C,R25*
X24200000Y-7450000D03*
D22*
X19200000Y-7450000D03*
G04 #@! TD*
D19*
G04 #@! TO.C,C17*
X12330000Y682000D03*
D20*
X13830000Y682000D03*
G04 #@! TD*
D18*
G04 #@! TO.C,C19*
X15400000Y-3536000D03*
X10400000Y-3536000D03*
G04 #@! TD*
D17*
G04 #@! TO.C,C18*
X-337500Y-14300000D03*
X-2062500Y-14300000D03*
G04 #@! TD*
D18*
G04 #@! TO.C,C26*
X19200000Y1475000D03*
X24200000Y1475000D03*
G04 #@! TD*
G04 #@! TO.C,C24*
X-7500000Y19700000D03*
X-2500000Y19700000D03*
G04 #@! TD*
D21*
G04 #@! TO.C,R63*
X-52500000Y-14600000D03*
D22*
X-47500000Y-14600000D03*
G04 #@! TD*
D39*
G04 #@! TO.C,D5*
X21230000Y-17450000D03*
D40*
X23770000Y-17450000D03*
G04 #@! TD*
D41*
G04 #@! TO.C,SW1*
X-36150000Y-4700000D03*
X-36150000Y0D03*
X-36150000Y4700000D03*
X-31350000Y-4700000D03*
X-31350000Y0D03*
X-31350000Y4700000D03*
G04 #@! TD*
G04 #@! TO.C,SW3*
X-50000000Y-4700000D03*
X-50000000Y0D03*
X-50000000Y4700000D03*
G04 #@! TD*
D39*
G04 #@! TO.C,D6*
X-25040000Y-17500000D03*
D40*
X-22500000Y-17500000D03*
X-19960000Y-17500000D03*
G04 #@! TD*
M02*
