G04 #@! TF.GenerationSoftware,KiCad,Pcbnew,(5.1.10)-1*
G04 #@! TF.CreationDate,2023-12-11T13:30:18-03:30*
G04 #@! TF.ProjectId,tight-distortion,74696768-742d-4646-9973-746f7274696f,rev?*
G04 #@! TF.SameCoordinates,Original*
G04 #@! TF.FileFunction,Soldermask,Bot*
G04 #@! TF.FilePolarity,Negative*
%FSLAX46Y46*%
G04 Gerber Fmt 4.6, Leading zero omitted, Abs format (unit mm)*
G04 Created by KiCad (PCBNEW (5.1.10)-1) date 2023-12-11 13:30:18*
%MOMM*%
%LPD*%
G01*
G04 APERTURE LIST*
%ADD10R,1.700000X1.700000*%
%ADD11O,1.700000X1.700000*%
%ADD12O,3.000000X1.400000*%
%ADD13O,1.400000X3.000000*%
%ADD14O,4.000000X1.500000*%
%ADD15O,1.500000X4.000000*%
%ADD16C,2.540000*%
%ADD17C,1.500000*%
%ADD18C,1.600000*%
%ADD19C,1.200000*%
%ADD20R,1.200000X1.200000*%
%ADD21R,1.600000X1.600000*%
%ADD22R,1.800000X1.800000*%
%ADD23C,1.800000*%
%ADD24C,1.400000*%
%ADD25O,1.400000X1.400000*%
%ADD26C,2.000000*%
%ADD27R,2.000000X2.000000*%
%ADD28O,3.800000X2.400000*%
G04 APERTURE END LIST*
D10*
G04 #@! TO.C,J4*
X-21460000Y-34310000D03*
D11*
X-21460000Y-29230000D03*
X-21460000Y-26690000D03*
X-21460000Y-31770000D03*
X21460000Y-31770000D03*
X21460000Y-26690000D03*
X21460000Y-29230000D03*
X21460000Y-34310000D03*
G04 #@! TD*
D12*
G04 #@! TO.C,G1*
X50100000Y34500000D03*
X50100000Y25500000D03*
D13*
X53400000Y30000000D03*
G04 #@! TD*
D14*
G04 #@! TO.C,J1*
X0Y29800000D03*
X0Y35800000D03*
D15*
X-4700000Y32800000D03*
G04 #@! TD*
D16*
G04 #@! TO.C,J2*
X-46250000Y36350000D03*
X-46250000Y30000000D03*
X-46250000Y23650000D03*
X-29750000Y36350000D03*
X-29750000Y30000000D03*
X-29750000Y23650000D03*
G04 #@! TD*
G04 #@! TO.C,J3*
X46250000Y23650000D03*
X46250000Y30000000D03*
X46250000Y36350000D03*
X29750000Y23650000D03*
X29750000Y30000000D03*
X29750000Y36350000D03*
G04 #@! TD*
D17*
G04 #@! TO.C,C1*
X11150000Y5700000D03*
X13650000Y5700000D03*
G04 #@! TD*
D18*
G04 #@! TO.C,C2*
X44400000Y900000D03*
X44400000Y5900000D03*
G04 #@! TD*
G04 #@! TO.C,C3*
X9900000Y2300000D03*
X14900000Y2300000D03*
G04 #@! TD*
G04 #@! TO.C,C4*
X26000000Y5900000D03*
X26000000Y900000D03*
G04 #@! TD*
G04 #@! TO.C,C5*
X9900000Y-6000000D03*
X14900000Y-6000000D03*
G04 #@! TD*
D19*
G04 #@! TO.C,C6*
X45150000Y-4100000D03*
D20*
X43650000Y-4100000D03*
G04 #@! TD*
D17*
G04 #@! TO.C,C7*
X11150000Y-9100000D03*
X13650000Y-9100000D03*
G04 #@! TD*
D18*
G04 #@! TO.C,C8*
X26000000Y-2100000D03*
X26000000Y-7100000D03*
G04 #@! TD*
D20*
G04 #@! TO.C,C9*
X20750000Y-12100000D03*
D19*
X19250000Y-12100000D03*
G04 #@! TD*
D17*
G04 #@! TO.C,C10*
X18750000Y-8300000D03*
X21250000Y-8300000D03*
G04 #@! TD*
D18*
G04 #@! TO.C,C11*
X-1500000Y5700000D03*
X-6500000Y5700000D03*
G04 #@! TD*
D20*
G04 #@! TO.C,C12*
X-1800000Y-5750000D03*
D19*
X-1800000Y-7250000D03*
G04 #@! TD*
D17*
G04 #@! TO.C,C13*
X-2650000Y2300000D03*
X-5150000Y2300000D03*
G04 #@! TD*
D18*
G04 #@! TO.C,C14*
X-1400000Y-10400000D03*
X-6400000Y-10400000D03*
G04 #@! TD*
D20*
G04 #@! TO.C,C15*
X-6300000Y-5750000D03*
D19*
X-6300000Y-7250000D03*
G04 #@! TD*
D17*
G04 #@! TO.C,C16*
X-10750000Y-17900000D03*
X-13250000Y-17900000D03*
G04 #@! TD*
D18*
G04 #@! TO.C,C17*
X-17900000Y5700000D03*
X-22900000Y5700000D03*
G04 #@! TD*
G04 #@! TO.C,C18*
X-22900000Y2300000D03*
X-17900000Y2300000D03*
G04 #@! TD*
D17*
G04 #@! TO.C,C19*
X-19250000Y-5500000D03*
X-21750000Y-5500000D03*
G04 #@! TD*
D18*
G04 #@! TO.C,C20*
X11900000Y14200000D03*
X6900000Y14200000D03*
G04 #@! TD*
G04 #@! TO.C,C21*
X6900000Y17400000D03*
X11900000Y17400000D03*
G04 #@! TD*
G04 #@! TO.C,C22*
X-7500000Y14200000D03*
X-12500000Y14200000D03*
G04 #@! TD*
G04 #@! TO.C,C23*
X-12600000Y17400000D03*
X-7600000Y17400000D03*
G04 #@! TD*
G04 #@! TO.C,C24*
X-17600000Y14200000D03*
X-22600000Y14200000D03*
G04 #@! TD*
G04 #@! TO.C,C25*
X-22600000Y17400000D03*
X-17600000Y17400000D03*
G04 #@! TD*
D17*
G04 #@! TO.C,C26*
X-27050000Y-3900000D03*
X-29550000Y-3900000D03*
G04 #@! TD*
D18*
G04 #@! TO.C,C27*
X-18000000Y-8800000D03*
X-23000000Y-8800000D03*
G04 #@! TD*
D17*
G04 #@! TO.C,C28*
X-21650000Y-11900000D03*
X-19150000Y-11900000D03*
G04 #@! TD*
D18*
G04 #@! TO.C,C29*
X-43100000Y-4800000D03*
X-38100000Y-4800000D03*
G04 #@! TD*
G04 #@! TO.C,C30*
X-38100000Y-8100000D03*
X-43100000Y-8100000D03*
G04 #@! TD*
G04 #@! TO.C,C31*
X-43100000Y-19500000D03*
X-38100000Y-19500000D03*
G04 #@! TD*
D17*
G04 #@! TO.C,C32*
X-38100000Y-10950000D03*
X-38100000Y-13450000D03*
G04 #@! TD*
G04 #@! TO.C,C33*
X-43000000Y-13450000D03*
X-43000000Y-10950000D03*
G04 #@! TD*
D18*
G04 #@! TO.C,C34*
X-43100000Y-16200000D03*
X-38100000Y-16200000D03*
G04 #@! TD*
D17*
G04 #@! TO.C,C35*
X-50850000Y5900000D03*
X-48350000Y5900000D03*
G04 #@! TD*
D18*
G04 #@! TO.C,C36*
X-43100000Y12900000D03*
X-38100000Y12900000D03*
G04 #@! TD*
D21*
G04 #@! TO.C,C37*
X-19900000Y38000000D03*
D18*
X-23400000Y38000000D03*
G04 #@! TD*
D21*
G04 #@! TO.C,C38*
X12950000Y38000000D03*
D18*
X15450000Y38000000D03*
G04 #@! TD*
D19*
G04 #@! TO.C,C39*
X14950000Y31600000D03*
D20*
X13450000Y31600000D03*
G04 #@! TD*
D18*
G04 #@! TO.C,C40*
X-35500000Y-34250000D03*
D21*
X-35500000Y-36750000D03*
G04 #@! TD*
D22*
G04 #@! TO.C,D5*
X-45050000Y-31270000D03*
D23*
X-45050000Y-28730000D03*
G04 #@! TD*
D11*
G04 #@! TO.C,J5*
X38730000Y-17500000D03*
X43810000Y-17500000D03*
X46350000Y-17500000D03*
X36190000Y-17500000D03*
X41270000Y-17500000D03*
X48890000Y-17500000D03*
D10*
X31110000Y-17500000D03*
D11*
X33650000Y-17500000D03*
G04 #@! TD*
D24*
G04 #@! TO.C,R1*
X7000000Y5700000D03*
D25*
X2000000Y5700000D03*
G04 #@! TD*
D24*
G04 #@! TO.C,R2*
X2000000Y3200000D03*
D25*
X7000000Y3200000D03*
G04 #@! TD*
D24*
G04 #@! TO.C,R3*
X2000000Y800000D03*
D25*
X7000000Y800000D03*
G04 #@! TD*
G04 #@! TO.C,R4*
X7000000Y-3900000D03*
D24*
X2000000Y-3900000D03*
G04 #@! TD*
D25*
G04 #@! TO.C,R5*
X2000000Y-1500000D03*
D24*
X7000000Y-1500000D03*
G04 #@! TD*
G04 #@! TO.C,R6*
X7000000Y-6200000D03*
D25*
X2000000Y-6200000D03*
G04 #@! TD*
G04 #@! TO.C,R7*
X7000000Y-8500000D03*
D24*
X2000000Y-8500000D03*
G04 #@! TD*
D25*
G04 #@! TO.C,R8*
X52750000Y22450000D03*
D24*
X52750000Y17450000D03*
G04 #@! TD*
D25*
G04 #@! TO.C,R9*
X7000000Y-10800000D03*
D24*
X2000000Y-10800000D03*
G04 #@! TD*
G04 #@! TO.C,R10*
X2000000Y-15400000D03*
D25*
X7000000Y-15400000D03*
G04 #@! TD*
D24*
G04 #@! TO.C,R11*
X7000000Y-13100000D03*
D25*
X2000000Y-13100000D03*
G04 #@! TD*
G04 #@! TO.C,R12*
X-14600000Y5700000D03*
D24*
X-9600000Y5700000D03*
G04 #@! TD*
G04 #@! TO.C,R13*
X-14600000Y3200000D03*
D25*
X-9600000Y3200000D03*
G04 #@! TD*
D24*
G04 #@! TO.C,R14*
X50500000Y17450000D03*
D25*
X50500000Y22450000D03*
G04 #@! TD*
D24*
G04 #@! TO.C,R15*
X-14600000Y800000D03*
D25*
X-9600000Y800000D03*
G04 #@! TD*
G04 #@! TO.C,R16*
X-9600000Y-3900000D03*
D24*
X-14600000Y-3900000D03*
G04 #@! TD*
D25*
G04 #@! TO.C,R17*
X-14600000Y-1500000D03*
D24*
X-9600000Y-1500000D03*
G04 #@! TD*
G04 #@! TO.C,R18*
X-9600000Y-6200000D03*
D25*
X-14600000Y-6200000D03*
G04 #@! TD*
D24*
G04 #@! TO.C,R19*
X-14600000Y-8500000D03*
D25*
X-9600000Y-8500000D03*
G04 #@! TD*
G04 #@! TO.C,R20*
X-9600000Y-10800000D03*
D24*
X-14600000Y-10800000D03*
G04 #@! TD*
D25*
G04 #@! TO.C,R21*
X-9600000Y-15400000D03*
D24*
X-14600000Y-15400000D03*
G04 #@! TD*
D25*
G04 #@! TO.C,R22*
X-14600000Y-13100000D03*
D24*
X-9600000Y-13100000D03*
G04 #@! TD*
G04 #@! TO.C,R23*
X-30800000Y5700000D03*
D25*
X-25800000Y5700000D03*
G04 #@! TD*
G04 #@! TO.C,R24*
X-30800000Y3200000D03*
D24*
X-25800000Y3200000D03*
G04 #@! TD*
G04 #@! TO.C,R25*
X-25800000Y800000D03*
D25*
X-30800000Y800000D03*
G04 #@! TD*
G04 #@! TO.C,R26*
X7000000Y20500000D03*
D24*
X12000000Y20500000D03*
G04 #@! TD*
G04 #@! TO.C,R27*
X-30700000Y-6200000D03*
D25*
X-25700000Y-6200000D03*
G04 #@! TD*
D24*
G04 #@! TO.C,R28*
X7000000Y22900000D03*
D25*
X12000000Y22900000D03*
G04 #@! TD*
G04 #@! TO.C,R29*
X-7600000Y20500000D03*
D24*
X-12600000Y20500000D03*
G04 #@! TD*
G04 #@! TO.C,R30*
X-7600000Y22900000D03*
D25*
X-12600000Y22900000D03*
G04 #@! TD*
G04 #@! TO.C,R31*
X-12600000Y25300000D03*
D24*
X-7600000Y25300000D03*
G04 #@! TD*
G04 #@! TO.C,R32*
X-12600000Y27600000D03*
D25*
X-7600000Y27600000D03*
G04 #@! TD*
G04 #@! TO.C,R33*
X-30800000Y-1500000D03*
D24*
X-25800000Y-1500000D03*
G04 #@! TD*
D25*
G04 #@! TO.C,R34*
X-30700000Y-13100000D03*
D24*
X-25700000Y-13100000D03*
G04 #@! TD*
D25*
G04 #@! TO.C,R35*
X-25700000Y-15400000D03*
D24*
X-30700000Y-15400000D03*
G04 #@! TD*
G04 #@! TO.C,R36*
X-30700000Y-8500000D03*
D25*
X-25700000Y-8500000D03*
G04 #@! TD*
G04 #@! TO.C,R37*
X-25700000Y-10700000D03*
D24*
X-30700000Y-10700000D03*
G04 #@! TD*
D25*
G04 #@! TO.C,R38*
X-30700000Y-17600000D03*
D24*
X-25700000Y-17600000D03*
G04 #@! TD*
D25*
G04 #@! TO.C,R39*
X-52100000Y-3900000D03*
D24*
X-47100000Y-3900000D03*
G04 #@! TD*
G04 #@! TO.C,R40*
X-47100000Y-6200000D03*
D25*
X-52100000Y-6200000D03*
G04 #@! TD*
D24*
G04 #@! TO.C,R41*
X-47100000Y-15400000D03*
D25*
X-52100000Y-15400000D03*
G04 #@! TD*
D24*
G04 #@! TO.C,R42*
X-52100000Y-13100000D03*
D25*
X-47100000Y-13100000D03*
G04 #@! TD*
G04 #@! TO.C,R43*
X-47100000Y-8500000D03*
D24*
X-52100000Y-8500000D03*
G04 #@! TD*
G04 #@! TO.C,R44*
X-52100000Y800000D03*
D25*
X-47100000Y800000D03*
G04 #@! TD*
G04 #@! TO.C,R45*
X-47100000Y-1500000D03*
D24*
X-52100000Y-1500000D03*
G04 #@! TD*
G04 #@! TO.C,R46*
X-52100000Y3300000D03*
D25*
X-47100000Y3300000D03*
G04 #@! TD*
G04 #@! TO.C,R47*
X-52100000Y-10700000D03*
D24*
X-47100000Y-10700000D03*
G04 #@! TD*
D25*
G04 #@! TO.C,R48*
X-14700000Y-33100000D03*
D24*
X-14700000Y-38100000D03*
G04 #@! TD*
G04 #@! TO.C,R49*
X-12200000Y-33100000D03*
D25*
X-12200000Y-38100000D03*
G04 #@! TD*
D24*
G04 #@! TO.C,R50*
X16900000Y-33100000D03*
D25*
X16900000Y-38100000D03*
G04 #@! TD*
G04 #@! TO.C,R51*
X11100000Y-38100000D03*
D24*
X11100000Y-33100000D03*
G04 #@! TD*
G04 #@! TO.C,R52*
X5300000Y-33100000D03*
D25*
X5300000Y-38100000D03*
G04 #@! TD*
G04 #@! TO.C,R53*
X-500000Y-38100000D03*
D24*
X-500000Y-33100000D03*
G04 #@! TD*
G04 #@! TO.C,R54*
X-6300000Y-33100000D03*
D25*
X-6300000Y-38100000D03*
G04 #@! TD*
D24*
G04 #@! TO.C,R55*
X19100000Y40500000D03*
D25*
X19100000Y35500000D03*
G04 #@! TD*
D24*
G04 #@! TO.C,R56*
X21600000Y35500000D03*
D25*
X21600000Y40500000D03*
G04 #@! TD*
G04 #@! TO.C,R57*
X24100000Y35500000D03*
D24*
X24100000Y40500000D03*
G04 #@! TD*
G04 #@! TO.C,R58*
X-30100000Y-38100000D03*
D25*
X-30100000Y-33100000D03*
G04 #@! TD*
G04 #@! TO.C,R59*
X-27300000Y-38100000D03*
D24*
X-27300000Y-33100000D03*
G04 #@! TD*
D25*
G04 #@! TO.C,R60*
X46300000Y-13600000D03*
D24*
X51300000Y-13600000D03*
G04 #@! TD*
D26*
G04 #@! TO.C,RV1*
X40000000Y9500000D03*
X45000000Y9500000D03*
D27*
X50000000Y9500000D03*
D26*
X45000000Y13500000D03*
D27*
X50000000Y13500000D03*
D26*
X40000000Y13500000D03*
G04 #@! TD*
D27*
G04 #@! TO.C,RV2*
X27500000Y9500000D03*
D26*
X22500000Y9500000D03*
X17500000Y9500000D03*
G04 #@! TD*
G04 #@! TO.C,RV3*
X-5000000Y9500000D03*
X0Y9500000D03*
D27*
X5000000Y9500000D03*
G04 #@! TD*
G04 #@! TO.C,RV4*
X-17500000Y9500000D03*
D26*
X-22500000Y9500000D03*
X-27500000Y9500000D03*
G04 #@! TD*
G04 #@! TO.C,RV5*
X-50000000Y9500000D03*
X-45000000Y9500000D03*
D27*
X-40000000Y9500000D03*
G04 #@! TD*
D28*
G04 #@! TO.C,SW1*
X32600000Y4700000D03*
X32600000Y0D03*
X32600000Y-4700000D03*
X37400000Y4700000D03*
X37400000Y0D03*
X37400000Y-4700000D03*
G04 #@! TD*
G04 #@! TO.C,SW2*
X50000000Y4700000D03*
X50000000Y0D03*
X50000000Y-4700000D03*
G04 #@! TD*
G04 #@! TO.C,SW3*
X20000000Y-4700000D03*
X20000000Y0D03*
X20000000Y4700000D03*
G04 #@! TD*
D25*
G04 #@! TO.C,R61*
X-2700000Y-38100000D03*
D24*
X-2700000Y-33100000D03*
G04 #@! TD*
G04 #@! TO.C,R62*
X-8600000Y-33100000D03*
D25*
X-8600000Y-38100000D03*
G04 #@! TD*
M02*
