G04 #@! TF.GenerationSoftware,KiCad,Pcbnew,(5.1.10)-1*
G04 #@! TF.CreationDate,2023-12-11T13:30:18-03:30*
G04 #@! TF.ProjectId,tight-distortion,74696768-742d-4646-9973-746f7274696f,rev?*
G04 #@! TF.SameCoordinates,Original*
G04 #@! TF.FileFunction,Copper,L4,Bot*
G04 #@! TF.FilePolarity,Positive*
%FSLAX46Y46*%
G04 Gerber Fmt 4.6, Leading zero omitted, Abs format (unit mm)*
G04 Created by KiCad (PCBNEW (5.1.10)-1) date 2023-12-11 13:30:18*
%MOMM*%
%LPD*%
G01*
G04 APERTURE LIST*
G04 #@! TA.AperFunction,ComponentPad*
%ADD10R,1.700000X1.700000*%
G04 #@! TD*
G04 #@! TA.AperFunction,ComponentPad*
%ADD11O,1.700000X1.700000*%
G04 #@! TD*
G04 #@! TA.AperFunction,ComponentPad*
%ADD12O,3.000000X1.400000*%
G04 #@! TD*
G04 #@! TA.AperFunction,ComponentPad*
%ADD13O,1.400000X3.000000*%
G04 #@! TD*
G04 #@! TA.AperFunction,ComponentPad*
%ADD14O,4.000000X1.500000*%
G04 #@! TD*
G04 #@! TA.AperFunction,ComponentPad*
%ADD15O,1.500000X4.000000*%
G04 #@! TD*
G04 #@! TA.AperFunction,ComponentPad*
%ADD16C,2.540000*%
G04 #@! TD*
G04 #@! TA.AperFunction,ComponentPad*
%ADD17C,1.500000*%
G04 #@! TD*
G04 #@! TA.AperFunction,ComponentPad*
%ADD18C,1.600000*%
G04 #@! TD*
G04 #@! TA.AperFunction,ComponentPad*
%ADD19C,1.200000*%
G04 #@! TD*
G04 #@! TA.AperFunction,ComponentPad*
%ADD20R,1.200000X1.200000*%
G04 #@! TD*
G04 #@! TA.AperFunction,ComponentPad*
%ADD21R,1.600000X1.600000*%
G04 #@! TD*
G04 #@! TA.AperFunction,ComponentPad*
%ADD22R,1.800000X1.800000*%
G04 #@! TD*
G04 #@! TA.AperFunction,ComponentPad*
%ADD23C,1.800000*%
G04 #@! TD*
G04 #@! TA.AperFunction,ComponentPad*
%ADD24C,1.400000*%
G04 #@! TD*
G04 #@! TA.AperFunction,ComponentPad*
%ADD25O,1.400000X1.400000*%
G04 #@! TD*
G04 #@! TA.AperFunction,ComponentPad*
%ADD26C,2.000000*%
G04 #@! TD*
G04 #@! TA.AperFunction,ComponentPad*
%ADD27R,2.000000X2.000000*%
G04 #@! TD*
G04 #@! TA.AperFunction,ComponentPad*
%ADD28O,3.800000X2.400000*%
G04 #@! TD*
G04 #@! TA.AperFunction,ViaPad*
%ADD29C,0.800000*%
G04 #@! TD*
G04 #@! TA.AperFunction,Conductor*
%ADD30C,1.500000*%
G04 #@! TD*
G04 #@! TA.AperFunction,Conductor*
%ADD31C,0.250000*%
G04 #@! TD*
G04 #@! TA.AperFunction,Conductor*
%ADD32C,0.500000*%
G04 #@! TD*
G04 APERTURE END LIST*
D10*
G04 #@! TO.P,J4,1*
G04 #@! TO.N,Earth*
X-21460000Y-34310000D03*
D11*
G04 #@! TO.P,J4,4*
G04 #@! TO.N,Net-(C37-Pad1)*
X-21460000Y-29230000D03*
X-21460000Y-26690000D03*
G04 #@! TO.P,J4,1*
G04 #@! TO.N,Earth*
X-21460000Y-31770000D03*
G04 #@! TO.P,J4,8*
G04 #@! TO.N,-15V*
X21460000Y-31770000D03*
G04 #@! TO.P,J4,5*
G04 #@! TO.N,+15V*
X21460000Y-26690000D03*
X21460000Y-29230000D03*
G04 #@! TO.P,J4,8*
G04 #@! TO.N,-15V*
X21460000Y-34310000D03*
G04 #@! TD*
D12*
G04 #@! TO.P,G1,1*
G04 #@! TO.N,Earth*
X50100000Y34500000D03*
X50100000Y25500000D03*
D13*
X53400000Y30000000D03*
G04 #@! TD*
D14*
G04 #@! TO.P,J1,1*
G04 #@! TO.N,Net-(D2-Pad1)*
X0Y29800000D03*
G04 #@! TO.P,J1,2*
G04 #@! TO.N,Net-(D1-Pad1)*
X0Y35800000D03*
D15*
G04 #@! TO.P,J1,3*
G04 #@! TO.N,Net-(J1-Pad3)*
X-4700000Y32800000D03*
G04 #@! TD*
D16*
G04 #@! TO.P,J2,3*
G04 #@! TO.N,Earth*
X-46250000Y36350000D03*
G04 #@! TO.P,J2,2*
X-46250000Y30000000D03*
G04 #@! TO.P,J2,1*
G04 #@! TO.N,/input_jack*
X-46250000Y23650000D03*
G04 #@! TO.P,J2,6*
G04 #@! TO.N,Earth*
X-29750000Y36350000D03*
G04 #@! TO.P,J2,5*
X-29750000Y30000000D03*
G04 #@! TO.P,J2,4*
X-29750000Y23650000D03*
G04 #@! TD*
G04 #@! TO.P,J3,4*
G04 #@! TO.N,Earth*
X46250000Y23650000D03*
G04 #@! TO.P,J3,5*
X46250000Y30000000D03*
G04 #@! TO.P,J3,6*
X46250000Y36350000D03*
G04 #@! TO.P,J3,1*
G04 #@! TO.N,/output_jack*
X29750000Y23650000D03*
G04 #@! TO.P,J3,2*
G04 #@! TO.N,Earth*
X29750000Y30000000D03*
G04 #@! TO.P,J3,3*
X29750000Y36350000D03*
G04 #@! TD*
D17*
G04 #@! TO.P,C1,1*
G04 #@! TO.N,Net-(C1-Pad1)*
X11150000Y5700000D03*
G04 #@! TO.P,C1,2*
G04 #@! TO.N,Earth*
X13650000Y5700000D03*
G04 #@! TD*
D18*
G04 #@! TO.P,C2,1*
G04 #@! TO.N,Net-(C2-Pad1)*
X44400000Y900000D03*
G04 #@! TO.P,C2,2*
G04 #@! TO.N,Net-(C2-Pad2)*
X44400000Y5900000D03*
G04 #@! TD*
G04 #@! TO.P,C3,2*
G04 #@! TO.N,Net-(C1-Pad1)*
X9900000Y2300000D03*
G04 #@! TO.P,C3,1*
G04 #@! TO.N,Net-(C2-Pad1)*
X14900000Y2300000D03*
G04 #@! TD*
G04 #@! TO.P,C4,2*
G04 #@! TO.N,Net-(C4-Pad2)*
X26000000Y5900000D03*
G04 #@! TO.P,C4,1*
G04 #@! TO.N,Net-(C4-Pad1)*
X26000000Y900000D03*
G04 #@! TD*
G04 #@! TO.P,C5,2*
G04 #@! TO.N,Net-(C5-Pad2)*
X9900000Y-6000000D03*
G04 #@! TO.P,C5,1*
G04 #@! TO.N,Net-(C4-Pad1)*
X14900000Y-6000000D03*
G04 #@! TD*
D19*
G04 #@! TO.P,C6,2*
G04 #@! TO.N,Net-(C6-Pad2)*
X45150000Y-4100000D03*
D20*
G04 #@! TO.P,C6,1*
G04 #@! TO.N,Earth*
X43650000Y-4100000D03*
G04 #@! TD*
D17*
G04 #@! TO.P,C7,2*
G04 #@! TO.N,Net-(C7-Pad2)*
X11150000Y-9100000D03*
G04 #@! TO.P,C7,1*
G04 #@! TO.N,Earth*
X13650000Y-9100000D03*
G04 #@! TD*
D18*
G04 #@! TO.P,C8,1*
G04 #@! TO.N,Net-(C8-Pad1)*
X26000000Y-2100000D03*
G04 #@! TO.P,C8,2*
G04 #@! TO.N,Net-(C8-Pad2)*
X26000000Y-7100000D03*
G04 #@! TD*
D20*
G04 #@! TO.P,C9,1*
G04 #@! TO.N,Earth*
X20750000Y-12100000D03*
D19*
G04 #@! TO.P,C9,2*
G04 #@! TO.N,Net-(C9-Pad2)*
X19250000Y-12100000D03*
G04 #@! TD*
D17*
G04 #@! TO.P,C10,1*
G04 #@! TO.N,Net-(C10-Pad1)*
X18750000Y-8300000D03*
G04 #@! TO.P,C10,2*
G04 #@! TO.N,+15V*
X21250000Y-8300000D03*
G04 #@! TD*
D18*
G04 #@! TO.P,C11,2*
G04 #@! TO.N,Net-(C10-Pad1)*
X-1500000Y5700000D03*
G04 #@! TO.P,C11,1*
G04 #@! TO.N,Net-(C11-Pad1)*
X-6500000Y5700000D03*
G04 #@! TD*
D20*
G04 #@! TO.P,C12,1*
G04 #@! TO.N,Earth*
X-1800000Y-5750000D03*
D19*
G04 #@! TO.P,C12,2*
G04 #@! TO.N,Net-(C12-Pad2)*
X-1800000Y-7250000D03*
G04 #@! TD*
D17*
G04 #@! TO.P,C13,2*
G04 #@! TO.N,+15V*
X-2650000Y2300000D03*
G04 #@! TO.P,C13,1*
G04 #@! TO.N,Net-(C13-Pad1)*
X-5150000Y2300000D03*
G04 #@! TD*
D18*
G04 #@! TO.P,C14,2*
G04 #@! TO.N,Net-(C13-Pad1)*
X-1400000Y-10400000D03*
G04 #@! TO.P,C14,1*
G04 #@! TO.N,Net-(C14-Pad1)*
X-6400000Y-10400000D03*
G04 #@! TD*
D20*
G04 #@! TO.P,C15,1*
G04 #@! TO.N,Earth*
X-6300000Y-5750000D03*
D19*
G04 #@! TO.P,C15,2*
G04 #@! TO.N,/Signal Path/ccs3*
X-6300000Y-7250000D03*
G04 #@! TD*
D17*
G04 #@! TO.P,C16,1*
G04 #@! TO.N,Net-(C16-Pad1)*
X-10750000Y-17900000D03*
G04 #@! TO.P,C16,2*
G04 #@! TO.N,+15V*
X-13250000Y-17900000D03*
G04 #@! TD*
D18*
G04 #@! TO.P,C17,2*
G04 #@! TO.N,Net-(C16-Pad1)*
X-17900000Y5700000D03*
G04 #@! TO.P,C17,1*
G04 #@! TO.N,Net-(C17-Pad1)*
X-22900000Y5700000D03*
G04 #@! TD*
G04 #@! TO.P,C18,2*
G04 #@! TO.N,Net-(C18-Pad2)*
X-22900000Y2300000D03*
G04 #@! TO.P,C18,1*
G04 #@! TO.N,/Signal Path/eq_send*
X-17900000Y2300000D03*
G04 #@! TD*
D17*
G04 #@! TO.P,C19,2*
G04 #@! TO.N,Net-(C19-Pad2)*
X-19250000Y-5500000D03*
G04 #@! TO.P,C19,1*
G04 #@! TO.N,Earth*
X-21750000Y-5500000D03*
G04 #@! TD*
D18*
G04 #@! TO.P,C20,1*
G04 #@! TO.N,Net-(C20-Pad1)*
X11900000Y14200000D03*
G04 #@! TO.P,C20,2*
G04 #@! TO.N,Net-(C20-Pad2)*
X6900000Y14200000D03*
G04 #@! TD*
G04 #@! TO.P,C21,1*
G04 #@! TO.N,Net-(C20-Pad2)*
X6900000Y17400000D03*
G04 #@! TO.P,C21,2*
G04 #@! TO.N,Net-(C21-Pad2)*
X11900000Y17400000D03*
G04 #@! TD*
G04 #@! TO.P,C22,2*
G04 #@! TO.N,Net-(C22-Pad2)*
X-7500000Y14200000D03*
G04 #@! TO.P,C22,1*
G04 #@! TO.N,Net-(C22-Pad1)*
X-12500000Y14200000D03*
G04 #@! TD*
G04 #@! TO.P,C23,1*
G04 #@! TO.N,Net-(C22-Pad2)*
X-12600000Y17400000D03*
G04 #@! TO.P,C23,2*
G04 #@! TO.N,Net-(C23-Pad2)*
X-7600000Y17400000D03*
G04 #@! TD*
G04 #@! TO.P,C24,2*
G04 #@! TO.N,Net-(C24-Pad2)*
X-17600000Y14200000D03*
G04 #@! TO.P,C24,1*
G04 #@! TO.N,Net-(C24-Pad1)*
X-22600000Y14200000D03*
G04 #@! TD*
G04 #@! TO.P,C25,1*
G04 #@! TO.N,Net-(C24-Pad2)*
X-22600000Y17400000D03*
G04 #@! TO.P,C25,2*
G04 #@! TO.N,Net-(C25-Pad2)*
X-17600000Y17400000D03*
G04 #@! TD*
D17*
G04 #@! TO.P,C26,2*
G04 #@! TO.N,Net-(C26-Pad2)*
X-27050000Y-3900000D03*
G04 #@! TO.P,C26,1*
G04 #@! TO.N,Net-(C26-Pad1)*
X-29550000Y-3900000D03*
G04 #@! TD*
D18*
G04 #@! TO.P,C27,2*
G04 #@! TO.N,Net-(C26-Pad2)*
X-18000000Y-8800000D03*
G04 #@! TO.P,C27,1*
G04 #@! TO.N,Net-(C27-Pad1)*
X-23000000Y-8800000D03*
G04 #@! TD*
D17*
G04 #@! TO.P,C28,1*
G04 #@! TO.N,Net-(C28-Pad1)*
X-21650000Y-11900000D03*
G04 #@! TO.P,C28,2*
G04 #@! TO.N,Net-(C28-Pad2)*
X-19150000Y-11900000D03*
G04 #@! TD*
D18*
G04 #@! TO.P,C29,1*
G04 #@! TO.N,Net-(C29-Pad1)*
X-43100000Y-4800000D03*
G04 #@! TO.P,C29,2*
G04 #@! TO.N,Net-(C28-Pad1)*
X-38100000Y-4800000D03*
G04 #@! TD*
G04 #@! TO.P,C30,2*
G04 #@! TO.N,Net-(C28-Pad2)*
X-38100000Y-8100000D03*
G04 #@! TO.P,C30,1*
G04 #@! TO.N,Net-(C30-Pad1)*
X-43100000Y-8100000D03*
G04 #@! TD*
G04 #@! TO.P,C31,1*
G04 #@! TO.N,Net-(C31-Pad1)*
X-43100000Y-19500000D03*
G04 #@! TO.P,C31,2*
G04 #@! TO.N,Net-(C31-Pad2)*
X-38100000Y-19500000D03*
G04 #@! TD*
D17*
G04 #@! TO.P,C32,2*
G04 #@! TO.N,Net-(C32-Pad2)*
X-38100000Y-10950000D03*
G04 #@! TO.P,C32,1*
G04 #@! TO.N,Earth*
X-38100000Y-13450000D03*
G04 #@! TD*
G04 #@! TO.P,C33,1*
G04 #@! TO.N,Earth*
X-43000000Y-13450000D03*
G04 #@! TO.P,C33,2*
G04 #@! TO.N,Net-(C33-Pad2)*
X-43000000Y-10950000D03*
G04 #@! TD*
D18*
G04 #@! TO.P,C34,1*
G04 #@! TO.N,Net-(C34-Pad1)*
X-43100000Y-16200000D03*
G04 #@! TO.P,C34,2*
G04 #@! TO.N,Earth*
X-38100000Y-16200000D03*
G04 #@! TD*
D17*
G04 #@! TO.P,C35,1*
G04 #@! TO.N,Net-(C32-Pad2)*
X-50850000Y5900000D03*
G04 #@! TO.P,C35,2*
G04 #@! TO.N,Net-(C35-Pad2)*
X-48350000Y5900000D03*
G04 #@! TD*
D18*
G04 #@! TO.P,C36,1*
G04 #@! TO.N,Net-(C36-Pad1)*
X-43100000Y12900000D03*
G04 #@! TO.P,C36,2*
G04 #@! TO.N,Net-(C35-Pad2)*
X-38100000Y12900000D03*
G04 #@! TD*
D21*
G04 #@! TO.P,C37,1*
G04 #@! TO.N,Net-(C37-Pad1)*
X-19900000Y38000000D03*
D18*
G04 #@! TO.P,C37,2*
G04 #@! TO.N,Earth*
X-23400000Y38000000D03*
G04 #@! TD*
D21*
G04 #@! TO.P,C38,1*
G04 #@! TO.N,Earth*
X12950000Y38000000D03*
D18*
G04 #@! TO.P,C38,2*
G04 #@! TO.N,Net-(C38-Pad2)*
X15450000Y38000000D03*
G04 #@! TD*
D19*
G04 #@! TO.P,C39,2*
G04 #@! TO.N,/Signal Path/-VREF0*
X14950000Y31600000D03*
D20*
G04 #@! TO.P,C39,1*
G04 #@! TO.N,Earth*
X13450000Y31600000D03*
G04 #@! TD*
D18*
G04 #@! TO.P,C40,2*
G04 #@! TO.N,/Signal Path/-VREF1*
X-35500000Y-34250000D03*
D21*
G04 #@! TO.P,C40,1*
G04 #@! TO.N,Earth*
X-35500000Y-36750000D03*
G04 #@! TD*
D22*
G04 #@! TO.P,D5,1*
G04 #@! TO.N,Earth*
X-45050000Y-31270000D03*
D23*
G04 #@! TO.P,D5,2*
G04 #@! TO.N,/LED+*
X-45050000Y-28730000D03*
G04 #@! TD*
D11*
G04 #@! TO.P,J5,4*
G04 #@! TO.N,/return*
X38730000Y-17500000D03*
G04 #@! TO.P,J5,6*
G04 #@! TO.N,/LED+*
X43810000Y-17500000D03*
G04 #@! TO.P,J5,7*
G04 #@! TO.N,/V+*
X46350000Y-17500000D03*
G04 #@! TO.P,J5,3*
G04 #@! TO.N,/send*
X36190000Y-17500000D03*
G04 #@! TO.P,J5,5*
G04 #@! TO.N,/output_jack*
X41270000Y-17500000D03*
G04 #@! TO.P,J5,8*
G04 #@! TO.N,Net-(J5-Pad8)*
X48890000Y-17500000D03*
D10*
G04 #@! TO.P,J5,1*
G04 #@! TO.N,Earth*
X31110000Y-17500000D03*
D11*
G04 #@! TO.P,J5,2*
G04 #@! TO.N,/input_jack*
X33650000Y-17500000D03*
G04 #@! TD*
D24*
G04 #@! TO.P,R1,1*
G04 #@! TO.N,/send*
X7000000Y5700000D03*
D25*
G04 #@! TO.P,R1,2*
G04 #@! TO.N,Net-(C1-Pad1)*
X2000000Y5700000D03*
G04 #@! TD*
D24*
G04 #@! TO.P,R2,1*
G04 #@! TO.N,Net-(C1-Pad1)*
X2000000Y3200000D03*
D25*
G04 #@! TO.P,R2,2*
G04 #@! TO.N,Earth*
X7000000Y3200000D03*
G04 #@! TD*
D24*
G04 #@! TO.P,R3,1*
G04 #@! TO.N,Net-(C2-Pad1)*
X2000000Y800000D03*
D25*
G04 #@! TO.P,R3,2*
G04 #@! TO.N,/Signal Path/-VREF0*
X7000000Y800000D03*
G04 #@! TD*
G04 #@! TO.P,R4,2*
G04 #@! TO.N,Net-(C5-Pad2)*
X7000000Y-3900000D03*
D24*
G04 #@! TO.P,R4,1*
G04 #@! TO.N,+15V*
X2000000Y-3900000D03*
G04 #@! TD*
D25*
G04 #@! TO.P,R5,2*
G04 #@! TO.N,/Signal Path/ccs0*
X2000000Y-1500000D03*
D24*
G04 #@! TO.P,R5,1*
G04 #@! TO.N,Net-(Q1-Pad2)*
X7000000Y-1500000D03*
G04 #@! TD*
G04 #@! TO.P,R6,1*
G04 #@! TO.N,Net-(C4-Pad1)*
X7000000Y-6200000D03*
D25*
G04 #@! TO.P,R6,2*
G04 #@! TO.N,Net-(C7-Pad2)*
X2000000Y-6200000D03*
G04 #@! TD*
G04 #@! TO.P,R7,2*
G04 #@! TO.N,/Signal Path/-VREF0*
X7000000Y-8500000D03*
D24*
G04 #@! TO.P,R7,1*
G04 #@! TO.N,Net-(C7-Pad2)*
X2000000Y-8500000D03*
G04 #@! TD*
D25*
G04 #@! TO.P,R8,2*
G04 #@! TO.N,/Signal Path/-VREF0*
X52750000Y22450000D03*
D24*
G04 #@! TO.P,R8,1*
G04 #@! TO.N,Net-(R8-Pad1)*
X52750000Y17450000D03*
G04 #@! TD*
D25*
G04 #@! TO.P,R9,2*
G04 #@! TO.N,Net-(Q2-Pad3)*
X7000000Y-10800000D03*
D24*
G04 #@! TO.P,R9,1*
G04 #@! TO.N,Net-(C8-Pad1)*
X2000000Y-10800000D03*
G04 #@! TD*
G04 #@! TO.P,R10,1*
G04 #@! TO.N,+15V*
X2000000Y-15400000D03*
D25*
G04 #@! TO.P,R10,2*
G04 #@! TO.N,Net-(C10-Pad1)*
X7000000Y-15400000D03*
G04 #@! TD*
D24*
G04 #@! TO.P,R11,1*
G04 #@! TO.N,Net-(C9-Pad2)*
X7000000Y-13100000D03*
D25*
G04 #@! TO.P,R11,2*
G04 #@! TO.N,/Signal Path/ccs1*
X2000000Y-13100000D03*
G04 #@! TD*
G04 #@! TO.P,R12,2*
G04 #@! TO.N,Net-(R12-Pad2)*
X-14600000Y5700000D03*
D24*
G04 #@! TO.P,R12,1*
G04 #@! TO.N,Net-(C11-Pad1)*
X-9600000Y5700000D03*
G04 #@! TD*
G04 #@! TO.P,R13,1*
G04 #@! TO.N,Net-(R12-Pad2)*
X-14600000Y3200000D03*
D25*
G04 #@! TO.P,R13,2*
G04 #@! TO.N,/Signal Path/-VREF0*
X-9600000Y3200000D03*
G04 #@! TD*
D24*
G04 #@! TO.P,R14,1*
G04 #@! TO.N,Net-(R14-Pad1)*
X50500000Y17450000D03*
D25*
G04 #@! TO.P,R14,2*
G04 #@! TO.N,/Signal Path/-VREF0*
X50500000Y22450000D03*
G04 #@! TD*
D24*
G04 #@! TO.P,R15,1*
G04 #@! TO.N,Net-(R15-Pad1)*
X-14600000Y800000D03*
D25*
G04 #@! TO.P,R15,2*
G04 #@! TO.N,Net-(Q3-Pad3)*
X-9600000Y800000D03*
G04 #@! TD*
G04 #@! TO.P,R16,2*
G04 #@! TO.N,Net-(C13-Pad1)*
X-9600000Y-3900000D03*
D24*
G04 #@! TO.P,R16,1*
G04 #@! TO.N,+15V*
X-14600000Y-3900000D03*
G04 #@! TD*
D25*
G04 #@! TO.P,R17,2*
G04 #@! TO.N,/Signal Path/ccs2*
X-14600000Y-1500000D03*
D24*
G04 #@! TO.P,R17,1*
G04 #@! TO.N,Net-(C12-Pad2)*
X-9600000Y-1500000D03*
G04 #@! TD*
G04 #@! TO.P,R18,1*
G04 #@! TO.N,Net-(C14-Pad1)*
X-9600000Y-6200000D03*
D25*
G04 #@! TO.P,R18,2*
G04 #@! TO.N,Net-(R18-Pad2)*
X-14600000Y-6200000D03*
G04 #@! TD*
D24*
G04 #@! TO.P,R19,1*
G04 #@! TO.N,Net-(R18-Pad2)*
X-14600000Y-8500000D03*
D25*
G04 #@! TO.P,R19,2*
G04 #@! TO.N,/Signal Path/-VREF0*
X-9600000Y-8500000D03*
G04 #@! TD*
G04 #@! TO.P,R20,2*
G04 #@! TO.N,Net-(Q4-Pad3)*
X-9600000Y-10800000D03*
D24*
G04 #@! TO.P,R20,1*
G04 #@! TO.N,Net-(R18-Pad2)*
X-14600000Y-10800000D03*
G04 #@! TD*
D25*
G04 #@! TO.P,R21,2*
G04 #@! TO.N,Net-(C16-Pad1)*
X-9600000Y-15400000D03*
D24*
G04 #@! TO.P,R21,1*
G04 #@! TO.N,+15V*
X-14600000Y-15400000D03*
G04 #@! TD*
D25*
G04 #@! TO.P,R22,2*
G04 #@! TO.N,/Signal Path/ccs3*
X-14600000Y-13100000D03*
D24*
G04 #@! TO.P,R22,1*
G04 #@! TO.N,Net-(Q4-Pad2)*
X-9600000Y-13100000D03*
G04 #@! TD*
G04 #@! TO.P,R23,1*
G04 #@! TO.N,Net-(C17-Pad1)*
X-30800000Y5700000D03*
D25*
G04 #@! TO.P,R23,2*
G04 #@! TO.N,Net-(Q5-Pad1)*
X-25800000Y5700000D03*
G04 #@! TD*
G04 #@! TO.P,R24,2*
G04 #@! TO.N,Earth*
X-30800000Y3200000D03*
D24*
G04 #@! TO.P,R24,1*
G04 #@! TO.N,Net-(Q5-Pad1)*
X-25800000Y3200000D03*
G04 #@! TD*
G04 #@! TO.P,R25,1*
G04 #@! TO.N,Net-(C18-Pad2)*
X-25800000Y800000D03*
D25*
G04 #@! TO.P,R25,2*
G04 #@! TO.N,-15V*
X-30800000Y800000D03*
G04 #@! TD*
G04 #@! TO.P,R26,2*
G04 #@! TO.N,Net-(R26-Pad2)*
X7000000Y20500000D03*
D24*
G04 #@! TO.P,R26,1*
G04 #@! TO.N,Net-(C20-Pad2)*
X12000000Y20500000D03*
G04 #@! TD*
G04 #@! TO.P,R27,1*
G04 #@! TO.N,/Signal Path/eq_send*
X-30700000Y-6200000D03*
D25*
G04 #@! TO.P,R27,2*
G04 #@! TO.N,Net-(C19-Pad2)*
X-25700000Y-6200000D03*
G04 #@! TD*
D24*
G04 #@! TO.P,R28,1*
G04 #@! TO.N,Net-(C21-Pad2)*
X7000000Y22900000D03*
D25*
G04 #@! TO.P,R28,2*
G04 #@! TO.N,Earth*
X12000000Y22900000D03*
G04 #@! TD*
G04 #@! TO.P,R29,2*
G04 #@! TO.N,Net-(R29-Pad2)*
X-7600000Y20500000D03*
D24*
G04 #@! TO.P,R29,1*
G04 #@! TO.N,Net-(C22-Pad2)*
X-12600000Y20500000D03*
G04 #@! TD*
G04 #@! TO.P,R30,1*
G04 #@! TO.N,Net-(C23-Pad2)*
X-7600000Y22900000D03*
D25*
G04 #@! TO.P,R30,2*
G04 #@! TO.N,Earth*
X-12600000Y22900000D03*
G04 #@! TD*
G04 #@! TO.P,R31,2*
G04 #@! TO.N,Net-(R31-Pad2)*
X-12600000Y25300000D03*
D24*
G04 #@! TO.P,R31,1*
G04 #@! TO.N,Net-(C24-Pad2)*
X-7600000Y25300000D03*
G04 #@! TD*
G04 #@! TO.P,R32,1*
G04 #@! TO.N,Net-(C25-Pad2)*
X-12600000Y27600000D03*
D25*
G04 #@! TO.P,R32,2*
G04 #@! TO.N,Earth*
X-7600000Y27600000D03*
G04 #@! TD*
G04 #@! TO.P,R33,2*
G04 #@! TO.N,Net-(C26-Pad1)*
X-30800000Y-1500000D03*
D24*
G04 #@! TO.P,R33,1*
G04 #@! TO.N,Net-(C26-Pad2)*
X-25800000Y-1500000D03*
G04 #@! TD*
D25*
G04 #@! TO.P,R34,2*
G04 #@! TO.N,/Signal Path/-VREF1*
X-30700000Y-13100000D03*
D24*
G04 #@! TO.P,R34,1*
G04 #@! TO.N,Net-(C27-Pad1)*
X-25700000Y-13100000D03*
G04 #@! TD*
D25*
G04 #@! TO.P,R35,2*
G04 #@! TO.N,Net-(Q6-Pad1)*
X-25700000Y-15400000D03*
D24*
G04 #@! TO.P,R35,1*
G04 #@! TO.N,Net-(C27-Pad1)*
X-30700000Y-15400000D03*
G04 #@! TD*
G04 #@! TO.P,R36,1*
G04 #@! TO.N,+15V*
X-30700000Y-8500000D03*
D25*
G04 #@! TO.P,R36,2*
G04 #@! TO.N,Net-(C28-Pad1)*
X-25700000Y-8500000D03*
G04 #@! TD*
G04 #@! TO.P,R37,2*
G04 #@! TO.N,Net-(C28-Pad2)*
X-25700000Y-10700000D03*
D24*
G04 #@! TO.P,R37,1*
G04 #@! TO.N,+15V*
X-30700000Y-10700000D03*
G04 #@! TD*
D25*
G04 #@! TO.P,R38,2*
G04 #@! TO.N,/Signal Path/-VREF1*
X-30700000Y-17600000D03*
D24*
G04 #@! TO.P,R38,1*
G04 #@! TO.N,Net-(C31-Pad2)*
X-25700000Y-17600000D03*
G04 #@! TD*
D25*
G04 #@! TO.P,R39,2*
G04 #@! TO.N,Net-(C32-Pad2)*
X-52100000Y-3900000D03*
D24*
G04 #@! TO.P,R39,1*
G04 #@! TO.N,Net-(C29-Pad1)*
X-47100000Y-3900000D03*
G04 #@! TD*
G04 #@! TO.P,R40,1*
G04 #@! TO.N,Net-(C30-Pad1)*
X-47100000Y-6200000D03*
D25*
G04 #@! TO.P,R40,2*
G04 #@! TO.N,Net-(C33-Pad2)*
X-52100000Y-6200000D03*
G04 #@! TD*
D24*
G04 #@! TO.P,R41,1*
G04 #@! TO.N,Net-(C31-Pad1)*
X-47100000Y-15400000D03*
D25*
G04 #@! TO.P,R41,2*
G04 #@! TO.N,Earth*
X-52100000Y-15400000D03*
G04 #@! TD*
D24*
G04 #@! TO.P,R42,1*
G04 #@! TO.N,Net-(C31-Pad1)*
X-52100000Y-13100000D03*
D25*
G04 #@! TO.P,R42,2*
G04 #@! TO.N,Net-(C34-Pad1)*
X-47100000Y-13100000D03*
G04 #@! TD*
G04 #@! TO.P,R43,2*
G04 #@! TO.N,Earth*
X-47100000Y-8500000D03*
D24*
G04 #@! TO.P,R43,1*
G04 #@! TO.N,Net-(C33-Pad2)*
X-52100000Y-8500000D03*
G04 #@! TD*
G04 #@! TO.P,R44,1*
G04 #@! TO.N,Net-(C32-Pad2)*
X-52100000Y800000D03*
D25*
G04 #@! TO.P,R44,2*
G04 #@! TO.N,Net-(R44-Pad2)*
X-47100000Y800000D03*
G04 #@! TD*
G04 #@! TO.P,R45,2*
G04 #@! TO.N,Net-(R45-Pad2)*
X-47100000Y-1500000D03*
D24*
G04 #@! TO.P,R45,1*
G04 #@! TO.N,Net-(C33-Pad2)*
X-52100000Y-1500000D03*
G04 #@! TD*
G04 #@! TO.P,R46,1*
G04 #@! TO.N,Net-(C32-Pad2)*
X-52100000Y3300000D03*
D25*
G04 #@! TO.P,R46,2*
G04 #@! TO.N,Net-(C35-Pad2)*
X-47100000Y3300000D03*
G04 #@! TD*
G04 #@! TO.P,R47,2*
G04 #@! TO.N,Net-(C35-Pad2)*
X-52100000Y-10700000D03*
D24*
G04 #@! TO.P,R47,1*
G04 #@! TO.N,Net-(C31-Pad1)*
X-47100000Y-10700000D03*
G04 #@! TD*
D25*
G04 #@! TO.P,R48,2*
G04 #@! TO.N,Net-(Q7-Pad3)*
X-14700000Y-33100000D03*
D24*
G04 #@! TO.P,R48,1*
G04 #@! TO.N,Earth*
X-14700000Y-38100000D03*
G04 #@! TD*
G04 #@! TO.P,R49,1*
G04 #@! TO.N,Net-(Q7-Pad2)*
X-12200000Y-33100000D03*
D25*
G04 #@! TO.P,R49,2*
G04 #@! TO.N,-15V*
X-12200000Y-38100000D03*
G04 #@! TD*
D24*
G04 #@! TO.P,R50,1*
G04 #@! TO.N,Net-(Q9-Pad2)*
X16900000Y-33100000D03*
D25*
G04 #@! TO.P,R50,2*
G04 #@! TO.N,-15V*
X16900000Y-38100000D03*
G04 #@! TD*
G04 #@! TO.P,R51,2*
G04 #@! TO.N,-15V*
X11100000Y-38100000D03*
D24*
G04 #@! TO.P,R51,1*
G04 #@! TO.N,Net-(Q10-Pad2)*
X11100000Y-33100000D03*
G04 #@! TD*
G04 #@! TO.P,R52,1*
G04 #@! TO.N,Net-(Q11-Pad2)*
X5300000Y-33100000D03*
D25*
G04 #@! TO.P,R52,2*
G04 #@! TO.N,-15V*
X5300000Y-38100000D03*
G04 #@! TD*
G04 #@! TO.P,R53,2*
G04 #@! TO.N,-15V*
X-500000Y-38100000D03*
D24*
G04 #@! TO.P,R53,1*
G04 #@! TO.N,Net-(Q12-Pad2)*
X-500000Y-33100000D03*
G04 #@! TD*
G04 #@! TO.P,R54,1*
G04 #@! TO.N,Net-(Q13-Pad2)*
X-6300000Y-33100000D03*
D25*
G04 #@! TO.P,R54,2*
G04 #@! TO.N,-15V*
X-6300000Y-38100000D03*
G04 #@! TD*
D24*
G04 #@! TO.P,R55,1*
G04 #@! TO.N,Earth*
X19100000Y40500000D03*
D25*
G04 #@! TO.P,R55,2*
G04 #@! TO.N,Net-(C38-Pad2)*
X19100000Y35500000D03*
G04 #@! TD*
D24*
G04 #@! TO.P,R56,1*
G04 #@! TO.N,Net-(C38-Pad2)*
X21600000Y35500000D03*
D25*
G04 #@! TO.P,R56,2*
G04 #@! TO.N,Net-(R56-Pad2)*
X21600000Y40500000D03*
G04 #@! TD*
G04 #@! TO.P,R57,2*
G04 #@! TO.N,-15V*
X24100000Y35500000D03*
D24*
G04 #@! TO.P,R57,1*
G04 #@! TO.N,Net-(R56-Pad2)*
X24100000Y40500000D03*
G04 #@! TD*
G04 #@! TO.P,R58,1*
G04 #@! TO.N,Earth*
X-30100000Y-38100000D03*
D25*
G04 #@! TO.P,R58,2*
G04 #@! TO.N,/Signal Path/-VREF1*
X-30100000Y-33100000D03*
G04 #@! TD*
G04 #@! TO.P,R59,2*
G04 #@! TO.N,-15V*
X-27300000Y-38100000D03*
D24*
G04 #@! TO.P,R59,1*
G04 #@! TO.N,/Signal Path/-VREF1*
X-27300000Y-33100000D03*
G04 #@! TD*
D25*
G04 #@! TO.P,R60,2*
G04 #@! TO.N,/V+*
X46300000Y-13600000D03*
D24*
G04 #@! TO.P,R60,1*
G04 #@! TO.N,+15V*
X51300000Y-13600000D03*
G04 #@! TD*
D26*
G04 #@! TO.P,RV1,3*
G04 #@! TO.N,Net-(C7-Pad2)*
X40000000Y9500000D03*
G04 #@! TO.P,RV1,2*
G04 #@! TO.N,Net-(C8-Pad1)*
X45000000Y9500000D03*
D27*
G04 #@! TO.P,RV1,1*
G04 #@! TO.N,Net-(R8-Pad1)*
X50000000Y9500000D03*
D26*
G04 #@! TO.P,RV1,5*
G04 #@! TO.N,Net-(R15-Pad1)*
X45000000Y13500000D03*
D27*
G04 #@! TO.P,RV1,4*
G04 #@! TO.N,Net-(R14-Pad1)*
X50000000Y13500000D03*
D26*
G04 #@! TO.P,RV1,6*
G04 #@! TO.N,Net-(R12-Pad2)*
X40000000Y13500000D03*
G04 #@! TD*
D27*
G04 #@! TO.P,RV2,1*
G04 #@! TO.N,Net-(C19-Pad2)*
X27500000Y9500000D03*
D26*
G04 #@! TO.P,RV2,2*
G04 #@! TO.N,Net-(C20-Pad1)*
X22500000Y9500000D03*
G04 #@! TO.P,RV2,3*
G04 #@! TO.N,Net-(C26-Pad1)*
X17500000Y9500000D03*
G04 #@! TD*
G04 #@! TO.P,RV3,3*
G04 #@! TO.N,Net-(C26-Pad1)*
X-5000000Y9500000D03*
G04 #@! TO.P,RV3,2*
G04 #@! TO.N,Net-(C22-Pad1)*
X0Y9500000D03*
D27*
G04 #@! TO.P,RV3,1*
G04 #@! TO.N,Net-(C19-Pad2)*
X5000000Y9500000D03*
G04 #@! TD*
G04 #@! TO.P,RV4,1*
G04 #@! TO.N,Net-(C19-Pad2)*
X-17500000Y9500000D03*
D26*
G04 #@! TO.P,RV4,2*
G04 #@! TO.N,Net-(C24-Pad1)*
X-22500000Y9500000D03*
G04 #@! TO.P,RV4,3*
G04 #@! TO.N,Net-(C26-Pad1)*
X-27500000Y9500000D03*
G04 #@! TD*
G04 #@! TO.P,RV5,3*
G04 #@! TO.N,Net-(C36-Pad1)*
X-50000000Y9500000D03*
G04 #@! TO.P,RV5,2*
G04 #@! TO.N,/return*
X-45000000Y9500000D03*
D27*
G04 #@! TO.P,RV5,1*
G04 #@! TO.N,Earth*
X-40000000Y9500000D03*
G04 #@! TD*
D28*
G04 #@! TO.P,SW1,1*
G04 #@! TO.N,Net-(C4-Pad2)*
X32600000Y4700000D03*
G04 #@! TO.P,SW1,2*
G04 #@! TO.N,Net-(C5-Pad2)*
X32600000Y0D03*
G04 #@! TO.P,SW1,3*
G04 #@! TO.N,Net-(SW1-Pad3)*
X32600000Y-4700000D03*
G04 #@! TO.P,SW1,4*
G04 #@! TO.N,Net-(C2-Pad2)*
X37400000Y4700000D03*
G04 #@! TO.P,SW1,5*
G04 #@! TO.N,Net-(C1-Pad1)*
X37400000Y0D03*
G04 #@! TO.P,SW1,6*
G04 #@! TO.N,Net-(SW1-Pad6)*
X37400000Y-4700000D03*
G04 #@! TD*
G04 #@! TO.P,SW2,3*
G04 #@! TO.N,/Signal Path/ccs0*
X50000000Y4700000D03*
G04 #@! TO.P,SW2,2*
G04 #@! TO.N,Net-(C6-Pad2)*
X50000000Y0D03*
G04 #@! TO.P,SW2,1*
G04 #@! TO.N,Net-(Q1-Pad2)*
X50000000Y-4700000D03*
G04 #@! TD*
G04 #@! TO.P,SW3,1*
G04 #@! TO.N,Net-(C8-Pad2)*
X20000000Y-4700000D03*
G04 #@! TO.P,SW3,2*
G04 #@! TO.N,Net-(C7-Pad2)*
X20000000Y0D03*
G04 #@! TO.P,SW3,3*
G04 #@! TO.N,Net-(SW3-Pad3)*
X20000000Y4700000D03*
G04 #@! TD*
D25*
G04 #@! TO.P,R61,2*
G04 #@! TO.N,-15V*
X-2700000Y-38100000D03*
D24*
G04 #@! TO.P,R61,1*
G04 #@! TO.N,Net-(Q12-Pad2)*
X-2700000Y-33100000D03*
G04 #@! TD*
G04 #@! TO.P,R62,1*
G04 #@! TO.N,Net-(Q13-Pad2)*
X-8600000Y-33100000D03*
D25*
G04 #@! TO.P,R62,2*
G04 #@! TO.N,-15V*
X-8600000Y-38100000D03*
G04 #@! TD*
D29*
G04 #@! TO.N,Earth*
X26000000Y33500000D03*
X-10500000Y-26100000D03*
X-22900000Y19900000D03*
X-17000000Y27100000D03*
X700000Y16400000D03*
X-800000Y24000000D03*
X-40100000Y-1600000D03*
X-41400000Y6000000D03*
X-7600000Y38000000D03*
X-6600000Y38000000D03*
X17100000Y32600000D03*
X-27000000Y34400000D03*
G04 #@! TO.N,Net-(C28-Pad2)*
X-28200000Y-10700000D03*
G04 #@! TO.N,+15V*
X-17100000Y-2000000D03*
X-37100000Y6000000D03*
X-17000000Y23000000D03*
X3500000Y24000000D03*
X17100000Y30600000D03*
G04 #@! TO.N,-15V*
X-43100000Y-3000000D03*
X-22900000Y24900000D03*
X-3600000Y16400000D03*
X26200000Y31400000D03*
G04 #@! TO.N,/send*
X5500000Y-16700000D03*
G04 #@! TO.N,Net-(Q1-Pad2)*
X34037347Y1824990D03*
G04 #@! TO.N,/Signal Path/ccs3*
X-12000000Y-19500000D03*
X-12000000Y-14700000D03*
G04 #@! TO.N,Net-(C37-Pad1)*
X-25000000Y31100000D03*
G04 #@! TO.N,/Signal Path/-VREF0*
X8500000Y12200000D03*
X-11200000Y12100000D03*
G04 #@! TO.N,/Signal Path/ccs4*
X-23100000Y-16300000D03*
X-19000000Y-17500000D03*
G04 #@! TO.N,/Signal Path/ccs0*
X30085126Y1789568D03*
X4200000Y-13100000D03*
G04 #@! TO.N,/Signal Path/ccs2*
X-12000000Y-8100000D03*
G04 #@! TO.N,Net-(Q10-Pad1)*
X13900000Y-27900000D03*
X-9300000Y-27900000D03*
X-3500000Y-27900000D03*
X2300000Y-27900000D03*
X8100000Y-27900000D03*
G04 #@! TD*
D30*
G04 #@! TO.N,Earth*
X-21460000Y-31770000D02*
X-21460000Y-34310000D01*
X-24834178Y-31770000D02*
X-21460000Y-31770000D01*
X-34700000Y-21904178D02*
X-24834178Y-31770000D01*
X-34700000Y14300000D02*
X-34700000Y-21904178D01*
X-27000000Y22000000D02*
X-34700000Y14300000D01*
X-27000000Y34400000D02*
X-27000000Y22000000D01*
X-23400000Y38000000D02*
X-27000000Y34400000D01*
D31*
G04 #@! TO.N,Net-(C20-Pad1)*
X17800000Y14200000D02*
X22500000Y9500000D01*
X11900000Y14200000D02*
X17800000Y14200000D01*
G04 #@! TO.N,Net-(C24-Pad1)*
X-22600000Y9600000D02*
X-22500000Y9500000D01*
X-22600000Y14200000D02*
X-22600000Y9600000D01*
D32*
G04 #@! TO.N,/output_jack*
X29750000Y23650000D02*
X32150000Y23650000D01*
X32150000Y23650000D02*
X34900000Y20900000D01*
X34900000Y20900000D02*
X52300000Y20900000D01*
X52300000Y20900000D02*
X54524990Y18675010D01*
X54524990Y-16775010D02*
X51775010Y-19524990D01*
X54524990Y18675010D02*
X54524990Y-16775010D01*
X43294990Y-19524990D02*
X41270000Y-17500000D01*
X51775010Y-19524990D02*
X43294990Y-19524990D01*
D31*
G04 #@! TO.N,Net-(C26-Pad1)*
X-30800000Y-2650000D02*
X-29550000Y-3900000D01*
X-30800000Y-1500000D02*
X-30800000Y-2650000D01*
G04 #@! TO.N,Net-(C28-Pad2)*
X-28200000Y-10700000D02*
X-25700000Y-10700000D01*
G04 #@! TO.N,/send*
X5500000Y-13200000D02*
X5500000Y-16700000D01*
X4700000Y-12400000D02*
X5500000Y-13200000D01*
X4700000Y3400000D02*
X4700000Y-12400000D01*
X7000000Y5700000D02*
X4700000Y3400000D01*
G04 #@! TO.N,Net-(C27-Pad1)*
X-27200000Y-13100000D02*
X-25700000Y-13100000D01*
X-29500000Y-15400000D02*
X-27200000Y-13100000D01*
X-30700000Y-15400000D02*
X-29500000Y-15400000D01*
X-25700000Y-13100000D02*
X-24100000Y-13100000D01*
X-23000000Y-12000000D02*
X-23000000Y-8800000D01*
X-24100000Y-13100000D02*
X-23000000Y-12000000D01*
G04 #@! TO.N,Net-(Q1-Pad2)*
X34437346Y2224989D02*
X51675011Y2224989D01*
X34037347Y1824990D02*
X34437346Y2224989D01*
X51675011Y2224989D02*
X52600000Y1300000D01*
X52600000Y-2100000D02*
X50000000Y-4700000D01*
X52600000Y1300000D02*
X52600000Y-2100000D01*
G04 #@! TO.N,/Signal Path/ccs3*
X-12000000Y-19500000D02*
X-12000000Y-14700000D01*
G04 #@! TO.N,Net-(C22-Pad1)*
X-1800000Y11300000D02*
X0Y9500000D01*
X-7500000Y11300000D02*
X-1800000Y11300000D01*
X-10400000Y14200000D02*
X-7500000Y11300000D01*
X-12500000Y14200000D02*
X-10400000Y14200000D01*
D30*
G04 #@! TO.N,Net-(C37-Pad1)*
X-21460000Y-26690000D02*
X-21460000Y-29230000D01*
X-25000000Y32900000D02*
X-19900000Y38000000D01*
X-32999989Y13297922D02*
X-25000000Y21297911D01*
X-32999989Y-21200011D02*
X-32999989Y13297922D01*
X-24970000Y-29230000D02*
X-32999989Y-21200011D01*
X-21460000Y-29230000D02*
X-24970000Y-29230000D01*
X-25000000Y31100000D02*
X-25000000Y32900000D01*
X-25000000Y21297911D02*
X-25000000Y31100000D01*
D32*
G04 #@! TO.N,/Signal Path/-VREF0*
X7000000Y-8500000D02*
X5500000Y-7000000D01*
X5500000Y-700000D02*
X7000000Y800000D01*
X5500000Y-7000000D02*
X5500000Y-700000D01*
X8500000Y2300000D02*
X7000000Y800000D01*
X8500000Y12200000D02*
X8500000Y2300000D01*
X-9600000Y-8500000D02*
X-11200000Y-6900000D01*
X-11200000Y1600000D02*
X-9600000Y3200000D01*
X-11200000Y-6900000D02*
X-11200000Y1600000D01*
X-11200000Y4800000D02*
X-9600000Y3200000D01*
X-11200000Y12100000D02*
X-11200000Y4800000D01*
D31*
G04 #@! TO.N,/LED+*
X40700000Y-16000000D02*
X42310000Y-16000000D01*
X40000000Y-18600000D02*
X40000000Y-16700000D01*
X39300000Y-19300000D02*
X40000000Y-18600000D01*
X23400000Y-20700000D02*
X24800000Y-19300000D01*
X24800000Y-19300000D02*
X39300000Y-19300000D01*
X23400000Y-39000000D02*
X23400000Y-20700000D01*
X22100000Y-40300000D02*
X23400000Y-39000000D01*
X42310000Y-16000000D02*
X43810000Y-17500000D01*
X-40900000Y-40300000D02*
X22100000Y-40300000D01*
X-42000000Y-39200000D02*
X-40900000Y-40300000D01*
X-42000000Y-31780000D02*
X-42000000Y-39200000D01*
X40000000Y-16700000D02*
X40700000Y-16000000D01*
X-45050000Y-28730000D02*
X-42000000Y-31780000D01*
D32*
G04 #@! TO.N,/V+*
X46350000Y-13650000D02*
X46300000Y-13600000D01*
X46350000Y-17500000D02*
X46350000Y-13650000D01*
D31*
G04 #@! TO.N,/Signal Path/ccs4*
X-23100000Y-16300000D02*
X-21900000Y-17500000D01*
X-21900000Y-17500000D02*
X-19000000Y-17500000D01*
G04 #@! TO.N,/Signal Path/ccs0*
X47100000Y4700000D02*
X50000000Y4700000D01*
X45100000Y2700000D02*
X47100000Y4700000D01*
X30995558Y2700000D02*
X45100000Y2700000D01*
X30085126Y1789568D02*
X30995558Y2700000D01*
X4200000Y-3700000D02*
X2000000Y-1500000D01*
X4200000Y-13100000D02*
X4200000Y-3700000D01*
G04 #@! TO.N,/Signal Path/ccs2*
X-12000000Y-4100000D02*
X-14600000Y-1500000D01*
X-12000000Y-8100000D02*
X-12000000Y-4100000D01*
D32*
G04 #@! TO.N,Net-(Q10-Pad1)*
X-3500000Y-27900000D02*
X-9300000Y-27900000D01*
X2300000Y-27900000D02*
X-3500000Y-27900000D01*
X8100000Y-27900000D02*
X2300000Y-27900000D01*
X13900000Y-27900000D02*
X8100000Y-27900000D01*
G04 #@! TD*
M02*
